<svg xmlns="http://www.w3.org/2000/svg" xmlns:xlink="http://www.w3.org/1999/xlink" width="500" zoomAndPan="magnify" viewBox="0 0 375 374.999991" height="500" preserveAspectRatio="xMidYMid meet" version="1.0"><defs><clipPath id="aa128d3b6a"><path d="M 53.226562 66.554688 L 321.726562 66.554688 L 321.726562 130 L 53.226562 130 Z M 53.226562 66.554688 " clip-rule="nonzero"/></clipPath><clipPath id="db9caae12a"><path d="M 53.226562 103.792969 L 321.722656 103.792969 L 321.722656 289.300781 L 53.226562 289.300781 Z M 53.226562 103.792969 " clip-rule="nonzero"/></clipPath></defs><g clip-path="url(#aa128d3b6a)"><path fill="#5eacde" d="M 53.226562 129.847656 L 53.226562 90.707031 C 53.226562 77.367188 64.042969 66.554688 77.386719 66.554688 L 129.292969 66.554688 C 134.410156 66.554688 139.390625 68.179688 143.523438 71.1875 L 166.121094 87.652344 L 297.5625 87.652344 C 310.90625 87.652344 321.722656 98.464844 321.722656 111.804688 L 321.722656 129.847656 L 53.226562 129.847656 " fill-opacity="1" fill-rule="nonzero"/></g><g clip-path="url(#db9caae12a)"><path fill="#64c5fa" d="M 297.5625 103.84375 L 77.386719 103.84375 C 64.042969 103.84375 53.226562 114.65625 53.226562 127.992188 L 53.226562 265.152344 C 53.226562 278.488281 64.042969 289.300781 77.386719 289.300781 L 297.5625 289.300781 C 310.90625 289.300781 321.722656 278.488281 321.722656 265.152344 L 321.722656 127.992188 C 321.722656 114.65625 310.90625 103.84375 297.5625 103.84375 " fill-opacity="1" fill-rule="nonzero"/></g></svg>