<svg xmlns="http://www.w3.org/2000/svg" xmlns:xlink="http://www.w3.org/1999/xlink" width="500" zoomAndPan="magnify" viewBox="0 0 375 374.999991" height="500" preserveAspectRatio="xMidYMid meet" version="1.0"><defs><g/></defs><rect x="-37.5" width="450" fill="#ffffff" y="-37.499999" height="449.999989" fill-opacity="1"/><rect x="-37.5" width="450" fill="#222222" y="-37.499999" height="449.999989" fill-opacity="1"/><g fill="#1ecaec" fill-opacity="1"><g transform="translate(153.154007, 300.089299)"><g><path d="M 54.421875 -126.625 L 54.421875 -85.53125 L 126.390625 -85.53125 L 126.390625 -56.640625 L 54.421875 -56.640625 L 54.421875 0 L 18.4375 0 L 18.4375 -155.5 L 135.953125 -155.5 L 135.953125 -126.625 Z M 54.421875 -126.625 "/></g></g></g><g fill="#ffffff" fill-opacity="1"><g transform="translate(82.812786, 224.978611)"><g><path d="M 89.4375 2.5625 C 74.175781 2.5625 60.375 -0.75 48.03125 -7.375 C 35.695312 -14.007812 26 -23.207031 18.9375 -34.96875 C 11.875 -46.738281 8.34375 -60.046875 8.34375 -74.890625 C 8.34375 -89.722656 11.875 -103.019531 18.9375 -114.78125 C 26 -126.550781 35.695312 -135.75 48.03125 -142.375 C 60.375 -149.007812 74.242188 -152.328125 89.640625 -152.328125 C 102.617188 -152.328125 114.347656 -150.046875 124.828125 -145.484375 C 135.316406 -140.921875 144.128906 -134.359375 151.265625 -125.796875 L 129.015625 -105.265625 C 118.890625 -116.960938 106.335938 -122.8125 91.359375 -122.8125 C 82.085938 -122.8125 73.8125 -120.773438 66.53125 -116.703125 C 59.257812 -112.640625 53.59375 -106.972656 49.53125 -99.703125 C 45.46875 -92.429688 43.4375 -84.160156 43.4375 -74.890625 C 43.4375 -65.617188 45.46875 -57.34375 49.53125 -50.0625 C 53.59375 -42.789062 59.257812 -37.117188 66.53125 -33.046875 C 73.8125 -28.984375 82.085938 -26.953125 91.359375 -26.953125 C 106.335938 -26.953125 118.890625 -32.875 129.015625 -44.71875 L 151.265625 -24.171875 C 144.128906 -15.472656 135.285156 -8.84375 124.734375 -4.28125 C 114.179688 0.28125 102.414062 2.5625 89.4375 2.5625 Z M 89.4375 2.5625 "/></g></g></g></svg>