<svg xmlns="http://www.w3.org/2000/svg" xmlns:xlink="http://www.w3.org/1999/xlink" width="869" zoomAndPan="magnify" viewBox="0 0 651.75 850.499975" height="1133" preserveAspectRatio="xMidYMid meet" version="1.0"><path fill="#caddff" d="M 182.242188 186.082031 C 97.167969 234.761719 0.0546875 339.523438 10.136719 458.78125 C 14.480469 510.160156 37.214844 546.410156 54.121094 573.363281 C 65.253906 591.109375 174.324219 759.378906 342.023438 750.40625 C 524.054688 740.671875 651.421875 528.707031 620.117188 479.679688 C 607.082031 459.261719 571.25 474.46875 553.046875 450.171875 C 515.742188 400.390625 640.503906 302.308594 616.359375 229.222656 C 587.667969 142.367188 348.683594 90.835938 182.242188 186.082031 " fill-opacity="1" fill-rule="nonzero"/><path fill="#99b9ff" d="M 242.050781 683.535156 L 154.519531 683.535156 C 151.175781 683.535156 148.46875 680.824219 148.46875 677.476562 L 148.46875 181.367188 C 148.46875 178.179688 151.046875 175.601562 154.226562 175.601562 L 242.050781 175.601562 L 242.050781 683.535156 " fill-opacity="1" fill-rule="nonzero"/><path fill="#000000" d="M 476.542969 664.179688 L 214.300781 664.179688 L 214.300781 215.136719 L 476.542969 215.136719 L 476.542969 664.179688 " fill-opacity="1" fill-rule="nonzero"/><path fill="#5479f7" d="M 489.214844 254.671875 L 201.632812 254.671875 L 201.632812 175.601562 L 489.214844 175.601562 L 489.214844 254.671875 " fill-opacity="1" fill-rule="nonzero"/><path fill="#caddff" d="M 483.320312 192.816406 C 483.320312 186.566406 478.261719 181.503906 472.023438 181.503906 L 218.824219 181.503906 C 212.585938 181.503906 207.527344 186.566406 207.527344 192.816406 L 207.527344 237.457031 C 207.527344 243.707031 212.585938 248.769531 218.824219 248.769531 L 472.023438 248.769531 C 478.261719 248.769531 483.320312 243.707031 483.320312 237.457031 L 483.320312 192.816406 " fill-opacity="1" fill-rule="nonzero"/><path fill="#ffffff" d="M 247.175781 215.136719 C 247.175781 219.011719 244.035156 222.152344 240.167969 222.152344 C 236.296875 222.152344 233.160156 219.011719 233.160156 215.136719 C 233.160156 211.261719 236.296875 208.121094 240.167969 208.121094 C 244.035156 208.121094 247.175781 211.261719 247.175781 215.136719 " fill-opacity="1" fill-rule="nonzero"/><path fill="#ffffff" d="M 269.570312 215.136719 C 269.570312 219.011719 266.429688 222.152344 262.5625 222.152344 C 258.695312 222.152344 255.554688 219.011719 255.554688 215.136719 C 255.554688 211.261719 258.695312 208.121094 262.5625 208.121094 C 266.429688 208.121094 269.570312 211.261719 269.570312 215.136719 " fill-opacity="1" fill-rule="nonzero"/><path fill="#ffffff" d="M 291.964844 215.136719 C 291.964844 219.011719 288.828125 222.152344 284.957031 222.152344 C 281.085938 222.152344 277.949219 219.011719 277.949219 215.136719 C 277.949219 211.261719 281.085938 208.121094 284.957031 208.121094 C 288.828125 208.121094 291.964844 211.261719 291.964844 215.136719 " fill-opacity="1" fill-rule="nonzero"/><path fill="#ffffff" d="M 323.515625 238.269531 L 312.027344 238.269531 L 312.027344 192.007812 L 323.515625 192.007812 L 323.515625 238.269531 " fill-opacity="1" fill-rule="nonzero"/><path fill="#ffffff" d="M 340.3125 238.269531 L 328.820312 238.269531 L 328.820312 192.007812 L 340.3125 192.007812 L 340.3125 238.269531 " fill-opacity="1" fill-rule="nonzero"/><path fill="#ffffff" d="M 357.105469 238.269531 L 345.617188 238.269531 L 345.617188 192.007812 L 357.105469 192.007812 L 357.105469 238.269531 " fill-opacity="1" fill-rule="nonzero"/><path fill="#ffffff" d="M 373.902344 238.269531 L 362.410156 238.269531 L 362.410156 192.007812 L 373.902344 192.007812 L 373.902344 238.269531 " fill-opacity="1" fill-rule="nonzero"/><path fill="#ffffff" d="M 390.695312 238.269531 L 379.203125 238.269531 L 379.203125 192.007812 L 390.695312 192.007812 L 390.695312 238.269531 " fill-opacity="1" fill-rule="nonzero"/><path fill="#ffffff" d="M 407.488281 238.269531 L 396 238.269531 L 396 192.007812 L 407.488281 192.007812 L 407.488281 238.269531 " fill-opacity="1" fill-rule="nonzero"/><path fill="#ffffff" d="M 424.285156 238.269531 L 412.792969 238.269531 L 412.792969 192.007812 L 424.285156 192.007812 L 424.285156 238.269531 " fill-opacity="1" fill-rule="nonzero"/><path fill="#ffffff" d="M 441.074219 238.269531 L 429.585938 238.269531 L 429.585938 192.007812 L 441.074219 192.007812 L 441.074219 238.269531 " fill-opacity="1" fill-rule="nonzero"/><path fill="#ffffff" d="M 457.871094 238.269531 L 446.378906 238.269531 L 446.378906 192.007812 L 457.871094 192.007812 L 457.871094 238.269531 " fill-opacity="1" fill-rule="nonzero"/><path fill="#5479f7" d="M 489.214844 340.34375 L 201.636719 340.34375 L 201.636719 261.273438 L 489.214844 261.273438 L 489.214844 340.34375 " fill-opacity="1" fill-rule="nonzero"/><path fill="#caddff" d="M 472.023438 267.171875 L 218.828125 267.171875 C 212.585938 267.171875 207.527344 272.238281 207.527344 278.484375 L 207.527344 323.125 C 207.527344 329.375 212.585938 334.441406 218.828125 334.441406 L 472.023438 334.441406 C 478.265625 334.441406 483.320312 329.375 483.320312 323.125 L 483.320312 278.484375 C 483.320312 272.238281 478.265625 267.171875 472.023438 267.171875 " fill-opacity="1" fill-rule="nonzero"/><path fill="#ffffff" d="M 247.175781 300.808594 C 247.175781 304.683594 244.039062 307.824219 240.171875 307.824219 C 236.300781 307.824219 233.164062 304.683594 233.164062 300.808594 C 233.164062 296.929688 236.300781 293.789062 240.171875 293.789062 C 244.039062 293.789062 247.175781 296.929688 247.175781 300.808594 " fill-opacity="1" fill-rule="nonzero"/><path fill="#ffffff" d="M 269.570312 300.808594 C 269.570312 304.683594 266.429688 307.824219 262.5625 307.824219 C 258.695312 307.824219 255.558594 304.683594 255.558594 300.808594 C 255.558594 296.929688 258.695312 293.789062 262.5625 293.789062 C 266.429688 293.789062 269.570312 296.929688 269.570312 300.808594 " fill-opacity="1" fill-rule="nonzero"/><path fill="#ffffff" d="M 291.964844 300.808594 C 291.964844 304.683594 288.828125 307.824219 284.957031 307.824219 C 281.089844 307.824219 277.949219 304.683594 277.949219 300.808594 C 277.949219 296.929688 281.089844 293.789062 284.957031 293.789062 C 288.828125 293.789062 291.964844 296.929688 291.964844 300.808594 " fill-opacity="1" fill-rule="nonzero"/><path fill="#ffffff" d="M 323.519531 323.9375 L 312.03125 323.9375 L 312.03125 277.675781 L 323.519531 277.675781 L 323.519531 323.9375 " fill-opacity="1" fill-rule="nonzero"/><path fill="#ffffff" d="M 340.3125 323.9375 L 328.824219 323.9375 L 328.824219 277.675781 L 340.3125 277.675781 L 340.3125 323.9375 " fill-opacity="1" fill-rule="nonzero"/><path fill="#ffffff" d="M 357.109375 323.9375 L 345.617188 323.9375 L 345.617188 277.675781 L 357.109375 277.675781 L 357.109375 323.9375 " fill-opacity="1" fill-rule="nonzero"/><path fill="#ffffff" d="M 373.902344 323.9375 L 362.410156 323.9375 L 362.410156 277.675781 L 373.902344 277.675781 L 373.902344 323.9375 " fill-opacity="1" fill-rule="nonzero"/><path fill="#ffffff" d="M 390.695312 323.9375 L 379.207031 323.9375 L 379.207031 277.675781 L 390.695312 277.675781 L 390.695312 323.9375 " fill-opacity="1" fill-rule="nonzero"/><path fill="#ffffff" d="M 407.488281 323.9375 L 396 323.9375 L 396 277.675781 L 407.488281 277.675781 L 407.488281 323.9375 " fill-opacity="1" fill-rule="nonzero"/><path fill="#ffffff" d="M 424.28125 323.9375 L 412.792969 323.9375 L 412.792969 277.675781 L 424.28125 277.675781 L 424.28125 323.9375 " fill-opacity="1" fill-rule="nonzero"/><path fill="#ffffff" d="M 441.082031 323.9375 L 429.585938 323.9375 L 429.585938 277.675781 L 441.082031 277.675781 L 441.082031 323.9375 " fill-opacity="1" fill-rule="nonzero"/><path fill="#ffffff" d="M 457.875 323.9375 L 446.382812 323.9375 L 446.382812 277.675781 L 457.875 277.675781 L 457.875 323.9375 " fill-opacity="1" fill-rule="nonzero"/><path fill="#5479f7" d="M 489.21875 426.015625 L 201.636719 426.015625 L 201.636719 346.945312 L 489.21875 346.945312 L 489.21875 426.015625 " fill-opacity="1" fill-rule="nonzero"/><path fill="#caddff" d="M 472.023438 352.851562 L 218.824219 352.851562 C 212.585938 352.851562 207.527344 357.914062 207.527344 364.160156 L 207.527344 408.804688 C 207.527344 415.050781 212.585938 420.117188 218.824219 420.117188 L 472.023438 420.117188 C 478.261719 420.117188 483.316406 415.050781 483.316406 408.804688 L 483.316406 364.160156 C 483.316406 357.914062 478.261719 352.851562 472.023438 352.851562 " fill-opacity="1" fill-rule="nonzero"/><path fill="#ffffff" d="M 247.175781 386.480469 C 247.175781 390.355469 244.039062 393.496094 240.167969 393.496094 C 236.296875 393.496094 233.160156 390.355469 233.160156 386.480469 C 233.160156 382.605469 236.296875 379.464844 240.167969 379.464844 C 244.039062 379.464844 247.175781 382.605469 247.175781 386.480469 " fill-opacity="1" fill-rule="nonzero"/><path fill="#ffffff" d="M 269.570312 386.480469 C 269.570312 390.355469 266.429688 393.496094 262.5625 393.496094 C 258.695312 393.496094 255.554688 390.355469 255.554688 386.480469 C 255.554688 382.605469 258.695312 379.464844 262.5625 379.464844 C 266.429688 379.464844 269.570312 382.605469 269.570312 386.480469 " fill-opacity="1" fill-rule="nonzero"/><path fill="#ffffff" d="M 291.964844 386.480469 C 291.964844 390.355469 288.828125 393.496094 284.957031 393.496094 C 281.085938 393.496094 277.949219 390.355469 277.949219 386.480469 C 277.949219 382.605469 281.085938 379.464844 284.957031 379.464844 C 288.828125 379.464844 291.964844 382.605469 291.964844 386.480469 " fill-opacity="1" fill-rule="nonzero"/><path fill="#ffffff" d="M 323.519531 409.613281 L 312.027344 409.613281 L 312.027344 363.351562 L 323.519531 363.351562 L 323.519531 409.613281 " fill-opacity="1" fill-rule="nonzero"/><path fill="#ffffff" d="M 340.3125 409.613281 L 328.824219 409.613281 L 328.824219 363.351562 L 340.3125 363.351562 L 340.3125 409.613281 " fill-opacity="1" fill-rule="nonzero"/><path fill="#ffffff" d="M 357.105469 409.613281 L 345.617188 409.613281 L 345.617188 363.351562 L 357.105469 363.351562 L 357.105469 409.613281 " fill-opacity="1" fill-rule="nonzero"/><path fill="#ffffff" d="M 373.902344 409.613281 L 362.410156 409.613281 L 362.410156 363.351562 L 373.902344 363.351562 L 373.902344 409.613281 " fill-opacity="1" fill-rule="nonzero"/><path fill="#ffffff" d="M 390.695312 409.613281 L 379.203125 409.613281 L 379.203125 363.351562 L 390.695312 363.351562 L 390.695312 409.613281 " fill-opacity="1" fill-rule="nonzero"/><path fill="#ffffff" d="M 407.488281 409.613281 L 396 409.613281 L 396 363.351562 L 407.488281 363.351562 L 407.488281 409.613281 " fill-opacity="1" fill-rule="nonzero"/><path fill="#ffffff" d="M 424.285156 409.613281 L 412.792969 409.613281 L 412.792969 363.351562 L 424.285156 363.351562 L 424.285156 409.613281 " fill-opacity="1" fill-rule="nonzero"/><path fill="#ffffff" d="M 441.078125 409.613281 L 429.585938 409.613281 L 429.585938 363.351562 L 441.078125 363.351562 L 441.078125 409.613281 " fill-opacity="1" fill-rule="nonzero"/><path fill="#ffffff" d="M 457.871094 409.613281 L 446.378906 409.613281 L 446.378906 363.351562 L 457.871094 363.351562 L 457.871094 409.613281 " fill-opacity="1" fill-rule="nonzero"/><path fill="#5479f7" d="M 489.21875 511.6875 L 201.636719 511.6875 L 201.636719 432.617188 L 489.21875 432.617188 L 489.21875 511.6875 " fill-opacity="1" fill-rule="nonzero"/><path fill="#caddff" d="M 472.023438 438.519531 L 218.824219 438.519531 C 212.585938 438.519531 207.527344 443.582031 207.527344 449.835938 L 207.527344 494.472656 C 207.527344 500.726562 212.585938 505.785156 218.824219 505.785156 L 472.023438 505.785156 C 478.261719 505.785156 483.316406 500.726562 483.316406 494.472656 L 483.316406 449.835938 C 483.316406 443.582031 478.261719 438.519531 472.023438 438.519531 " fill-opacity="1" fill-rule="nonzero"/><path fill="#ffffff" d="M 247.175781 472.152344 C 247.175781 476.027344 244.039062 479.167969 240.167969 479.167969 C 236.296875 479.167969 233.160156 476.027344 233.160156 472.152344 C 233.160156 468.277344 236.296875 465.136719 240.167969 465.136719 C 244.039062 465.136719 247.175781 468.277344 247.175781 472.152344 " fill-opacity="1" fill-rule="nonzero"/><path fill="#ffffff" d="M 269.570312 472.152344 C 269.570312 476.027344 266.429688 479.167969 262.5625 479.167969 C 258.695312 479.167969 255.554688 476.027344 255.554688 472.152344 C 255.554688 468.277344 258.695312 465.136719 262.5625 465.136719 C 266.429688 465.136719 269.570312 468.277344 269.570312 472.152344 " fill-opacity="1" fill-rule="nonzero"/><path fill="#ffffff" d="M 291.964844 472.152344 C 291.964844 476.027344 288.828125 479.167969 284.957031 479.167969 C 281.085938 479.167969 277.949219 476.027344 277.949219 472.152344 C 277.949219 468.277344 281.085938 465.136719 284.957031 465.136719 C 288.828125 465.136719 291.964844 468.277344 291.964844 472.152344 " fill-opacity="1" fill-rule="nonzero"/><path fill="#ffffff" d="M 323.519531 495.285156 L 312.027344 495.285156 L 312.027344 449.023438 L 323.519531 449.023438 L 323.519531 495.285156 " fill-opacity="1" fill-rule="nonzero"/><path fill="#ffffff" d="M 340.3125 495.285156 L 328.824219 495.285156 L 328.824219 449.023438 L 340.3125 449.023438 L 340.3125 495.285156 " fill-opacity="1" fill-rule="nonzero"/><path fill="#ffffff" d="M 357.105469 495.285156 L 345.617188 495.285156 L 345.617188 449.023438 L 357.105469 449.023438 L 357.105469 495.285156 " fill-opacity="1" fill-rule="nonzero"/><path fill="#ffffff" d="M 373.902344 495.285156 L 362.410156 495.285156 L 362.410156 449.023438 L 373.902344 449.023438 L 373.902344 495.285156 " fill-opacity="1" fill-rule="nonzero"/><path fill="#ffffff" d="M 390.695312 495.285156 L 379.203125 495.285156 L 379.203125 449.023438 L 390.695312 449.023438 L 390.695312 495.285156 " fill-opacity="1" fill-rule="nonzero"/><path fill="#ffffff" d="M 407.488281 495.285156 L 396 495.285156 L 396 449.023438 L 407.488281 449.023438 L 407.488281 495.285156 " fill-opacity="1" fill-rule="nonzero"/><path fill="#ffffff" d="M 424.285156 495.285156 L 412.792969 495.285156 L 412.792969 449.023438 L 424.285156 449.023438 L 424.285156 495.285156 " fill-opacity="1" fill-rule="nonzero"/><path fill="#ffffff" d="M 441.078125 495.285156 L 429.585938 495.285156 L 429.585938 449.023438 L 441.078125 449.023438 L 441.078125 495.285156 " fill-opacity="1" fill-rule="nonzero"/><path fill="#ffffff" d="M 457.871094 495.285156 L 446.378906 495.285156 L 446.378906 449.019531 L 457.871094 449.019531 L 457.871094 495.285156 " fill-opacity="1" fill-rule="nonzero"/><path fill="#5479f7" d="M 489.5625 597.34375 L 201.984375 597.34375 L 201.984375 518.277344 L 489.5625 518.277344 L 489.5625 597.34375 " fill-opacity="1" fill-rule="nonzero"/><path fill="#caddff" d="M 472.371094 524.175781 L 219.175781 524.175781 C 212.933594 524.175781 207.875 529.242188 207.875 535.488281 L 207.875 580.128906 C 207.875 586.378906 212.933594 591.445312 219.175781 591.445312 L 472.371094 591.445312 C 478.613281 591.445312 483.667969 586.378906 483.667969 580.128906 L 483.667969 535.488281 C 483.667969 529.242188 478.613281 524.175781 472.371094 524.175781 " fill-opacity="1" fill-rule="nonzero"/><path fill="#ffffff" d="M 247.527344 557.808594 C 247.527344 561.683594 244.390625 564.824219 240.519531 564.824219 C 236.652344 564.824219 233.511719 561.683594 233.511719 557.808594 C 233.511719 553.933594 236.652344 550.792969 240.519531 550.792969 C 244.390625 550.792969 247.527344 553.933594 247.527344 557.808594 " fill-opacity="1" fill-rule="nonzero"/><path fill="#ffffff" d="M 269.917969 557.808594 C 269.917969 561.683594 266.785156 564.824219 262.910156 564.824219 C 259.042969 564.824219 255.90625 561.683594 255.90625 557.808594 C 255.90625 553.933594 259.042969 550.792969 262.910156 550.792969 C 266.785156 550.792969 269.917969 553.933594 269.917969 557.808594 " fill-opacity="1" fill-rule="nonzero"/><path fill="#ffffff" d="M 292.3125 557.808594 C 292.3125 561.683594 289.175781 564.824219 285.304688 564.824219 C 281.4375 564.824219 278.296875 561.683594 278.296875 557.808594 C 278.296875 553.933594 281.4375 550.792969 285.304688 550.792969 C 289.175781 550.792969 292.3125 553.933594 292.3125 557.808594 " fill-opacity="1" fill-rule="nonzero"/><path fill="#ffffff" d="M 323.867188 580.941406 L 312.378906 580.941406 L 312.378906 534.679688 L 323.867188 534.679688 L 323.867188 580.941406 " fill-opacity="1" fill-rule="nonzero"/><path fill="#ffffff" d="M 340.664062 580.941406 L 329.171875 580.941406 L 329.171875 534.679688 L 340.664062 534.679688 L 340.664062 580.941406 " fill-opacity="1" fill-rule="nonzero"/><path fill="#ffffff" d="M 357.457031 580.941406 L 345.964844 580.941406 L 345.964844 534.679688 L 357.457031 534.679688 L 357.457031 580.941406 " fill-opacity="1" fill-rule="nonzero"/><path fill="#ffffff" d="M 374.25 580.941406 L 362.761719 580.941406 L 362.761719 534.679688 L 374.25 534.679688 L 374.25 580.941406 " fill-opacity="1" fill-rule="nonzero"/><path fill="#ffffff" d="M 391.042969 580.941406 L 379.554688 580.941406 L 379.554688 534.679688 L 391.042969 534.679688 L 391.042969 580.941406 " fill-opacity="1" fill-rule="nonzero"/><path fill="#ffffff" d="M 407.839844 580.941406 L 396.347656 580.941406 L 396.347656 534.679688 L 407.839844 534.679688 L 407.839844 580.941406 " fill-opacity="1" fill-rule="nonzero"/><path fill="#ffffff" d="M 424.632812 580.941406 L 413.140625 580.941406 L 413.140625 534.679688 L 424.632812 534.679688 L 424.632812 580.941406 " fill-opacity="1" fill-rule="nonzero"/><path fill="#ffffff" d="M 441.425781 580.941406 L 429.9375 580.941406 L 429.9375 534.679688 L 441.425781 534.679688 L 441.425781 580.941406 " fill-opacity="1" fill-rule="nonzero"/><path fill="#ffffff" d="M 458.222656 580.941406 L 446.730469 580.941406 L 446.730469 534.679688 L 458.222656 534.679688 L 458.222656 580.941406 " fill-opacity="1" fill-rule="nonzero"/><path fill="#5479f7" d="M 489.5625 683.015625 L 201.984375 683.015625 L 201.984375 603.949219 L 489.5625 603.949219 L 489.5625 683.015625 " fill-opacity="1" fill-rule="nonzero"/><path fill="#caddff" d="M 472.371094 609.851562 L 219.175781 609.851562 C 212.933594 609.851562 207.875 614.914062 207.875 621.160156 L 207.875 665.800781 C 207.875 672.050781 212.933594 677.117188 219.175781 677.117188 L 472.371094 677.117188 C 478.613281 677.117188 483.667969 672.050781 483.667969 665.800781 L 483.667969 621.160156 C 483.667969 614.914062 478.613281 609.851562 472.371094 609.851562 " fill-opacity="1" fill-rule="nonzero"/><path fill="#ffffff" d="M 247.527344 643.480469 C 247.527344 647.355469 244.390625 650.5 240.519531 650.5 C 236.652344 650.5 233.511719 647.355469 233.511719 643.480469 C 233.511719 639.605469 236.652344 636.464844 240.519531 636.464844 C 244.390625 636.464844 247.527344 639.605469 247.527344 643.480469 " fill-opacity="1" fill-rule="nonzero"/><path fill="#ffffff" d="M 269.917969 643.480469 C 269.917969 647.355469 266.785156 650.5 262.910156 650.5 C 259.042969 650.5 255.90625 647.355469 255.90625 643.480469 C 255.90625 639.605469 259.042969 636.464844 262.910156 636.464844 C 266.785156 636.464844 269.917969 639.605469 269.917969 643.480469 " fill-opacity="1" fill-rule="nonzero"/><path fill="#ffffff" d="M 292.3125 643.480469 C 292.3125 647.355469 289.175781 650.5 285.304688 650.5 C 281.4375 650.5 278.296875 647.355469 278.296875 643.480469 C 278.296875 639.605469 281.4375 636.464844 285.304688 636.464844 C 289.175781 636.464844 292.3125 639.605469 292.3125 643.480469 " fill-opacity="1" fill-rule="nonzero"/><path fill="#ffffff" d="M 323.867188 666.613281 L 312.378906 666.613281 L 312.378906 620.355469 L 323.867188 620.355469 L 323.867188 666.613281 " fill-opacity="1" fill-rule="nonzero"/><path fill="#ffffff" d="M 340.664062 666.613281 L 329.171875 666.613281 L 329.171875 620.355469 L 340.664062 620.355469 L 340.664062 666.613281 " fill-opacity="1" fill-rule="nonzero"/><path fill="#ffffff" d="M 357.457031 666.613281 L 345.964844 666.613281 L 345.964844 620.355469 L 357.457031 620.355469 L 357.457031 666.613281 " fill-opacity="1" fill-rule="nonzero"/><path fill="#ffffff" d="M 374.25 666.613281 L 362.761719 666.613281 L 362.761719 620.355469 L 374.25 620.355469 L 374.25 666.613281 " fill-opacity="1" fill-rule="nonzero"/><path fill="#ffffff" d="M 391.042969 666.613281 L 379.554688 666.613281 L 379.554688 620.355469 L 391.042969 620.355469 L 391.042969 666.613281 " fill-opacity="1" fill-rule="nonzero"/><path fill="#ffffff" d="M 407.839844 666.613281 L 396.347656 666.613281 L 396.347656 620.355469 L 407.839844 620.355469 L 407.839844 666.613281 " fill-opacity="1" fill-rule="nonzero"/><path fill="#ffffff" d="M 424.632812 666.613281 L 413.140625 666.613281 L 413.140625 620.355469 L 424.632812 620.355469 L 424.632812 666.613281 " fill-opacity="1" fill-rule="nonzero"/><path fill="#ffffff" d="M 441.425781 666.613281 L 429.9375 666.613281 L 429.9375 620.355469 L 441.425781 620.355469 L 441.425781 666.613281 " fill-opacity="1" fill-rule="nonzero"/><path fill="#ffffff" d="M 458.222656 666.613281 L 446.730469 666.613281 L 446.730469 620.355469 L 458.222656 620.355469 L 458.222656 666.613281 " fill-opacity="1" fill-rule="nonzero"/><path fill="#000000" d="M 378.003906 722.035156 L 372.921875 722.035156 C 372.308594 722.035156 371.808594 721.535156 371.808594 720.917969 C 371.808594 720.304688 372.308594 719.804688 372.921875 719.804688 L 378.003906 719.804688 C 378.621094 719.804688 379.121094 720.304688 379.121094 720.917969 C 379.121094 721.535156 378.621094 722.035156 378.003906 722.035156 " fill-opacity="1" fill-rule="nonzero"/><path fill="#000000" d="M 363.839844 722.035156 L 336.558594 722.035156 C 335.941406 722.035156 335.445312 721.535156 335.445312 720.917969 C 335.445312 720.304688 335.941406 719.804688 336.558594 719.804688 L 363.839844 719.804688 C 364.453125 719.804688 364.953125 720.304688 364.953125 720.917969 C 364.953125 721.535156 364.453125 722.035156 363.839844 722.035156 " fill-opacity="1" fill-rule="nonzero"/><path fill="#000000" d="M 323.871094 722.035156 L 153.484375 722.035156 C 147.390625 722.035156 142.433594 717.074219 142.433594 710.96875 L 142.433594 633.6875 C 142.433594 628.816406 138.476562 624.855469 133.613281 624.855469 L 24.355469 624.855469 C 18.265625 624.855469 13.304688 619.890625 13.304688 613.789062 L 13.304688 571.210938 C 13.304688 570.589844 13.804688 570.09375 14.421875 570.09375 C 15.035156 570.09375 15.535156 570.589844 15.535156 571.210938 L 15.535156 613.789062 C 15.535156 618.660156 19.492188 622.625 24.355469 622.625 L 133.613281 622.625 C 139.707031 622.625 144.664062 627.585938 144.664062 633.6875 L 144.664062 710.96875 C 144.664062 715.839844 148.621094 719.804688 153.484375 719.804688 L 323.871094 719.804688 C 324.488281 719.804688 324.988281 720.304688 324.988281 720.917969 C 324.988281 721.535156 324.488281 722.035156 323.871094 722.035156 " fill-opacity="1" fill-rule="nonzero"/><path fill="#000000" d="M 14.421875 554.828125 C 13.804688 554.828125 13.304688 554.328125 13.304688 553.710938 L 13.304688 544.898438 C 13.304688 544.285156 13.804688 543.785156 14.421875 543.785156 C 15.035156 543.785156 15.535156 544.285156 15.535156 544.898438 L 15.535156 553.710938 C 15.535156 554.328125 15.035156 554.828125 14.421875 554.828125 " fill-opacity="1" fill-rule="nonzero"/><path fill="#000000" d="M 14.421875 536.417969 C 13.804688 536.417969 13.304688 535.917969 13.304688 535.304688 L 13.304688 516.730469 C 13.304688 516.113281 13.804688 515.617188 14.421875 515.617188 C 15.035156 515.617188 15.535156 516.113281 15.535156 516.730469 L 15.535156 535.304688 C 15.535156 535.917969 15.035156 536.417969 14.421875 536.417969 " fill-opacity="1" fill-rule="nonzero"/><path fill="#000000" d="M 469.015625 590.5625 L 356.765625 590.5625 C 350.78125 590.5625 345.910156 585.59375 345.910156 579.488281 L 345.910156 566.503906 C 345.910156 561.625 342.046875 557.65625 337.289062 557.65625 L 312.984375 557.65625 C 312.371094 557.65625 311.875 557.160156 311.875 556.539062 C 311.875 555.925781 312.371094 555.425781 312.984375 555.425781 L 337.289062 555.425781 C 343.273438 555.425781 348.140625 560.394531 348.140625 566.503906 L 348.140625 579.488281 C 348.140625 584.363281 352.011719 588.328125 356.765625 588.328125 L 469.015625 588.328125 C 473.769531 588.328125 477.636719 584.363281 477.636719 579.488281 C 477.636719 578.871094 478.140625 578.371094 478.753906 578.371094 C 479.371094 578.371094 479.867188 578.871094 479.867188 579.488281 C 479.867188 585.59375 474.996094 590.5625 469.015625 590.5625 " fill-opacity="1" fill-rule="nonzero"/><path fill="#ffffff" d="M 523.777344 612.355469 C 514.554688 595.847656 515.703125 588.109375 518.332031 584.09375 C 523.015625 576.945312 533.496094 579.960938 538.136719 572.199219 C 542.910156 564.210938 534.257812 556.957031 537.480469 546.722656 C 541.289062 534.613281 560.175781 523.195312 572.300781 530.050781 C 582.671875 535.917969 585.402344 553.632812 579.238281 562.777344 C 572.390625 572.929688 557.304688 568.496094 553.058594 577.957031 C 549.148438 586.65625 559.898438 594.898438 556.457031 602.9375 C 554.484375 607.546875 547.59375 612.65625 523.777344 612.355469 " fill-opacity="1" fill-rule="nonzero"/><path fill="#99b9ff" d="M 522.042969 620.207031 C 521.925781 620.207031 521.796875 620.183594 521.675781 620.144531 C 521.097656 619.945312 520.785156 619.308594 520.988281 618.726562 C 537.902344 569.804688 560.023438 553.992188 560.957031 553.34375 C 561.464844 552.988281 562.160156 553.113281 562.511719 553.617188 C 562.859375 554.125 562.738281 554.820312 562.230469 555.171875 C 562.007812 555.328125 539.742188 571.304688 523.097656 619.457031 C 522.9375 619.917969 522.503906 620.207031 522.042969 620.207031 " fill-opacity="1" fill-rule="nonzero"/><path fill="#5479f7" d="M 509.472656 606.65625 C 509.375 591.238281 513.78125 581.851562 517.828125 576.132812 C 525.210938 565.6875 533.390625 564.613281 536.210938 554.527344 C 538.871094 544.996094 532.644531 542.113281 534.730469 531.378906 C 537.214844 518.601562 547.011719 517.71875 549.535156 507.195312 C 552.605469 494.390625 539.964844 487.910156 533.617188 469.933594 C 525.410156 446.671875 539.019531 436.144531 535.90625 414.425781 C 530.855469 379.167969 486.367188 346.675781 467.339844 355.535156 C 449.398438 363.886719 448.089844 411.800781 462.589844 446.605469 C 478.042969 483.710938 501.988281 483.175781 505.464844 514.1875 C 507.871094 535.621094 497.820312 548.183594 502.992188 581.121094 C 504.738281 592.277344 507.507812 601.136719 509.472656 606.65625 " fill-opacity="1" fill-rule="nonzero"/><path fill="#99b9ff" d="M 514.1875 620.90625 C 513.761719 620.90625 513.363281 620.667969 513.175781 620.253906 C 503.933594 600.0625 507.683594 577.914062 512.433594 549.878906 C 514.933594 535.140625 517.761719 518.433594 518.859375 500.042969 C 521.90625 448.78125 479.136719 386.742188 478.703125 386.125 C 478.351562 385.617188 478.476562 384.921875 478.976562 384.570312 C 479.480469 384.21875 480.175781 384.339844 480.53125 384.84375 C 480.96875 385.46875 524.179688 448.132812 521.082031 500.175781 C 519.976562 518.6875 517.140625 535.457031 514.632812 550.253906 C 509.949219 577.910156 506.246094 599.757812 515.203125 619.328125 C 515.453125 619.886719 515.207031 620.550781 514.652344 620.808594 C 514.5 620.875 514.34375 620.90625 514.1875 620.90625 " fill-opacity="1" fill-rule="nonzero"/><path fill="#99b9ff" d="M 498.121094 610.417969 C 496.046875 600.609375 493.875 586.15625 494.597656 568.726562 C 495.777344 540.316406 503.660156 528.21875 495.738281 517.601562 C 487.011719 505.894531 472.324219 513.730469 461.914062 499.808594 C 454.824219 490.3125 458.378906 482.292969 448.632812 473.359375 C 446.78125 471.652344 440.738281 466.257812 432.207031 465.601562 C 424.292969 464.984375 421.5 469.007812 411.40625 472.535156 C 393.113281 478.925781 384.960938 471.769531 378.234375 478.488281 C 372.28125 484.4375 371.09375 497.621094 376.773438 504.890625 C 387.46875 518.578125 415.753906 502.636719 426.371094 515.621094 C 435.4375 526.710938 419.8125 544.464844 429.730469 556.828125 C 438.667969 567.960938 456.5625 560.042969 463.898438 571.699219 C 469.507812 580.613281 461.652344 589.390625 466.851562 598.679688 C 472.269531 608.371094 487.1875 610.230469 498.121094 610.417969 " fill-opacity="1" fill-rule="nonzero"/><path fill="#ffffff" d="M 504.925781 620.488281 C 504.683594 620.488281 504.445312 620.410156 504.242188 620.253906 C 494.953125 613.0625 491.738281 601.105469 486.878906 583.003906 C 483.207031 569.335938 478.636719 552.320312 469.800781 531.484375 C 459.449219 507.054688 439.777344 497.121094 425.09375 493.085938 C 409.140625 488.699219 395.503906 490.128906 395.363281 490.140625 C 394.757812 490.203125 394.203125 489.769531 394.136719 489.15625 C 394.070312 488.542969 394.515625 487.992188 395.125 487.925781 C 395.699219 487.859375 409.324219 486.433594 425.6875 490.933594 C 440.839844 495.097656 461.152344 505.363281 471.851562 530.613281 C 480.75 551.59375 485.339844 568.6875 489.03125 582.425781 C 493.777344 600.089844 496.910156 611.757812 505.605469 618.492188 C 506.09375 618.867188 506.183594 619.566406 505.804688 620.054688 C 505.585938 620.335938 505.257812 620.488281 504.925781 620.488281 " fill-opacity="1" fill-rule="nonzero"/><path fill="#5479f7" d="M 470.828125 619.089844 C 472.359375 619.777344 551.246094 619.089844 551.246094 619.089844 L 541.394531 699.699219 C 541.132812 701.875 540.660156 704.03125 539.859375 706.074219 C 535.984375 715.96875 526.390625 722.722656 515.464844 722.722656 C 503.25 722.722656 492.652344 714.273438 489.921875 702.355469 L 470.828125 619.089844 " fill-opacity="1" fill-rule="nonzero"/><path fill="#000000" d="M 48.621094 422.03125 C 48.550781 422.03125 48.480469 422.023438 48.410156 422.011719 C 47.804688 421.894531 47.410156 421.3125 47.527344 420.707031 C 50.347656 406.015625 54.578125 391.457031 60.109375 377.433594 C 68.949219 354.984375 80.980469 334.132812 95.859375 315.449219 C 96.242188 314.96875 96.945312 314.886719 97.425781 315.269531 C 97.90625 315.65625 97.984375 316.355469 97.601562 316.839844 C 82.863281 335.347656 70.945312 356.011719 62.183594 378.25 C 56.703125 392.148438 52.511719 406.574219 49.714844 421.125 C 49.613281 421.660156 49.144531 422.03125 48.621094 422.03125 " fill-opacity="1" fill-rule="nonzero"/><path fill="#000000" d="M 98.382812 290.808594 C 98.113281 290.808594 97.839844 290.710938 97.628906 290.511719 C 97.175781 290.09375 97.148438 289.386719 97.566406 288.9375 C 99.933594 286.371094 102.386719 283.828125 104.847656 281.375 C 105.285156 280.9375 105.992188 280.9375 106.425781 281.378906 C 106.859375 281.8125 106.859375 282.523438 106.421875 282.953125 C 103.980469 285.390625 101.550781 287.910156 99.203125 290.453125 C 98.980469 290.6875 98.683594 290.808594 98.382812 290.808594 " fill-opacity="1" fill-rule="nonzero"/><path fill="#000000" d="M 45.445312 378.941406 C 45.324219 378.941406 45.199219 378.917969 45.078125 378.878906 C 44.496094 378.675781 44.191406 378.039062 44.394531 377.457031 C 45.472656 374.386719 46.628906 371.277344 47.828125 368.226562 C 59.445312 338.753906 76.175781 312.074219 97.566406 288.933594 C 97.980469 288.484375 98.6875 288.457031 99.140625 288.875 C 99.59375 289.292969 99.617188 290 99.203125 290.453125 C 78.003906 313.386719 61.414062 339.832031 49.902344 369.046875 C 48.710938 372.070312 47.566406 375.148438 46.5 378.191406 C 46.335938 378.65625 45.90625 378.941406 45.445312 378.941406 " fill-opacity="1" fill-rule="nonzero"/><path fill="#000000" d="M 42.855469 426.71875 L 44.863281 433.148438 L 50.804688 428.5 Z M 43.695312 436.890625 L 39.578125 423.699219 L 55.894531 427.351562 L 43.695312 436.890625 " fill-opacity="1" fill-rule="nonzero"/><path fill="#000000" d="M 570.445312 202.652344 C 570.210938 202.652344 569.972656 202.578125 569.773438 202.425781 C 548.683594 186.554688 499.636719 160.140625 457.785156 156.808594 C 457.167969 156.757812 456.714844 156.21875 456.761719 155.605469 C 456.808594 154.996094 457.335938 154.535156 457.960938 154.585938 C 500.285156 157.953125 549.828125 184.621094 571.113281 200.644531 C 571.601562 201.011719 571.703125 201.710938 571.335938 202.203125 C 571.117188 202.5 570.78125 202.652344 570.445312 202.652344 " fill-opacity="1" fill-rule="nonzero"/><path fill="#000000" d="M 542.363281 172.898438 C 542.175781 172.898438 541.992188 172.851562 541.816406 172.753906 C 541.453125 172.546875 504.65625 152.007812 470.625 149.472656 C 470.015625 149.429688 469.558594 148.894531 469.601562 148.277344 C 469.648438 147.664062 470.1875 147.199219 470.792969 147.25 C 505.324219 149.820312 542.542969 170.601562 542.914062 170.8125 C 543.449219 171.109375 543.636719 171.792969 543.335938 172.332031 C 543.132812 172.691406 542.75 172.898438 542.363281 172.898438 " fill-opacity="1" fill-rule="nonzero"/><path fill="#000000" d="M 554.527344 345.414062 C 554.253906 345.414062 553.972656 345.3125 553.757812 345.105469 C 553.308594 344.683594 553.296875 343.976562 553.722656 343.53125 L 557.230469 339.859375 C 557.65625 339.417969 558.363281 339.402344 558.808594 339.828125 C 559.25 340.25 559.269531 340.957031 558.839844 341.402344 L 555.335938 345.074219 C 555.113281 345.300781 554.820312 345.414062 554.527344 345.414062 " fill-opacity="1" fill-rule="nonzero"/><path fill="#000000" d="M 542.257812 358.257812 C 541.984375 358.257812 541.703125 358.15625 541.488281 357.949219 C 541.046875 357.523438 541.027344 356.816406 541.453125 356.371094 L 544.960938 352.703125 C 545.386719 352.257812 546.09375 352.242188 546.535156 352.667969 C 546.980469 353.09375 546.996094 353.800781 546.570312 354.246094 L 543.0625 357.914062 C 542.847656 358.140625 542.554688 358.257812 542.257812 358.257812 " fill-opacity="1" fill-rule="nonzero"/><path fill="#000000" d="M 545.699219 345.613281 C 545.414062 345.613281 545.132812 345.507812 544.917969 345.292969 L 541.355469 341.777344 C 540.917969 341.347656 540.910156 340.640625 541.347656 340.203125 C 541.78125 339.765625 542.480469 339.757812 542.921875 340.191406 L 546.480469 343.699219 C 546.917969 344.136719 546.925781 344.839844 546.492188 345.28125 C 546.273438 345.503906 545.988281 345.613281 545.699219 345.613281 " fill-opacity="1" fill-rule="nonzero"/><path fill="#000000" d="M 558.15625 357.910156 C 557.867188 357.910156 557.585938 357.800781 557.371094 357.589844 L 553.8125 354.078125 C 553.371094 353.640625 553.367188 352.933594 553.796875 352.496094 C 554.230469 352.058594 554.9375 352.054688 555.371094 352.488281 L 558.933594 356 C 559.371094 356.429688 559.375 357.136719 558.945312 357.578125 C 558.726562 357.796875 558.441406 357.910156 558.15625 357.910156 " fill-opacity="1" fill-rule="nonzero"/><path fill="#000000" d="M 568.917969 319.113281 C 568.464844 319.113281 568.007812 319.171875 567.558594 319.292969 C 566.203125 319.65625 565.078125 320.519531 564.382812 321.730469 C 562.9375 324.234375 563.796875 327.445312 566.292969 328.886719 C 567.503906 329.585938 568.914062 329.773438 570.265625 329.410156 C 571.613281 329.050781 572.742188 328.183594 573.445312 326.972656 C 574.882812 324.46875 574.023438 321.261719 571.523438 319.820312 C 570.71875 319.351562 569.824219 319.113281 568.917969 319.113281 Z M 568.898438 331.824219 C 567.605469 331.824219 566.328125 331.484375 565.179688 330.816406 C 561.621094 328.757812 560.394531 324.183594 562.449219 320.617188 C 563.449219 318.886719 565.058594 317.652344 566.980469 317.140625 C 568.902344 316.621094 570.914062 316.886719 572.644531 317.886719 C 576.203125 319.945312 577.429688 324.523438 575.371094 328.085938 C 574.375 329.816406 572.769531 331.050781 570.839844 331.5625 C 570.195312 331.742188 569.546875 331.824219 568.898438 331.824219 " fill-opacity="1" fill-rule="nonzero"/><path fill="#000000" d="M 88.609375 702.8125 C 85.179688 702.8125 82.390625 705.609375 82.390625 709.042969 C 82.390625 712.476562 85.179688 715.273438 88.609375 715.273438 C 92.039062 715.273438 94.828125 712.476562 94.828125 709.042969 C 94.828125 705.609375 92.039062 702.8125 88.609375 702.8125 Z M 88.609375 717.503906 C 83.953125 717.503906 80.160156 713.707031 80.160156 709.042969 C 80.160156 704.378906 83.953125 700.585938 88.609375 700.585938 C 93.269531 700.585938 97.058594 704.378906 97.058594 709.042969 C 97.058594 713.707031 93.269531 717.503906 88.609375 717.503906 " fill-opacity="1" fill-rule="nonzero"/><path fill="#000000" d="M 118.597656 703.457031 C 118.347656 703.457031 118.09375 703.371094 117.886719 703.199219 C 117.644531 703 93.265625 682.613281 66.898438 645.707031 C 66.539062 645.207031 66.65625 644.511719 67.15625 644.152344 C 67.660156 643.789062 68.355469 643.910156 68.710938 644.410156 C 94.898438 681.0625 119.070312 701.285156 119.3125 701.480469 C 119.785156 701.875 119.851562 702.578125 119.457031 703.054688 C 119.238281 703.320312 118.917969 703.457031 118.597656 703.457031 " fill-opacity="1" fill-rule="nonzero"/><path fill="#000000" d="M 92.027344 689.679688 C 91.761719 689.679688 91.492188 689.585938 91.28125 689.390625 C 91.113281 689.234375 74.109375 673.683594 53.917969 645.710938 C 53.558594 645.210938 53.671875 644.515625 54.167969 644.15625 C 54.667969 643.789062 55.367188 643.90625 55.726562 644.402344 C 75.765625 672.171875 92.609375 687.585938 92.777344 687.738281 C 93.234375 688.152344 93.269531 688.859375 92.855469 689.3125 C 92.632812 689.554688 92.332031 689.679688 92.027344 689.679688 " fill-opacity="1" fill-rule="nonzero"/><path fill="#000000" d="M 412.113281 714.980469 C 411.730469 714.980469 411.359375 714.78125 411.148438 714.429688 C 410.839844 713.898438 411.019531 713.214844 411.546875 712.902344 L 415.574219 710.535156 C 416.105469 710.222656 416.789062 710.402344 417.101562 710.933594 C 417.414062 711.464844 417.238281 712.148438 416.703125 712.460938 L 412.675781 714.824219 C 412.496094 714.929688 412.304688 714.980469 412.113281 714.980469 " fill-opacity="1" fill-rule="nonzero"/><path fill="#000000" d="M 426.210938 706.695312 C 425.828125 706.695312 425.453125 706.496094 425.246094 706.144531 C 424.9375 705.613281 425.113281 704.929688 425.640625 704.617188 L 429.671875 702.25 C 430.203125 701.9375 430.882812 702.117188 431.195312 702.644531 C 431.503906 703.175781 431.332031 703.863281 430.800781 704.171875 L 426.769531 706.539062 C 426.59375 706.644531 426.402344 706.695312 426.210938 706.695312 " fill-opacity="1" fill-rule="nonzero"/><path fill="#000000" d="M 426.578125 718.753906 C 426.199219 718.753906 425.828125 718.558594 425.621094 718.207031 L 423.21875 714.164062 C 422.902344 713.636719 423.078125 712.953125 423.605469 712.636719 C 424.136719 712.320312 424.820312 712.496094 425.132812 713.027344 L 427.535156 717.070312 C 427.851562 717.597656 427.675781 718.28125 427.148438 718.597656 C 426.96875 718.703125 426.773438 718.753906 426.578125 718.753906 " fill-opacity="1" fill-rule="nonzero"/><path fill="#000000" d="M 418.167969 704.601562 C 417.789062 704.601562 417.421875 704.40625 417.210938 704.050781 L 414.808594 700.007812 C 414.496094 699.480469 414.667969 698.796875 415.199219 698.476562 C 415.726562 698.164062 416.410156 698.339844 416.722656 698.867188 L 419.128906 702.910156 C 419.441406 703.445312 419.269531 704.128906 418.742188 704.441406 C 418.5625 704.550781 418.367188 704.601562 418.167969 704.601562 " fill-opacity="1" fill-rule="nonzero"/><path fill="#000000" d="M 556.871094 656.289062 C 556.5625 656.289062 556.265625 656.167969 556.039062 655.917969 C 555.628906 655.460938 555.671875 654.753906 556.125 654.34375 C 569.949219 641.964844 582.433594 627.125 593.230469 610.238281 C 593.5625 609.71875 594.253906 609.566406 594.773438 609.902344 C 595.289062 610.230469 595.441406 610.921875 595.109375 611.441406 C 584.203125 628.496094 571.585938 643.492188 557.613281 656.003906 C 557.402344 656.195312 557.136719 656.289062 556.871094 656.289062 " fill-opacity="1" fill-rule="nonzero"/><path fill="#000000" d="M 604.554688 594.066406 C 604.382812 594.066406 604.203125 594.023438 604.039062 593.9375 C 603.496094 593.652344 603.285156 592.976562 603.574219 592.429688 C 606.953125 586.003906 610.097656 579.316406 612.925781 572.566406 C 613.164062 571.996094 613.816406 571.726562 614.382812 571.964844 C 614.953125 572.207031 615.222656 572.859375 614.984375 573.425781 C 612.128906 580.242188 608.953125 586.984375 605.546875 593.46875 C 605.34375 593.851562 604.957031 594.066406 604.554688 594.066406 " fill-opacity="1" fill-rule="nonzero"/><path fill="#ffffff" d="M 166.988281 710.382812 C 168.449219 708.902344 176.882812 682.628906 176.882812 682.628906 L 193.550781 694.539062 L 175.277344 719.128906 L 166.988281 710.382812 " fill-opacity="1" fill-rule="nonzero"/><path fill="#000000" d="M 168.363281 710.214844 L 175.171875 717.398438 L 191.976562 694.785156 L 177.476562 684.425781 C 175 692.09375 170.332031 706.257812 168.363281 710.214844 Z M 175.277344 720.242188 C 174.972656 720.242188 174.679688 720.121094 174.46875 719.898438 L 166.179688 711.148438 C 165.773438 710.722656 165.773438 710.050781 166.175781 709.621094 C 167.15625 708.324219 171.875 694.585938 175.820312 682.289062 C 175.929688 681.949219 176.195312 681.683594 176.53125 681.570312 C 176.871094 681.460938 177.238281 681.515625 177.53125 681.722656 L 194.199219 693.632812 C 194.441406 693.804688 194.605469 694.070312 194.652344 694.363281 C 194.699219 694.660156 194.625 694.964844 194.445312 695.207031 L 176.171875 719.792969 C 175.976562 720.058594 175.671875 720.222656 175.34375 720.238281 C 175.320312 720.242188 175.300781 720.242188 175.277344 720.242188 " fill-opacity="1" fill-rule="nonzero"/><path fill="#000000" d="M 197.023438 743.605469 L 185.941406 743.535156 C 178.605469 743.492188 171.785156 739.761719 167.785156 733.609375 L 156.828125 716.230469 C 153.796875 711.433594 155.492188 705.066406 160.5 702.402344 C 165.074219 699.96875 169.867188 697.597656 170.992188 697.703125 C 173.269531 697.925781 174.191406 708.722656 174.191406 708.722656 L 184.066406 709.105469 C 184.066406 709.105469 188.945312 729.417969 193.238281 731.726562 C 196.367188 733.410156 198.546875 735.878906 200.019531 738.132812 C 201.554688 740.492188 199.839844 743.617188 197.023438 743.605469 " fill-opacity="1" fill-rule="nonzero"/><path fill="#ffffff" d="M 195.910156 740.382812 C 195.855469 740.382812 195.800781 740.382812 195.742188 740.371094 L 180.582031 738.082031 C 176.835938 737.523438 173.574219 735.328125 171.628906 732.082031 L 158.234375 709.667969 C 157.917969 709.140625 158.089844 708.453125 158.617188 708.136719 C 159.148438 707.824219 159.832031 707.992188 160.148438 708.523438 L 173.542969 730.933594 C 175.144531 733.609375 177.832031 735.414062 180.914062 735.878906 L 196.074219 738.164062 C 196.683594 738.257812 197.101562 738.824219 197.011719 739.433594 C 196.925781 739.988281 196.453125 740.382812 195.910156 740.382812 " fill-opacity="1" fill-rule="nonzero"/><path fill="#ffffff" d="M 177.195312 723.53125 C 176.703125 723.53125 176.253906 723.203125 176.121094 722.707031 C 175.957031 722.113281 176.308594 721.5 176.902344 721.335938 L 185.347656 719.035156 C 185.941406 718.875 186.554688 719.222656 186.71875 719.820312 C 186.878906 720.414062 186.53125 721.027344 185.933594 721.1875 L 177.488281 723.488281 C 177.390625 723.515625 177.292969 723.53125 177.195312 723.53125 " fill-opacity="1" fill-rule="nonzero"/><path fill="#ffffff" d="M 181.59375 727.875 C 181.09375 727.875 180.636719 727.53125 180.511719 727.023438 C 180.367188 726.425781 180.730469 725.820312 181.332031 725.675781 L 186.992188 724.285156 C 187.589844 724.140625 188.195312 724.503906 188.339844 725.109375 C 188.488281 725.707031 188.121094 726.308594 187.523438 726.457031 L 181.859375 727.84375 C 181.769531 727.867188 181.679688 727.875 181.59375 727.875 " fill-opacity="1" fill-rule="nonzero"/><path fill="#ffffff" d="M 223.859375 705.371094 L 243.210938 724.839844 L 253.46875 721.066406 L 235.632812 696.15625 L 223.859375 705.371094 " fill-opacity="1" fill-rule="nonzero"/><path fill="#000000" d="M 225.535156 705.476562 L 243.496094 723.542969 L 251.710938 720.523438 L 235.402344 697.75 Z M 243.210938 725.953125 C 242.917969 725.953125 242.632812 725.835938 242.421875 725.621094 L 223.070312 706.15625 C 222.84375 705.929688 222.726562 705.621094 222.746094 705.300781 C 222.769531 704.980469 222.921875 704.6875 223.171875 704.488281 L 234.941406 695.28125 C 235.183594 695.089844 235.488281 695.007812 235.789062 695.054688 C 236.089844 695.097656 236.359375 695.257812 236.535156 695.507812 L 254.375 720.414062 C 254.578125 720.699219 254.636719 721.058594 254.53125 721.394531 C 254.433594 721.726562 254.179688 721.992188 253.855469 722.109375 L 243.59375 725.882812 C 243.46875 725.933594 243.339844 725.953125 243.210938 725.953125 " fill-opacity="1" fill-rule="nonzero"/><path fill="#000000" d="M 237.097656 721.792969 C 237.097656 721.792969 236.164062 730.070312 237.75 737.390625 C 238.59375 741.292969 242.105469 744.035156 246.089844 744.035156 L 293.582031 744.035156 C 296.976562 744.035156 298.515625 739.792969 295.914062 737.609375 C 287.46875 730.527344 271.9375 719.710938 252.835938 716.535156 L 247.507812 724 L 237.097656 721.792969 " fill-opacity="1" fill-rule="nonzero"/><path fill="#ffffff" d="M 291.324219 738.613281 L 242.105469 738.613281 C 241.488281 738.613281 240.988281 738.113281 240.988281 737.5 C 240.988281 736.878906 241.488281 736.382812 242.105469 736.382812 L 291.324219 736.382812 C 291.941406 736.382812 292.4375 736.878906 292.4375 737.5 C 292.4375 738.113281 291.941406 738.613281 291.324219 738.613281 " fill-opacity="1" fill-rule="nonzero"/><path fill="#ffffff" d="M 263.859375 729.859375 C 263.71875 729.859375 263.574219 729.832031 263.4375 729.773438 C 262.867188 729.542969 262.597656 728.886719 262.832031 728.316406 L 265.4375 721.988281 C 265.671875 721.421875 266.324219 721.148438 266.890625 721.382812 C 267.460938 721.621094 267.730469 722.269531 267.496094 722.839844 L 264.890625 729.167969 C 264.714844 729.597656 264.296875 729.859375 263.859375 729.859375 " fill-opacity="1" fill-rule="nonzero"/><path fill="#ffffff" d="M 272.425781 731.523438 C 272.308594 731.523438 272.191406 731.503906 272.078125 731.464844 C 271.492188 731.273438 271.175781 730.640625 271.367188 730.054688 L 273.253906 724.347656 C 273.449219 723.765625 274.078125 723.445312 274.660156 723.636719 C 275.246094 723.832031 275.5625 724.464844 275.371094 725.046875 L 273.484375 730.757812 C 273.332031 731.226562 272.894531 731.523438 272.425781 731.523438 " fill-opacity="1" fill-rule="nonzero"/><path fill="#000000" d="M 121.429688 569.140625 C 121.429688 569.140625 209.867188 558.832031 236.167969 581.625 C 262.464844 604.421875 194.652344 702.441406 194.652344 702.441406 L 173.207031 686.515625 L 193.550781 617.234375 L 111.796875 593.992188 L 121.429688 569.140625 " fill-opacity="1" fill-rule="nonzero"/><path fill="#000000" d="M 72.757812 614.257812 C 85.605469 618.335938 108.589844 623.617188 140.71875 623.175781 C 149.84375 623.050781 158.273438 628.101562 162.417969 636.242188 C 171.933594 654.929688 192.53125 688.578125 226.082031 710.382812 L 242.105469 701.738281 L 201.207031 609.554688 C 197.472656 601.140625 190.492188 594.597656 181.855469 591.429688 L 100.804688 561.671875 C 100.804688 561.671875 75.671875 554.636719 63.347656 577.101562 C 61.148438 581.113281 59.652344 584.730469 58.679688 587.964844 C 55.34375 599.066406 61.722656 610.746094 72.757812 614.257812 " fill-opacity="1" fill-rule="nonzero"/><path fill="#ffffff" d="M 219.6875 652.332031 C 219.261719 652.332031 218.855469 652.082031 218.671875 651.664062 L 200.1875 610.011719 C 196.597656 601.917969 189.777344 595.527344 181.472656 592.476562 L 142.65625 578.226562 C 142.078125 578.015625 141.78125 577.371094 141.996094 576.792969 C 142.207031 576.214844 142.847656 575.917969 143.425781 576.128906 L 182.238281 590.382812 C 191.109375 593.636719 198.390625 600.460938 202.226562 609.105469 L 220.707031 650.757812 C 220.957031 651.324219 220.703125 651.984375 220.140625 652.234375 C 219.992188 652.296875 219.839844 652.332031 219.6875 652.332031 " fill-opacity="1" fill-rule="nonzero"/><path fill="#ffffff" d="M 198.113281 688.140625 C 197.820312 688.140625 197.527344 688.023438 197.308594 687.796875 C 193.578125 683.914062 189.910156 679.746094 186.410156 675.40625 C 186.023438 674.929688 186.097656 674.226562 186.574219 673.839844 C 187.054688 673.453125 187.753906 673.527344 188.140625 674.007812 C 191.605469 678.292969 195.230469 682.414062 198.914062 686.25 C 199.339844 686.691406 199.328125 687.398438 198.882812 687.828125 C 198.667969 688.035156 198.386719 688.140625 198.113281 688.140625 " fill-opacity="1" fill-rule="nonzero"/><path fill="#ffffff" d="M 187.277344 675.820312 C 186.949219 675.820312 186.628906 675.679688 186.410156 675.40625 C 184.691406 673.28125 182.972656 671.070312 181.308594 668.828125 C 180.941406 668.339844 181.042969 667.640625 181.539062 667.269531 C 182.03125 666.902344 182.730469 667.003906 183.097656 667.496094 C 184.746094 669.714844 186.441406 671.902344 188.140625 674.007812 C 188.527344 674.488281 188.457031 675.191406 187.976562 675.574219 C 187.769531 675.742188 187.523438 675.820312 187.277344 675.820312 " fill-opacity="1" fill-rule="nonzero"/><path fill="#000000" d="M 107.125 448.148438 C 107.125 448.148438 117.660156 435.347656 128.496094 441.730469 C 134.8125 445.457031 140.257812 451.769531 148.871094 455.703125 C 152.445312 457.335938 154.53125 457.707031 154.53125 457.707031 C 154.53125 457.707031 148.59375 461.292969 131.582031 461.882812 C 114.570312 462.476562 107.125 448.148438 107.125 448.148438 " fill-opacity="1" fill-rule="nonzero"/><path fill="#000000" d="M 137.199219 436.992188 C 128.539062 435.597656 123.269531 426.996094 121.6875 422.269531 C 120.601562 419.027344 121.152344 417.300781 121.496094 416.535156 C 122.660156 413.925781 125.625 412.957031 126.816406 412.523438 C 137.808594 408.5625 138.203125 400.230469 146.78125 399.304688 C 153.746094 398.554688 153.886719 403.996094 165.417969 405 C 167.761719 405.203125 171.335938 405.292969 174.957031 407.628906 C 176.683594 408.746094 179.117188 410.320312 179.457031 412.488281 C 179.804688 414.675781 178.085938 417.964844 155.441406 430.058594 C 142.496094 436.96875 140.117188 437.464844 137.199219 436.992188 " fill-opacity="1" fill-rule="nonzero"/><path fill="#ffffff" d="M 160.007812 421.875 C 160.007812 421.875 147.359375 417.226562 142.953125 417.484375 C 138.546875 417.746094 138.726562 428.96875 138.726562 428.96875 C 138.726562 428.96875 134.199219 423.816406 131.515625 427.136719 C 128.835938 430.457031 135.867188 434.167969 135.867188 434.167969 L 113.632812 454.570312 L 134.234375 459.925781 L 144.703125 448.507812 C 144.703125 448.507812 148.203125 452.558594 151.402344 451.722656 C 154.597656 450.890625 159.253906 442.484375 159.253906 442.484375 C 160.992188 442.210938 162.109375 440.492188 161.652344 438.792969 L 160.839844 435.765625 C 160.34375 433.921875 160.320312 431.984375 160.769531 430.125 C 161.367188 427.652344 161.207031 425.050781 160.308594 422.667969 L 160.007812 421.875 " fill-opacity="1" fill-rule="nonzero"/><path fill="#000000" d="M 115.898438 454.003906 L 133.867188 458.679688 L 143.882812 447.75 C 144.09375 447.519531 144.398438 447.402344 144.71875 447.390625 C 145.035156 447.394531 145.335938 447.535156 145.546875 447.777344 C 146.394531 448.753906 149.058594 451.179688 151.121094 450.644531 C 153.007812 450.152344 156.445312 445.257812 158.28125 441.941406 C 158.449219 441.640625 158.746094 441.433594 159.085938 441.378906 C 159.605469 441.300781 160.054688 441.011719 160.34375 440.566406 C 160.632812 440.121094 160.714844 439.59375 160.578125 439.082031 L 159.761719 436.054688 C 159.21875 434.039062 159.191406 431.894531 159.683594 429.863281 C 160.230469 427.597656 160.085938 425.242188 159.265625 423.058594 L 159.148438 422.746094 C 155.34375 421.378906 146.289062 418.40625 143.019531 418.597656 C 140.742188 418.734375 139.777344 424.855469 139.84375 428.953125 C 139.847656 429.417969 139.566406 429.84375 139.128906 430.011719 C 138.691406 430.175781 138.199219 430.058594 137.890625 429.707031 C 137.296875 429.035156 135.265625 427.136719 133.714844 427.136719 C 133.699219 427.136719 133.683594 427.136719 133.671875 427.136719 C 133.167969 427.148438 132.761719 427.371094 132.382812 427.835938 C 132.066406 428.230469 131.964844 428.597656 132.054688 429.027344 C 132.363281 430.546875 134.875 432.382812 136.386719 433.183594 C 136.707031 433.355469 136.925781 433.667969 136.972656 434.027344 C 137.019531 434.386719 136.886719 434.746094 136.621094 434.992188 Z M 134.234375 461.039062 C 134.140625 461.039062 134.046875 461.03125 133.953125 461.007812 L 113.351562 455.648438 C 112.957031 455.542969 112.648438 455.234375 112.550781 454.835938 C 112.453125 454.441406 112.578125 454.023438 112.878906 453.746094 L 134.015625 434.355469 C 132.523438 433.367188 130.300781 431.578125 129.867188 429.480469 C 129.648438 428.398438 129.917969 427.34375 130.648438 426.4375 C 131.4375 425.460938 132.46875 424.929688 133.628906 424.90625 C 135.101562 424.847656 136.582031 425.679688 137.683594 426.507812 C 137.917969 422.855469 138.90625 416.605469 142.886719 416.371094 C 147.476562 416.097656 159.867188 420.632812 160.390625 420.824219 C 160.695312 420.9375 160.9375 421.175781 161.050781 421.476562 L 161.347656 422.273438 C 162.332031 424.875 162.503906 427.683594 161.851562 430.386719 C 161.445312 432.058594 161.46875 433.820312 161.914062 435.476562 L 162.730469 438.503906 C 163.03125 439.621094 162.839844 440.816406 162.210938 441.785156 C 161.6875 442.585938 160.894531 443.179688 159.988281 443.457031 C 158.773438 445.585938 154.902344 451.964844 151.683594 452.800781 C 148.894531 453.527344 146.105469 451.402344 144.730469 450.125 L 135.054688 460.679688 C 134.84375 460.910156 134.542969 461.039062 134.234375 461.039062 " fill-opacity="1" fill-rule="nonzero"/><path fill="#000000" d="M 144.703125 449.621094 C 144.390625 449.621094 144.078125 449.488281 143.855469 449.234375 C 140.953125 445.847656 140.308594 442.574219 140.28125 442.4375 C 140.167969 441.832031 140.566406 441.25 141.171875 441.136719 C 141.777344 441.011719 142.359375 441.417969 142.472656 442.019531 C 142.480469 442.046875 143.054688 444.871094 145.546875 447.777344 C 145.949219 448.25 145.894531 448.953125 145.429688 449.351562 C 145.21875 449.535156 144.960938 449.621094 144.703125 449.621094 " fill-opacity="1" fill-rule="nonzero"/><path fill="#ffffff" d="M 236.898438 429.558594 C 237.339844 428.675781 239.550781 426.042969 240.554688 425.289062 L 251.179688 415.394531 C 251.179688 415.394531 252.5625 420.164062 250.886719 422.976562 C 254.148438 423.082031 256.726562 423.636719 256.726562 423.636719 C 256.726562 423.636719 261.578125 419.355469 262.789062 418.621094 C 263.996094 417.878906 265.574219 416.707031 267.199219 416.734375 C 268.832031 416.753906 270.441406 418 270.441406 418 L 261.113281 429.84375 L 244.144531 434.519531 L 240.621094 463.773438 L 232.882812 453.398438 L 236.898438 429.558594 " fill-opacity="1" fill-rule="nonzero"/><path fill="#000000" d="M 234.0625 453.113281 L 239.847656 460.875 L 243.039062 434.382812 C 243.09375 433.933594 243.410156 433.5625 243.847656 433.441406 L 260.464844 428.863281 L 268.789062 418.300781 C 268.304688 418.0625 267.722656 417.855469 267.183594 417.847656 C 267.175781 417.847656 267.164062 417.847656 267.152344 417.847656 C 266.09375 417.847656 264.9375 418.582031 263.910156 419.230469 C 263.722656 419.347656 263.542969 419.460938 263.371094 419.570312 C 262.542969 420.074219 259.382812 422.78125 257.464844 424.476562 C 257.199219 424.707031 256.835938 424.800781 256.492188 424.726562 C 256.464844 424.722656 253.960938 424.191406 250.851562 424.085938 C 250.453125 424.074219 250.097656 423.851562 249.90625 423.507812 C 249.71875 423.160156 249.726562 422.738281 249.929688 422.402344 C 250.699219 421.109375 250.679688 419.121094 250.476562 417.574219 L 241.316406 426.105469 C 241.285156 426.132812 241.253906 426.15625 241.226562 426.179688 C 240.398438 426.800781 238.480469 429.058594 237.96875 429.929688 Z M 240.621094 464.890625 C 240.273438 464.890625 239.941406 464.730469 239.726562 464.445312 L 231.988281 454.066406 C 231.808594 453.820312 231.734375 453.515625 231.785156 453.214844 L 235.800781 429.371094 C 235.816406 429.261719 235.855469 429.15625 235.902344 429.058594 C 236.40625 428.050781 238.65625 425.347656 239.835938 424.433594 L 250.421875 414.578125 C 250.703125 414.316406 251.101562 414.21875 251.476562 414.324219 C 251.847656 414.425781 252.140625 414.714844 252.25 415.085938 C 252.300781 415.269531 253.332031 418.898438 252.507812 421.945312 C 254.25 422.078125 255.664062 422.304688 256.402344 422.441406 C 257.65625 421.335938 261.125 418.328125 262.207031 417.667969 C 262.371094 417.566406 262.542969 417.460938 262.71875 417.347656 C 263.953125 416.5625 265.460938 415.617188 267.214844 415.617188 C 269.160156 415.640625 270.929688 416.96875 271.125 417.117188 C 271.359375 417.300781 271.511719 417.570312 271.550781 417.863281 C 271.585938 418.15625 271.503906 418.457031 271.316406 418.691406 L 261.988281 430.53125 C 261.839844 430.722656 261.636719 430.855469 261.410156 430.917969 L 245.160156 435.394531 L 241.726562 463.910156 C 241.671875 464.363281 241.347656 464.738281 240.910156 464.855469 C 240.8125 464.878906 240.714844 464.890625 240.621094 464.890625 " fill-opacity="1" fill-rule="nonzero"/><path fill="#5479f7" d="M 150.273438 460.820312 C 150.273438 460.820312 167.542969 477.785156 200.320312 473.953125 C 233.09375 470.125 234.0625 435.867188 234.0625 435.867188 L 244.820312 435.867188 C 244.820312 435.867188 260.71875 495.738281 204 514.582031 C 147.277344 533.421875 128.8125 500.378906 128.8125 500.378906 L 150.273438 460.820312 " fill-opacity="1" fill-rule="nonzero"/><path fill="#5479f7" d="M 104.625 599.78125 C 104.625 599.78125 69.753906 613.726562 50.074219 600.277344 C 25.242188 583.304688 38.199219 534.941406 47.019531 514.582031 C 54.820312 496.589844 66.78125 483.929688 84.304688 465.378906 C 89.304688 460.085938 92.335938 457.324219 96.949219 455.109375 C 115.222656 446.347656 137.390625 456.277344 148.285156 461.15625 C 156.5625 464.867188 162.929688 468.984375 167.199219 472.058594 C 167.199219 472.058594 132.203125 515.277344 132.914062 541.515625 C 133.621094 567.75 144.390625 566.660156 144.390625 566.660156 C 144.390625 566.660156 129.527344 590.558594 104.625 599.78125 " fill-opacity="1" fill-rule="nonzero"/><path fill="#5479f7" d="M 133.621094 477.230469 C 134.617188 485.035156 137 494.957031 142.652344 505.140625 C 160.691406 537.640625 196.871094 545.527344 204.011719 546.9375 L 196.855469 554.914062 C 196.855469 554.914062 120 567.539062 97.714844 497.238281 C 97.714844 497.238281 89.25 470.988281 108.070312 464.503906 C 111.988281 463.152344 117.140625 462.367188 122.070312 464.289062 C 130.609375 467.617188 133.285156 476.097656 133.621094 477.230469 " fill-opacity="1" fill-rule="nonzero"/><path fill="#ffffff" d="M 196.078125 553.359375 C 196.660156 553.011719 202.027344 544.6875 207.917969 542.953125 C 213.808594 541.21875 226.625 554.164062 226.625 554.164062 L 196.078125 553.359375 " fill-opacity="1" fill-rule="nonzero"/><path fill="#000000" d="M 195.507812 552.398438 Z M 198.394531 552.300781 L 223.78125 552.976562 C 218.808594 548.394531 211.558594 543.035156 208.230469 544.019531 C 204.261719 545.191406 200.394531 549.785156 198.394531 552.300781 Z M 226.625 555.28125 C 226.613281 555.28125 226.605469 555.28125 226.59375 555.28125 L 196.050781 554.472656 C 195.550781 554.457031 195.125 554.121094 195 553.636719 C 194.886719 553.203125 195.046875 552.742188 195.402344 552.476562 C 195.523438 552.34375 195.851562 551.921875 196.144531 551.550781 C 198.074219 549.101562 202.59375 543.355469 207.601562 541.882812 C 213.949219 540.019531 226.054688 552.007812 227.417969 553.382812 C 227.738281 553.707031 227.828125 554.191406 227.648438 554.609375 C 227.46875 555.019531 227.070312 555.28125 226.625 555.28125 " fill-opacity="1" fill-rule="nonzero"/><path fill="#5479f7" d="M 83.078125 466.675781 C 83.078125 466.675781 72.050781 446.851562 111.796875 444.453125 C 118.367188 444.054688 120.488281 444.945312 129.742188 450.242188 C 149.609375 461.613281 154.53125 457.707031 154.53125 457.707031 L 150.273438 471.445312 L 83.078125 466.675781 " fill-opacity="1" fill-rule="nonzero"/><path fill="#000000" d="M 87.890625 464.398438 C 87.710938 464.398438 87.53125 464.355469 87.359375 464.265625 C 86.820312 463.96875 86.621094 463.292969 86.914062 462.753906 C 87.023438 462.554688 97.941406 443.058594 121.171875 452.65625 C 121.738281 452.890625 122.007812 453.542969 121.773438 454.109375 C 121.539062 454.679688 120.890625 454.953125 120.320312 454.71875 C 98.917969 445.878906 89.273438 463.082031 88.871094 463.816406 C 88.671875 464.1875 88.289062 464.398438 87.890625 464.398438 " fill-opacity="1" fill-rule="nonzero"/><path fill="#ffffff" d="M 132.910156 542.628906 C 132.683594 542.628906 132.453125 542.5625 132.253906 542.414062 C 130.898438 541.421875 98.949219 517.796875 94.171875 491.496094 C 94.0625 490.886719 94.464844 490.308594 95.070312 490.199219 C 95.671875 490.085938 96.257812 490.492188 96.367188 491.097656 C 100.984375 516.527344 133.246094 540.375 133.570312 540.613281 C 134.066406 540.976562 134.175781 541.675781 133.8125 542.171875 C 133.59375 542.472656 133.253906 542.628906 132.910156 542.628906 " fill-opacity="1" fill-rule="nonzero"/><path fill="#000000" d="M 146.535156 514.292969 C 146.273438 514.292969 146.007812 514.199219 145.792969 514.007812 C 145.335938 513.597656 145.292969 512.894531 145.703125 512.433594 C 157.09375 499.679688 155.046875 481.65625 155.027344 481.476562 C 154.953125 480.863281 155.386719 480.308594 156 480.230469 C 156.613281 480.15625 157.164062 480.59375 157.238281 481.203125 C 157.335938 481.980469 159.441406 500.398438 147.367188 513.917969 C 147.148438 514.167969 146.84375 514.292969 146.535156 514.292969 " fill-opacity="1" fill-rule="nonzero"/><path fill="#ffffff" d="M 144.722656 510.667969 C 144.3125 510.667969 143.921875 510.445312 143.726562 510.054688 L 132.808594 488.253906 C 132.53125 487.703125 132.757812 487.03125 133.304688 486.757812 C 133.855469 486.480469 134.527344 486.703125 134.800781 487.253906 L 145.71875 509.050781 C 145.992188 509.601562 145.769531 510.273438 145.21875 510.546875 C 145.0625 510.628906 144.890625 510.667969 144.722656 510.667969 " fill-opacity="1" fill-rule="nonzero"/><path fill="#000000" d="M 302.359375 552.011719 L 237.285156 552.011719 L 285.523438 477.726562 C 287.035156 475.40625 289.65625 473.996094 292.480469 473.996094 L 345.292969 473.996094 C 348.648438 473.996094 350.683594 477.589844 348.894531 480.351562 L 302.359375 552.011719 " fill-opacity="1" fill-rule="nonzero"/><path fill="#ffffff" d="M 316.238281 500.046875 C 314.125 503.304688 309.578125 505.945312 306.082031 505.945312 C 302.585938 505.945312 301.46875 503.304688 303.582031 500.046875 C 305.695312 496.792969 310.242188 494.148438 313.738281 494.148438 C 317.234375 494.148438 318.351562 496.792969 316.238281 500.046875 " fill-opacity="1" fill-rule="nonzero"/><path fill="#000000" d="M 297.351562 558.214844 L 186.046875 558.214844 C 183.148438 558.214844 180.804688 555.867188 180.804688 552.972656 L 180.804688 551.480469 L 302.59375 551.480469 L 302.59375 552.972656 C 302.59375 555.867188 300.246094 558.214844 297.351562 558.214844 " fill-opacity="1" fill-rule="nonzero"/><path fill="#ffffff" d="M 298.972656 553.199219 L 243.089844 553.199219 C 242.472656 553.199219 241.972656 552.695312 241.972656 552.082031 C 241.972656 551.464844 242.472656 550.964844 243.089844 550.964844 L 298.972656 550.964844 C 299.589844 550.964844 300.085938 551.464844 300.085938 552.082031 C 300.085938 552.695312 299.589844 553.199219 298.972656 553.199219 " fill-opacity="1" fill-rule="nonzero"/><path fill="#5479f7" d="M 284.605469 379.96875 C 273.855469 384.542969 261.4375 379.527344 256.871094 368.765625 C 252.300781 358.003906 257.308594 345.566406 268.058594 340.992188 C 278.808594 336.417969 291.226562 341.4375 295.796875 352.199219 C 300.367188 362.964844 295.355469 375.394531 284.605469 379.96875 Z M 317.054688 347.621094 L 313.839844 340.050781 L 305.011719 341.660156 C 303.953125 340.039062 302.777344 338.527344 301.496094 337.136719 L 305.175781 328.957031 L 298.613281 324.007812 L 291.769531 329.824219 C 290.066406 328.964844 288.289062 328.246094 286.46875 327.683594 L 285.570312 318.742188 L 277.414062 317.742188 L 274.394531 326.191406 C 272.507812 326.296875 270.617188 326.570312 268.730469 327 L 263.492188 319.707031 L 255.929688 322.925781 L 257.535156 331.765625 C 255.917969 332.824219 254.410156 334.003906 253.019531 335.289062 L 244.851562 331.601562 L 239.910156 338.171875 L 245.714844 345.023438 C 244.859375 346.734375 244.140625 348.507812 243.578125 350.332031 L 234.648438 351.230469 L 233.648438 359.398438 L 242.089844 362.421875 C 242.191406 364.3125 242.464844 366.207031 242.894531 368.09375 L 235.613281 373.34375 L 238.824219 380.910156 L 247.652344 379.304688 C 248.710938 380.925781 249.886719 382.433594 251.171875 383.824219 L 247.488281 392.003906 L 254.050781 396.949219 L 260.894531 391.140625 C 262.601562 391.996094 264.375 392.714844 266.199219 393.28125 L 267.097656 402.222656 L 275.25 403.21875 L 278.269531 394.773438 C 280.15625 394.664062 282.050781 394.390625 283.933594 393.960938 L 289.175781 401.253906 L 296.734375 398.039062 L 295.128906 389.199219 C 296.75 388.136719 298.257812 386.960938 299.644531 385.671875 L 307.816406 389.359375 L 312.757812 382.792969 L 306.949219 375.9375 C 307.808594 374.230469 308.523438 372.453125 309.089844 370.628906 L 318.019531 369.730469 L 319.019531 361.5625 L 310.578125 358.542969 C 310.472656 356.652344 310.199219 354.753906 309.769531 352.867188 L 317.054688 347.621094 " fill-opacity="1" fill-rule="nonzero"/><path fill="#000000" d="M 280.859375 378.457031 L 280.867188 378.457031 Z M 272.582031 338.898438 C 269.921875 338.898438 267.265625 339.433594 264.746094 340.503906 C 254.582031 344.832031 249.824219 356.632812 254.148438 366.8125 C 256.242188 371.746094 260.125 375.566406 265.089844 377.570312 C 270.050781 379.574219 275.496094 379.523438 280.421875 377.429688 C 290.589844 373.105469 295.34375 361.300781 291.023438 351.121094 C 288.929688 346.1875 285.042969 342.367188 280.078125 340.363281 C 277.65625 339.382812 275.117188 338.898438 272.582031 338.898438 Z M 272.589844 381.269531 C 269.769531 381.269531 266.949219 380.730469 264.253906 379.640625 C 258.738281 377.410156 254.421875 373.167969 252.097656 367.683594 C 247.292969 356.375 252.578125 343.257812 263.875 338.453125 C 269.347656 336.125 275.402344 336.0625 280.914062 338.296875 C 286.429688 340.519531 290.746094 344.769531 293.074219 350.25 C 297.875 361.558594 292.59375 374.675781 281.292969 379.480469 C 278.492188 380.675781 275.542969 381.269531 272.589844 381.269531 Z M 264.367188 399.710938 L 270.753906 400.492188 L 273.472656 392.882812 C 273.621094 392.460938 274.011719 392.167969 274.457031 392.140625 C 276.269531 392.039062 278.113281 391.777344 279.9375 391.363281 C 280.375 391.261719 280.828125 391.429688 281.089844 391.796875 L 285.8125 398.363281 L 291.730469 395.84375 L 290.285156 387.882812 C 290.207031 387.441406 290.398438 386.996094 290.773438 386.75 C 292.335938 385.722656 293.804688 384.582031 295.140625 383.34375 C 295.46875 383.035156 295.945312 382.957031 296.355469 383.144531 L 303.714844 386.464844 L 307.582031 381.316406 L 302.351562 375.144531 C 302.0625 374.800781 302.003906 374.320312 302.207031 373.921875 C 303.035156 372.277344 303.730469 370.546875 304.277344 368.785156 C 304.410156 368.359375 304.785156 368.046875 305.226562 368.003906 L 313.273438 367.195312 L 314.054688 360.800781 L 306.457031 358.078125 C 306.03125 357.925781 305.742188 357.535156 305.714844 357.089844 C 305.617188 355.277344 305.351562 353.429688 304.9375 351.605469 C 304.835938 351.167969 305.007812 350.710938 305.371094 350.449219 L 311.929688 345.722656 L 309.414062 339.792969 L 301.464844 341.242188 C 301.023438 341.324219 300.578125 341.128906 300.332031 340.753906 C 299.308594 339.1875 298.160156 337.714844 296.925781 336.382812 C 296.621094 336.054688 296.542969 335.574219 296.730469 335.167969 L 300.046875 327.796875 L 294.902344 323.921875 L 288.746094 329.160156 C 288.402344 329.453125 287.917969 329.507812 287.519531 329.308594 C 285.875 328.476562 284.148438 327.78125 282.390625 327.234375 C 281.960938 327.101562 281.65625 326.722656 281.609375 326.28125 L 280.800781 318.222656 L 274.414062 317.445312 L 271.695312 325.050781 C 271.546875 325.476562 271.160156 325.765625 270.710938 325.792969 C 268.898438 325.894531 267.050781 326.160156 265.230469 326.578125 C 264.792969 326.675781 264.335938 326.5 264.078125 326.140625 L 259.355469 319.570312 L 253.4375 322.089844 L 254.882812 330.050781 C 254.964844 330.496094 254.773438 330.9375 254.394531 331.183594 C 252.832031 332.210938 251.363281 333.355469 250.03125 334.589844 C 249.699219 334.898438 249.222656 334.976562 248.8125 334.789062 L 241.457031 331.46875 L 237.589844 336.617188 L 242.816406 342.789062 C 243.105469 343.132812 243.164062 343.613281 242.960938 344.011719 C 242.136719 345.660156 241.4375 347.390625 240.890625 349.148438 C 240.761719 349.578125 240.382812 349.886719 239.941406 349.929688 L 231.898438 350.742188 L 231.117188 357.132812 L 238.714844 359.855469 C 239.136719 360.003906 239.425781 360.394531 239.453125 360.84375 C 239.554688 362.65625 239.816406 364.503906 240.234375 366.332031 C 240.332031 366.769531 240.164062 367.222656 239.800781 367.488281 L 233.238281 372.214844 L 235.757812 378.136719 L 243.707031 376.695312 C 244.144531 376.609375 244.59375 376.804688 244.839844 377.179688 C 245.863281 378.75 247.007812 380.21875 248.242188 381.550781 C 248.546875 381.878906 248.625 382.359375 248.441406 382.765625 L 245.121094 390.136719 L 250.265625 394.011719 L 256.429688 388.773438 C 256.769531 388.480469 257.25 388.425781 257.652344 388.625 C 259.292969 389.457031 261.019531 390.152344 262.78125 390.703125 C 263.207031 390.832031 263.515625 391.210938 263.5625 391.652344 Z M 271.503906 402.820312 C 271.460938 402.820312 271.414062 402.816406 271.367188 402.8125 L 263.210938 401.816406 C 262.695312 401.75 262.289062 401.335938 262.238281 400.820312 L 261.414062 392.605469 C 260.015625 392.136719 258.640625 391.582031 257.3125 390.949219 L 251.027344 396.289062 C 250.628906 396.625 250.050781 396.640625 249.632812 396.328125 L 243.070312 391.382812 C 242.65625 391.070312 242.511719 390.507812 242.726562 390.03125 L 246.105469 382.519531 C 245.140625 381.421875 244.230469 380.25 243.386719 379.015625 L 235.277344 380.496094 C 234.765625 380.589844 234.257812 380.316406 234.054688 379.835938 L 230.839844 372.261719 C 230.636719 371.78125 230.789062 371.226562 231.214844 370.921875 L 237.90625 366.101562 C 237.601562 364.636719 237.390625 363.167969 237.277344 361.710938 L 229.523438 358.933594 C 229.035156 358.757812 228.730469 358.261719 228.796875 357.75 L 229.792969 349.582031 C 229.855469 349.066406 230.269531 348.660156 230.785156 348.609375 L 238.988281 347.78125 C 239.457031 346.382812 240.011719 345.007812 240.644531 343.675781 L 235.308594 337.378906 C 234.972656 336.984375 234.957031 336.40625 235.269531 335.988281 L 240.210938 329.414062 C 240.523438 329 241.085938 328.855469 241.5625 329.070312 L 249.066406 332.453125 C 250.15625 331.488281 251.332031 330.574219 252.5625 329.730469 L 251.085938 321.613281 C 250.992188 321.101562 251.265625 320.589844 251.746094 320.382812 L 259.304688 317.167969 C 259.78125 316.96875 260.339844 317.121094 260.648438 317.542969 L 265.460938 324.242188 C 266.917969 323.9375 268.386719 323.726562 269.847656 323.613281 L 272.617188 315.851562 C 272.792969 315.363281 273.28125 315.0625 273.800781 315.121094 L 281.957031 316.117188 C 282.476562 316.183594 282.878906 316.597656 282.933594 317.113281 L 283.757812 325.332031 C 285.15625 325.796875 286.53125 326.351562 287.855469 326.988281 L 294.140625 321.644531 C 294.542969 321.304688 295.121094 321.292969 295.535156 321.605469 L 302.101562 326.554688 C 302.511719 326.867188 302.65625 327.425781 302.441406 327.902344 L 299.0625 335.417969 C 300.027344 336.511719 300.941406 337.683594 301.785156 338.917969 L 309.890625 337.441406 C 310.402344 337.34375 310.910156 337.617188 311.117188 338.097656 L 314.328125 345.671875 C 314.535156 346.152344 314.378906 346.707031 313.957031 347.011719 L 307.265625 351.832031 C 307.566406 353.296875 307.777344 354.765625 307.894531 356.222656 L 315.644531 359 C 316.136719 359.175781 316.4375 359.667969 316.375 360.1875 L 315.378906 368.351562 C 315.316406 368.871094 314.902344 369.273438 314.382812 369.328125 L 306.179688 370.148438 C 305.710938 371.554688 305.160156 372.929688 304.523438 374.257812 L 309.859375 380.554688 C 310.195312 380.949219 310.214844 381.53125 309.902344 381.945312 L 304.960938 388.519531 C 304.644531 388.9375 304.085938 389.082031 303.609375 388.863281 L 296.105469 385.476562 C 295.011719 386.449219 293.839844 387.363281 292.609375 388.203125 L 294.082031 396.324219 C 294.179688 396.832031 293.90625 397.34375 293.425781 397.546875 L 285.863281 400.765625 C 285.386719 400.972656 284.828125 400.8125 284.523438 400.390625 L 279.710938 393.691406 C 278.25 393.996094 276.777344 394.207031 275.324219 394.320312 L 272.550781 402.082031 C 272.394531 402.527344 271.96875 402.820312 271.503906 402.820312 " fill-opacity="1" fill-rule="nonzero"/><path fill="#5479f7" d="M 467.390625 203.429688 C 462.421875 205.550781 456.671875 203.226562 454.558594 198.246094 C 452.445312 193.265625 454.765625 187.511719 459.738281 185.394531 C 464.714844 183.28125 470.453125 185.601562 472.570312 190.578125 C 474.683594 195.5625 472.367188 201.3125 467.390625 203.429688 Z M 482.40625 188.464844 L 480.917969 184.960938 L 476.835938 185.707031 C 476.34375 184.953125 475.800781 184.257812 475.207031 183.613281 L 476.910156 179.824219 L 473.871094 177.539062 L 470.707031 180.226562 C 469.917969 179.828125 469.097656 179.5 468.253906 179.238281 L 467.835938 175.097656 L 464.066406 174.636719 L 462.671875 178.550781 C 461.796875 178.597656 460.917969 178.722656 460.046875 178.921875 L 457.625 175.546875 L 454.125 177.039062 L 454.867188 181.125 C 454.121094 181.617188 453.417969 182.160156 452.777344 182.757812 L 448.996094 181.050781 L 446.710938 184.089844 L 449.398438 187.261719 C 449 188.054688 448.671875 188.871094 448.410156 189.71875 L 444.277344 190.132812 L 443.8125 193.914062 L 447.71875 195.3125 C 447.769531 196.183594 447.894531 197.0625 448.09375 197.9375 L 444.71875 200.363281 L 446.210938 203.871094 L 450.292969 203.121094 C 450.785156 203.875 451.328125 204.570312 451.925781 205.214844 L 450.21875 209 L 453.253906 211.289062 L 456.417969 208.597656 C 457.210938 208.996094 458.03125 209.324219 458.875 209.59375 L 459.289062 213.726562 L 463.0625 214.1875 L 464.460938 210.28125 C 465.332031 210.230469 466.210938 210.105469 467.082031 209.90625 L 469.507812 213.28125 L 473.007812 211.789062 L 472.265625 207.699219 C 473.011719 207.210938 473.707031 206.664062 474.351562 206.070312 L 478.132812 207.777344 L 480.417969 204.734375 L 477.730469 201.566406 C 478.125 200.777344 478.460938 199.953125 478.71875 199.109375 L 482.855469 198.695312 L 483.3125 194.914062 L 479.410156 193.515625 C 479.363281 192.640625 479.230469 191.761719 479.035156 190.890625 L 482.40625 188.464844 " fill-opacity="1" fill-rule="nonzero"/><path fill="#000000" d="M 461.828125 185.027344 C 460.675781 185.027344 459.527344 185.261719 458.433594 185.726562 C 454.035156 187.597656 451.972656 192.707031 453.847656 197.109375 C 454.753906 199.246094 456.433594 200.902344 458.582031 201.769531 C 460.730469 202.632812 463.089844 202.613281 465.21875 201.707031 C 469.617188 199.835938 471.679688 194.726562 469.808594 190.320312 C 468.898438 188.1875 467.21875 186.53125 465.074219 185.664062 C 464.023438 185.238281 462.921875 185.027344 461.828125 185.027344 Z M 461.832031 204.632812 C 460.445312 204.632812 459.066406 204.371094 457.746094 203.839844 C 455.050781 202.75 452.933594 200.667969 451.796875 197.984375 C 449.441406 192.449219 452.03125 186.027344 457.566406 183.671875 C 460.242188 182.527344 463.207031 182.503906 465.90625 183.597656 C 468.605469 184.683594 470.722656 186.765625 471.859375 189.445312 C 474.210938 194.984375 471.625 201.40625 466.089844 203.761719 C 464.71875 204.34375 463.273438 204.632812 461.832031 204.632812 Z M 458.574219 212.027344 L 460.574219 212.273438 L 461.675781 209.207031 C 461.828125 208.785156 462.210938 208.492188 462.660156 208.46875 C 463.464844 208.425781 464.285156 208.304688 465.09375 208.121094 C 465.535156 208.023438 465.988281 208.191406 466.253906 208.554688 L 468.152344 211.207031 L 470.011719 210.414062 L 469.429688 207.203125 C 469.347656 206.765625 469.539062 206.316406 469.914062 206.070312 C 470.613281 205.613281 471.265625 205.105469 471.855469 204.554688 C 472.1875 204.246094 472.664062 204.171875 473.078125 204.359375 L 476.042969 205.695312 L 477.257812 204.078125 L 475.144531 201.589844 C 474.859375 201.25 474.800781 200.765625 474.996094 200.363281 C 475.367188 199.636719 475.675781 198.863281 475.917969 198.082031 C 476.050781 197.652344 476.425781 197.34375 476.871094 197.300781 L 480.117188 196.976562 L 480.363281 194.96875 L 477.300781 193.871094 C 476.875 193.71875 476.589844 193.328125 476.558594 192.882812 C 476.515625 192.074219 476.398438 191.253906 476.210938 190.445312 C 476.113281 190.003906 476.285156 189.550781 476.648438 189.289062 L 479.296875 187.382812 L 478.507812 185.519531 L 475.296875 186.101562 C 474.855469 186.183594 474.410156 185.992188 474.164062 185.617188 C 473.710938 184.921875 473.199219 184.265625 472.652344 183.671875 C 472.347656 183.34375 472.269531 182.867188 472.453125 182.457031 L 473.789062 179.484375 L 472.179688 178.265625 L 469.691406 180.382812 C 469.351562 180.671875 468.867188 180.726562 468.472656 180.53125 C 467.734375 180.15625 466.96875 179.847656 466.191406 179.605469 C 465.757812 179.476562 465.453125 179.097656 465.40625 178.652344 L 465.082031 175.402344 L 463.078125 175.15625 L 461.980469 178.226562 C 461.832031 178.648438 461.441406 178.941406 460.996094 178.964844 C 460.1875 179.007812 459.367188 179.128906 458.558594 179.3125 C 458.125 179.410156 457.667969 179.242188 457.40625 178.878906 L 455.5 176.226562 L 453.640625 177.019531 L 454.226562 180.230469 C 454.304688 180.667969 454.113281 181.117188 453.738281 181.363281 C 453.050781 181.816406 452.394531 182.324219 451.796875 182.875 C 451.472656 183.179688 450.992188 183.261719 450.582031 183.074219 L 447.617188 181.734375 L 446.402344 183.355469 L 448.507812 185.84375 C 448.800781 186.183594 448.855469 186.667969 448.65625 187.066406 C 448.289062 187.796875 447.980469 188.566406 447.734375 189.351562 C 447.601562 189.78125 447.226562 190.085938 446.78125 190.132812 L 443.535156 190.457031 L 443.289062 192.464844 L 446.359375 193.5625 C 446.777344 193.714844 447.070312 194.105469 447.09375 194.550781 C 447.136719 195.359375 447.253906 196.179688 447.441406 196.988281 C 447.542969 197.429688 447.371094 197.882812 447.007812 198.144531 L 444.359375 200.050781 L 445.148438 201.914062 L 448.359375 201.324219 C 448.800781 201.246094 449.246094 201.441406 449.488281 201.8125 C 449.945312 202.515625 450.453125 203.167969 451.003906 203.761719 C 451.304688 204.085938 451.386719 204.566406 451.203125 204.976562 L 449.863281 207.949219 L 451.480469 209.164062 L 453.964844 207.050781 C 454.304688 206.761719 454.789062 206.703125 455.1875 206.90625 C 455.917969 207.277344 456.6875 207.585938 457.46875 207.828125 C 457.894531 207.957031 458.203125 208.335938 458.246094 208.78125 Z M 461.328125 214.609375 C 461.28125 214.609375 461.238281 214.605469 461.191406 214.601562 L 457.421875 214.140625 C 456.902344 214.074219 456.492188 213.660156 456.441406 213.144531 L 456.101562 209.71875 C 455.679688 209.574219 455.265625 209.402344 454.855469 209.222656 L 452.242188 211.445312 C 451.839844 211.777344 451.265625 211.796875 450.847656 211.480469 L 447.808594 209.195312 C 447.394531 208.882812 447.25 208.320312 447.46875 207.84375 L 448.871094 204.71875 C 448.589844 204.375 448.308594 204.019531 448.046875 203.652344 L 444.671875 204.265625 C 444.164062 204.359375 443.648438 204.085938 443.445312 203.605469 L 441.960938 200.101562 C 441.757812 199.625 441.914062 199.070312 442.335938 198.757812 L 445.117188 196.757812 C 445.039062 196.3125 444.972656 195.867188 444.929688 195.421875 L 441.703125 194.265625 C 441.210938 194.085938 440.90625 193.597656 440.972656 193.078125 L 441.433594 189.300781 C 441.496094 188.785156 441.910156 188.378906 442.425781 188.328125 L 445.839844 187.984375 C 445.992188 187.558594 446.160156 187.144531 446.347656 186.738281 L 444.125 184.117188 C 443.789062 183.71875 443.773438 183.136719 444.085938 182.722656 L 446.371094 179.683594 C 446.679688 179.265625 447.242188 179.117188 447.714844 179.335938 L 450.84375 180.746094 C 451.183594 180.457031 451.539062 180.183594 451.90625 179.917969 L 451.289062 176.539062 C 451.195312 176.027344 451.472656 175.515625 451.949219 175.3125 L 455.449219 173.824219 C 455.929688 173.621094 456.484375 173.777344 456.785156 174.195312 L 458.792969 176.988281 C 459.238281 176.902344 459.679688 176.839844 460.125 176.796875 L 461.277344 173.566406 C 461.453125 173.074219 461.945312 172.773438 462.464844 172.832031 L 466.238281 173.296875 C 466.753906 173.359375 467.160156 173.773438 467.210938 174.289062 L 467.554688 177.710938 C 467.972656 177.863281 468.390625 178.03125 468.800781 178.210938 L 471.414062 175.988281 C 471.816406 175.648438 472.390625 175.636719 472.804688 175.949219 L 475.84375 178.238281 C 476.257812 178.550781 476.40625 179.113281 476.191406 179.589844 L 474.78125 182.714844 C 475.070312 183.058594 475.34375 183.414062 475.605469 183.777344 L 478.984375 183.164062 C 479.492188 183.070312 480.003906 183.34375 480.210938 183.828125 L 481.695312 187.332031 C 481.894531 187.808594 481.742188 188.363281 481.320312 188.671875 L 478.535156 190.679688 C 478.621094 191.121094 478.679688 191.566406 478.726562 192.011719 L 481.957031 193.167969 C 482.445312 193.339844 482.746094 193.835938 482.683594 194.355469 L 482.222656 198.132812 C 482.160156 198.648438 481.742188 199.050781 481.226562 199.105469 L 477.8125 199.449219 C 477.664062 199.871094 477.496094 200.289062 477.308594 200.699219 L 479.53125 203.316406 C 479.867188 203.714844 479.886719 204.296875 479.574219 204.710938 L 477.285156 207.75 C 476.972656 208.164062 476.410156 208.308594 475.933594 208.097656 L 472.8125 206.6875 C 472.472656 206.976562 472.121094 207.25 471.75 207.515625 L 472.363281 210.894531 C 472.457031 211.40625 472.183594 211.914062 471.703125 212.117188 L 468.207031 213.609375 C 467.722656 213.8125 467.167969 213.65625 466.867188 213.230469 L 464.867188 210.445312 C 464.421875 210.53125 463.972656 210.59375 463.527344 210.636719 L 462.375 213.867188 C 462.214844 214.316406 461.792969 214.609375 461.328125 214.609375 " fill-opacity="1" fill-rule="nonzero"/><path fill="#5479f7" d="M 385.589844 296.03125 C 367.195312 303.863281 345.945312 295.277344 338.128906 276.859375 C 330.308594 258.441406 338.886719 237.164062 357.277344 229.335938 C 375.671875 221.507812 396.925781 230.09375 404.742188 248.511719 C 412.558594 266.929688 403.984375 288.203125 385.589844 296.03125 Z M 441.113281 240.679688 L 435.609375 227.722656 L 420.511719 230.476562 C 418.699219 227.707031 416.6875 225.121094 414.484375 222.738281 L 420.789062 208.742188 L 409.554688 200.273438 L 397.847656 210.226562 C 394.929688 208.753906 391.894531 207.527344 388.777344 206.558594 L 387.242188 191.261719 L 373.285156 189.550781 L 368.121094 204.007812 C 364.890625 204.191406 361.648438 204.65625 358.425781 205.394531 L 349.453125 192.914062 L 336.519531 198.421875 L 339.265625 213.550781 C 336.5 215.359375 333.914062 217.371094 331.539062 219.574219 L 317.5625 213.269531 L 309.105469 224.511719 L 319.039062 236.238281 C 317.574219 239.160156 316.347656 242.195312 315.382812 245.320312 L 300.101562 246.859375 L 298.394531 260.832031 L 312.832031 266.003906 C 313.015625 269.238281 313.476562 272.484375 314.21875 275.710938 L 301.753906 284.691406 L 307.253906 297.648438 L 322.359375 294.890625 C 324.167969 297.664062 326.179688 300.25 328.375 302.628906 L 322.078125 316.628906 L 333.308594 325.09375 L 345.019531 315.144531 C 347.9375 316.617188 350.96875 317.839844 354.09375 318.8125 L 355.628906 334.109375 L 369.582031 335.820312 L 374.75 321.359375 C 377.980469 321.179688 381.21875 320.710938 384.445312 319.976562 L 393.410156 332.453125 L 406.351562 326.949219 L 403.601562 311.824219 C 406.367188 310.011719 408.953125 307.996094 411.320312 305.792969 L 425.304688 312.105469 L 433.761719 300.859375 L 423.828125 289.136719 C 425.296875 286.214844 426.519531 283.175781 427.484375 280.050781 L 442.765625 278.515625 L 444.472656 264.542969 L 430.03125 259.367188 C 429.851562 256.132812 429.382812 252.886719 428.648438 249.660156 L 441.113281 240.679688 " fill-opacity="1" fill-rule="nonzero"/><path fill="#000000" d="M 365.015625 224.953125 C 360.363281 224.953125 355.710938 225.894531 351.300781 227.773438 C 333.5 235.347656 325.175781 256.007812 332.738281 273.832031 C 336.40625 282.464844 343.207031 289.15625 351.898438 292.664062 C 360.585938 296.171875 370.113281 296.085938 378.738281 292.417969 C 396.539062 284.839844 404.867188 264.179688 397.300781 246.355469 C 393.636719 237.722656 386.832031 231.035156 378.140625 227.527344 C 373.902344 225.808594 369.457031 224.953125 365.015625 224.953125 Z M 365.023438 297.464844 C 360.300781 297.464844 355.574219 296.554688 351.058594 294.730469 C 341.820312 291 334.585938 283.886719 330.6875 274.707031 C 322.640625 255.75 331.496094 233.777344 350.425781 225.71875 C 359.597656 221.816406 369.738281 221.722656 378.980469 225.457031 C 388.21875 229.1875 395.453125 236.300781 399.351562 245.484375 C 407.398438 264.4375 398.542969 286.414062 379.609375 294.472656 C 374.917969 296.464844 369.976562 297.464844 365.023438 297.464844 Z M 350.234375 330.519531 L 362.417969 332.011719 L 367.28125 318.394531 C 367.4375 317.976562 367.828125 317.683594 368.269531 317.652344 C 371.417969 317.480469 374.617188 317.023438 377.78125 316.296875 C 378.210938 316.195312 378.667969 316.367188 378.933594 316.730469 L 387.378906 328.488281 L 398.679688 323.679688 L 396.089844 309.429688 C 396.007812 308.992188 396.199219 308.546875 396.578125 308.300781 C 399.296875 306.519531 401.84375 304.53125 404.15625 302.386719 C 404.480469 302.078125 404.960938 302 405.367188 302.1875 L 418.535156 308.128906 L 425.917969 298.308594 L 416.558594 287.265625 C 416.273438 286.925781 416.214844 286.441406 416.417969 286.042969 C 417.855469 283.183594 419.0625 280.183594 420.007812 277.128906 C 420.136719 276.699219 420.515625 276.394531 420.960938 276.351562 L 435.351562 274.902344 L 436.847656 262.699219 L 423.242188 257.824219 C 422.820312 257.675781 422.535156 257.285156 422.507812 256.839844 C 422.332031 253.6875 421.875 250.480469 421.152344 247.316406 C 421.050781 246.878906 421.222656 246.421875 421.582031 246.160156 L 433.328125 237.703125 L 428.527344 226.390625 L 414.296875 228.984375 C 413.851562 229.070312 413.40625 228.871094 413.164062 228.496094 C 411.386719 225.777344 409.398438 223.222656 407.253906 220.910156 C 406.949219 220.578125 406.875 220.101562 407.058594 219.691406 L 412.996094 206.507812 L 403.183594 199.113281 L 392.15625 208.484375 C 391.816406 208.777344 391.328125 208.828125 390.929688 208.632812 C 388.082031 207.191406 385.082031 205.984375 382.03125 205.035156 C 381.605469 204.902344 381.296875 204.527344 381.25 204.078125 L 379.804688 189.667969 L 367.625 188.175781 L 362.757812 201.796875 C 362.605469 202.214844 362.21875 202.503906 361.769531 202.53125 C 358.621094 202.707031 355.417969 203.164062 352.253906 203.890625 C 351.824219 203.988281 351.367188 203.816406 351.105469 203.457031 L 342.660156 191.699219 L 331.359375 196.507812 L 333.953125 210.757812 C 334.03125 211.199219 333.839844 211.644531 333.460938 211.886719 C 330.746094 213.667969 328.195312 215.65625 325.882812 217.800781 C 325.558594 218.109375 325.074219 218.1875 324.667969 218 L 311.5 212.058594 L 304.121094 221.878906 L 313.480469 232.925781 C 313.765625 233.265625 313.824219 233.746094 313.625 234.148438 C 312.183594 237.003906 310.976562 240.003906 310.03125 243.058594 C 309.902344 243.488281 309.523438 243.796875 309.078125 243.835938 L 294.6875 245.289062 L 293.191406 257.488281 L 306.792969 262.359375 C 307.214844 262.511719 307.507812 262.898438 307.53125 263.347656 C 307.710938 266.5 308.167969 269.703125 308.886719 272.875 C 308.988281 273.308594 308.820312 273.765625 308.453125 274.027344 L 296.714844 282.484375 L 301.519531 293.796875 L 315.742188 291.203125 C 316.1875 291.121094 316.632812 291.316406 316.875 291.691406 C 318.65625 294.410156 320.644531 296.964844 322.78125 299.277344 C 323.089844 299.605469 323.164062 300.089844 322.980469 300.496094 L 317.046875 313.683594 L 326.851562 321.074219 L 337.890625 311.703125 C 338.226562 311.414062 338.710938 311.359375 339.105469 311.558594 C 341.957031 312.996094 344.957031 314.207031 348.007812 315.152344 C 348.433594 315.285156 348.742188 315.664062 348.785156 316.109375 Z M 363.171875 334.34375 C 363.121094 334.34375 363.082031 334.339844 363.03125 334.335938 L 349.078125 332.628906 C 348.558594 332.5625 348.15625 332.148438 348.101562 331.628906 L 346.640625 317.058594 C 343.949219 316.1875 341.304688 315.121094 338.769531 313.878906 L 327.613281 323.351562 C 327.21875 323.691406 326.640625 323.707031 326.222656 323.394531 L 314.996094 314.929688 C 314.578125 314.613281 314.433594 314.054688 314.648438 313.578125 L 320.648438 300.25 C 318.773438 298.167969 317.019531 295.917969 315.421875 293.53125 L 301.039062 296.152344 C 300.523438 296.246094 300.015625 295.96875 299.8125 295.492188 L 294.316406 282.535156 C 294.109375 282.058594 294.265625 281.5 294.6875 281.191406 L 306.554688 272.644531 C 305.953125 269.839844 305.546875 267.007812 305.351562 264.21875 L 291.601562 259.289062 C 291.113281 259.113281 290.8125 258.617188 290.875 258.105469 L 292.582031 244.132812 C 292.640625 243.613281 293.054688 243.210938 293.578125 243.15625 L 308.125 241.695312 C 308.996094 239 310.0625 236.351562 311.304688 233.808594 L 301.839844 222.644531 C 301.503906 222.246094 301.488281 221.667969 301.800781 221.25 L 310.257812 210 C 310.570312 209.585938 311.128906 209.445312 311.605469 209.65625 L 324.917969 215.664062 C 326.992188 213.789062 329.246094 212.035156 331.625 210.433594 L 329.007812 196.03125 C 328.910156 195.519531 329.1875 195.007812 329.671875 194.804688 L 342.605469 189.296875 C 343.085938 189.09375 343.644531 189.25 343.945312 189.671875 L 352.484375 201.554688 C 355.285156 200.953125 358.109375 200.542969 360.90625 200.351562 L 365.820312 186.585938 C 365.996094 186.09375 366.488281 185.792969 367.007812 185.855469 L 380.960938 187.5625 C 381.480469 187.625 381.882812 188.039062 381.933594 188.558594 L 383.398438 203.128906 C 386.089844 204 388.734375 205.070312 391.269531 206.308594 L 402.417969 196.835938 C 402.824219 196.496094 403.402344 196.480469 403.816406 196.796875 L 415.042969 205.257812 C 415.460938 205.578125 415.601562 206.132812 415.390625 206.609375 L 409.390625 219.9375 C 411.269531 222.019531 413.019531 224.273438 414.621094 226.65625 L 429.003906 224.035156 C 429.507812 223.941406 430.023438 224.21875 430.222656 224.695312 L 435.722656 237.648438 C 435.929688 238.132812 435.777344 238.6875 435.351562 238.992188 L 423.484375 247.542969 C 424.085938 250.34375 424.488281 253.175781 424.683594 255.972656 L 438.4375 260.902344 C 438.925781 261.074219 439.230469 261.566406 439.164062 262.085938 L 437.457031 276.058594 C 437.394531 276.574219 436.984375 276.980469 436.460938 277.027344 L 421.914062 278.496094 C 421.042969 281.1875 419.976562 283.835938 418.734375 286.378906 L 428.199219 297.546875 C 428.535156 297.945312 428.550781 298.523438 428.238281 298.9375 L 419.785156 310.183594 C 419.46875 310.597656 418.910156 310.742188 418.4375 310.527344 L 405.121094 304.523438 C 403.046875 306.398438 400.796875 308.15625 398.414062 309.753906 L 401.035156 324.15625 C 401.128906 324.667969 400.851562 325.179688 400.375 325.382812 L 387.433594 330.890625 C 386.957031 331.09375 386.398438 330.9375 386.09375 330.515625 L 377.554688 318.632812 C 374.753906 319.238281 371.929688 319.640625 369.132812 319.835938 L 364.21875 333.605469 C 364.054688 334.054688 363.632812 334.34375 363.171875 334.34375 " fill-opacity="1" fill-rule="nonzero"/></svg>