<svg xmlns="http://www.w3.org/2000/svg" xmlns:xlink="http://www.w3.org/1999/xlink" width="869" zoomAndPan="magnify" viewBox="0 0 651.75 850.499975" height="1133" preserveAspectRatio="xMidYMid meet" version="1.0"><path fill="#caddff" d="M 46.238281 232.046875 C 92.957031 152.769531 181.878906 133.382812 215.417969 126.074219 C 329.554688 101.199219 498.441406 131.089844 579.929688 266.214844 C 651.441406 384.808594 611.621094 511.476562 605.851562 528.84375 C 596.171875 557.96875 571.941406 627.824219 503.242188 675.136719 C 396.289062 748.800781 233.269531 732.277344 177.480469 656.238281 C 151.277344 620.523438 172.480469 604.050781 141.964844 540.90625 C 101.097656 456.339844 50.375 458.367188 26.738281 390.65625 C 0.0585938 314.21875 41.917969 239.375 46.238281 232.046875 " fill-opacity="1" fill-rule="nonzero"/><path fill="#ffffff" d="M 602.839844 170.5625 L 154.125 170.5625 C 144.21875 170.5625 136.191406 178.699219 134.941406 188.730469 L 134.941406 500.472656 C 136.191406 510.507812 144.21875 518.644531 154.125 518.644531 L 602.839844 518.644531 C 612.746094 518.644531 620.773438 510.507812 620.773438 500.472656 L 620.773438 188.730469 C 620.773438 178.699219 612.746094 170.5625 602.839844 170.5625 " fill-opacity="1" fill-rule="nonzero"/><path fill="#000000" d="M 136.035156 500.40625 C 137.285156 510.183594 145.050781 517.554688 154.125 517.554688 L 602.84375 517.554688 C 612.128906 517.554688 619.683594 509.890625 619.683594 500.472656 L 619.683594 188.730469 C 619.683594 179.3125 612.128906 171.652344 602.84375 171.652344 L 154.125 171.652344 C 145.050781 171.652344 137.285156 179.015625 136.035156 188.796875 Z M 602.84375 519.734375 L 154.125 519.734375 C 143.929688 519.734375 135.214844 511.515625 133.859375 500.605469 C 133.851562 500.566406 133.851562 500.519531 133.851562 500.472656 L 133.851562 188.730469 C 133.851562 188.683594 133.851562 188.640625 133.859375 188.59375 C 135.214844 177.691406 143.929688 169.464844 154.125 169.464844 L 602.84375 169.464844 C 613.328125 169.464844 621.867188 178.109375 621.867188 188.730469 L 621.867188 500.472656 C 621.867188 511.09375 613.328125 519.734375 602.84375 519.734375 " fill-opacity="1" fill-rule="nonzero"/><path fill="#caddff" d="M 163.9375 501.945312 C 158.1875 501.945312 153.507812 497.265625 153.507812 491.507812 L 153.507812 197.59375 C 153.507812 191.84375 158.1875 187.160156 163.9375 187.160156 L 592.40625 187.160156 C 598.160156 187.160156 602.835938 191.84375 602.835938 197.59375 L 602.835938 491.507812 C 602.835938 497.265625 598.160156 501.945312 592.40625 501.945312 L 163.9375 501.945312 " fill-opacity="1" fill-rule="nonzero"/><path fill="#caddff" d="M 171.964844 493.503906 C 166.4375 493.503906 161.941406 489.089844 161.941406 483.65625 L 161.941406 206.316406 C 161.941406 200.886719 166.4375 196.472656 171.964844 196.472656 L 583.722656 196.472656 C 589.25 196.472656 593.746094 200.886719 593.746094 206.316406 L 593.746094 483.65625 C 593.746094 489.089844 589.25 493.503906 583.722656 493.503906 L 171.964844 493.503906 " fill-opacity="1" fill-rule="nonzero"/><path fill="#ffffff" d="M 196.441406 361.183594 L 357.96875 360.546875 C 361.707031 360.535156 365.144531 357.09375 365.128906 353.375 L 364.644531 221.601562 C 364.632812 218.730469 362.53125 216.65625 359.644531 216.667969 L 198.117188 217.304688 C 194.378906 217.320312 190.941406 220.761719 190.957031 224.480469 L 191.445312 356.253906 C 191.453125 359.125 193.554688 361.199219 196.441406 361.183594 " fill-opacity="1" fill-rule="nonzero"/><path fill="#99b9ff" d="M 364.910156 323.347656 L 325.507812 274.390625 C 322.796875 270.960938 317.242188 270.359375 313.085938 273.050781 L 286.246094 301.730469 C 285.550781 302.472656 284.453125 302.769531 283.519531 302.359375 C 278.988281 300.347656 272.0625 288.347656 272.0625 288.347656 C 269.148438 285.085938 263.578125 284.734375 259.570312 287.5625 L 203.761719 326.996094 C 201.746094 328.417969 191.601562 334.632812 191.273438 336.816406 C 189.675781 344.097656 189.523438 361.667969 193.417969 361.652344 L 357.480469 361.652344 C 362.195312 361.632812 363.195312 358.828125 364.238281 354.269531 C 364.238281 354.269531 366.503906 358.109375 364.910156 323.347656 " fill-opacity="1" fill-rule="nonzero"/><path fill="#99b9ff" d="M 271.6875 254.5 C 271.6875 260.738281 266.632812 265.792969 260.398438 265.792969 C 254.167969 265.792969 249.113281 260.738281 249.113281 254.5 C 249.113281 248.261719 254.167969 243.207031 260.398438 243.207031 C 266.632812 243.207031 271.6875 248.261719 271.6875 254.5 " fill-opacity="1" fill-rule="nonzero"/><path fill="#ffffff" d="M 300.316406 320.070312 C 299.769531 319.609375 299.511719 318.890625 299.644531 318.191406 C 299.800781 317.375 300.601562 316.898438 300.957031 316.6875 C 305.488281 314.054688 312.953125 315.9375 312.953125 315.9375 C 315.011719 316.460938 318.234375 317.273438 321.535156 319.816406 C 325.441406 322.832031 327.082031 326.445312 329.023438 330.859375 C 330.652344 334.574219 332.667969 340.277344 333.460938 347.722656 C 329.714844 344.6875 302.542969 321.925781 300.316406 320.070312 " fill-opacity="1" fill-rule="nonzero"/><path fill="#000000" d="M 301.019531 319.230469 C 301.457031 319.597656 302.871094 320.78125 304.886719 322.46875 C 311.632812 328.109375 326.148438 340.257812 332.023438 345.121094 C 331.277344 340.296875 329.9375 335.652344 328.019531 331.296875 C 326.207031 327.160156 324.636719 323.585938 320.867188 320.679688 C 317.75 318.277344 314.703125 317.503906 312.6875 316.996094 C 312.617188 316.980469 305.589844 315.257812 301.507812 317.632812 C 301.328125 317.738281 300.78125 318.054688 300.71875 318.394531 C 300.660156 318.707031 300.773438 319.027344 301.019531 319.230469 Z M 333.460938 348.8125 C 333.21875 348.8125 332.972656 348.730469 332.773438 348.570312 C 329.761719 346.132812 312.011719 331.277344 303.484375 324.140625 C 301.472656 322.457031 300.058594 321.273438 299.617188 320.910156 C 298.765625 320.195312 298.367188 319.078125 298.570312 317.984375 C 298.820312 316.667969 300.015625 315.972656 300.410156 315.746094 C 305.269531 312.917969 312.898438 314.796875 313.222656 314.878906 C 315.28125 315.398438 318.722656 316.269531 322.195312 318.949219 C 326.410156 322.195312 328.164062 326.191406 330.023438 330.417969 C 332.378906 335.792969 333.90625 341.578125 334.546875 347.605469 C 334.59375 348.042969 334.375 348.472656 333.984375 348.683594 C 333.824219 348.773438 333.644531 348.8125 333.460938 348.8125 " fill-opacity="1" fill-rule="nonzero"/><path fill="#5479f7" d="M 460.523438 296.535156 C 447.605469 315.125 433.515625 325.660156 424.773438 331.203125 C 419.230469 334.71875 373.285156 363.867188 345.054688 344.890625 C 338.066406 340.195312 334.132812 333.875 332.050781 329.804688 C 328.683594 333.402344 325.3125 337 321.945312 340.601562 C 322.621094 345.070312 329.128906 384.460938 360.472656 398.464844 C 376.488281 405.617188 392.859375 404.179688 403.273438 401.84375 C 417.878906 398.566406 438.800781 392.789062 447.089844 384.710938 C 479.082031 353.527344 460.523438 296.535156 460.523438 296.535156 " fill-opacity="1" fill-rule="nonzero"/><path fill="#5479f7" d="M 588.410156 493.507812 C 584.210938 474.976562 572.039062 450.9375 570.765625 406.355469 C 579.535156 388.496094 593.257812 350.117188 572.066406 314.71875 L 572.066406 314.738281 C 570.585938 311.429688 568.523438 308.359375 565.679688 305.472656 C 554.980469 294.601562 539.984375 292.921875 521.894531 290.894531 C 505.933594 289.109375 469.066406 284.980469 448.910156 304.628906 C 426.894531 326.097656 448.6875 352.691406 435.976562 419.136719 C 427.761719 462.058594 414.042969 475.136719 416.769531 493.507812 L 588.410156 493.507812 " fill-opacity="1" fill-rule="nonzero"/><path fill="#ffffff" d="M 468.011719 410.390625 C 468.011719 410.390625 424.238281 405.410156 405.207031 381.609375 L 373.484375 363.703125 C 373.484375 363.703125 376.664062 375.285156 385.527344 378.308594 C 385.527344 378.308594 382.128906 393.203125 394.082031 400.039062 C 394.082031 400.039062 402.792969 404.089844 407.171875 403.144531 C 407.171875 403.144531 430.027344 441.992188 467.476562 446.171875 C 467.476562 446.171875 473.609375 429.128906 468.011719 410.390625 " fill-opacity="1" fill-rule="nonzero"/><path fill="#000000" d="M 407.171875 402.050781 C 407.554688 402.050781 407.914062 402.253906 408.113281 402.589844 C 408.335938 402.96875 430.769531 440.40625 466.714844 444.984375 C 467.796875 441.445312 471.59375 426.996094 467.167969 411.386719 C 461.1875 410.609375 422.515625 404.808594 404.484375 382.457031 L 375.527344 366.113281 C 377.007812 369.570312 380.238281 375.355469 385.878906 377.273438 C 386.410156 377.457031 386.714844 378.007812 386.59375 378.550781 C 386.460938 379.128906 383.539062 392.71875 394.585938 399.066406 C 396.957031 400.160156 403.664062 402.789062 406.945312 402.078125 C 407.019531 402.0625 407.09375 402.050781 407.171875 402.050781 Z M 467.476562 447.265625 C 467.4375 447.265625 467.398438 447.261719 467.355469 447.261719 C 432.445312 443.363281 409.828125 409.417969 406.625 404.332031 C 401.816406 404.8125 393.96875 401.191406 393.625 401.03125 C 393.59375 401.019531 393.570312 401.003906 393.539062 400.984375 C 382.820312 394.855469 383.78125 382.515625 384.300781 379.011719 C 375.65625 375.433594 372.558594 364.476562 372.425781 363.992188 C 372.3125 363.566406 372.460938 363.113281 372.8125 362.839844 C 373.160156 362.570312 373.632812 362.535156 374.019531 362.753906 L 405.742188 380.660156 C 405.863281 380.726562 405.96875 380.816406 406.058594 380.929688 C 424.589844 404.113281 467.703125 409.253906 468.136719 409.304688 C 468.570312 409.355469 468.933594 409.660156 469.058594 410.078125 C 474.691406 428.949219 468.757812 445.832031 468.503906 446.542969 C 468.347656 446.984375 467.933594 447.265625 467.476562 447.265625 " fill-opacity="1" fill-rule="nonzero"/><path fill="#99b9ff" d="M 485.660156 448.128906 C 481.664062 448.128906 477.5 447.953125 473.15625 447.5625 C 472.554688 447.507812 472.113281 446.976562 472.167969 446.375 C 472.222656 445.773438 472.746094 445.332031 473.355469 445.386719 C 535.933594 450.980469 561.371094 413.386719 562.066406 412.289062 C 562.140625 412.136719 562.253906 412 562.402344 411.898438 C 562.886719 411.542969 563.570312 411.652344 563.925781 412.136719 C 564.175781 412.480469 564.191406 412.96875 563.980469 413.34375 C 563.925781 413.441406 557.316406 423.730469 542.226562 433.117188 C 530.734375 440.261719 512.074219 448.128906 485.660156 448.128906 " fill-opacity="1" fill-rule="nonzero"/><path fill="#99b9ff" d="M 475.496094 409.675781 C 474.964844 409.675781 474.492188 409.277344 474.421875 408.734375 C 474.339844 408.132812 474.757812 407.582031 475.355469 407.503906 C 502.65625 403.785156 521 388.753906 529.882812 362.828125 C 536.542969 343.375 535.09375 324.757812 535.074219 324.574219 C 535.019531 323.972656 535.472656 323.445312 536.070312 323.394531 C 536.660156 323.339844 537.199219 323.789062 537.25 324.390625 C 537.265625 324.582031 538.761719 343.597656 531.972656 363.464844 C 525.671875 381.902344 510.789062 404.882812 475.648438 409.667969 C 475.597656 409.675781 475.546875 409.675781 475.496094 409.675781 " fill-opacity="1" fill-rule="nonzero"/><path fill="#99b9ff" d="M 446.613281 376.671875 C 446.105469 376.671875 445.652344 376.316406 445.546875 375.796875 C 438.035156 338.074219 454.472656 315.554688 454.640625 315.332031 C 455.003906 314.851562 455.6875 314.753906 456.167969 315.113281 C 456.652344 315.476562 456.75 316.160156 456.386719 316.640625 C 456.226562 316.855469 440.378906 338.660156 447.691406 375.367188 C 447.808594 375.960938 447.421875 376.535156 446.832031 376.652344 C 446.761719 376.667969 446.691406 376.671875 446.613281 376.671875 " fill-opacity="1" fill-rule="nonzero"/><path fill="#000000" d="M 478.832031 203.933594 C 469.421875 210.675781 473.8125 218.578125 461.058594 239.488281 C 453.78125 251.40625 449.355469 253.761719 448.222656 257.742188 C 447.9375 258.738281 447.921875 259.449219 447.9375 260.398438 C 448.105469 269.441406 460.285156 277.925781 470.691406 280.859375 C 489.992188 286.296875 499.714844 271.660156 512.742188 278.644531 C 522.179688 283.703125 521.203125 293.589844 529.363281 294.964844 C 537.582031 296.351562 546.347656 287.628906 550.425781 280.675781 C 559.269531 265.597656 552.722656 247.597656 549.601562 239.316406 C 544.5 225.761719 536.769531 217.835938 534.339844 215.46875 C 531.675781 212.871094 526.71875 208.121094 519.117188 204.613281 C 517.542969 203.886719 493.726562 193.265625 478.832031 203.933594 " fill-opacity="1" fill-rule="nonzero"/><path fill="#ffffff" d="M 523.964844 288.941406 C 522.347656 288.144531 520.503906 287.113281 518.992188 285.058594 C 518.265625 284.066406 517.730469 282.851562 517.316406 281.160156 L 509.519531 248.640625 C 509.519531 248.640625 516.257812 246.941406 516.1875 238.273438 C 516.128906 231.546875 508.980469 233.539062 508.980469 233.539062 L 507.164062 221.375 C 502.546875 224.875 505.53125 232.242188 499.980469 230.597656 L 475.464844 223.324219 C 475.464844 223.324219 469.492188 223.132812 473.039062 241.046875 C 474.058594 247.207031 470.167969 250.160156 469.226562 251.972656 C 468.566406 253.25 469.203125 254.816406 470.574219 255.261719 L 472.476562 255.890625 C 479.976562 271.058594 484.097656 273.089844 489.515625 270.871094 L 491.117188 277.417969 C 491.554688 280.078125 491.710938 283.835938 489.496094 286.316406 C 487.753906 288.265625 485.492188 288.371094 480.921875 289.730469 C 478.449219 290.460938 474.855469 291.695312 470.589844 293.792969 C 473.921875 295.671875 477.671875 297.398438 481.84375 298.773438 C 505.339844 306.515625 527.265625 298.152344 536.527344 293.910156 C 533.289062 292.875 528.640625 291.230469 523.964844 288.941406 " fill-opacity="1" fill-rule="nonzero"/><path fill="#000000" d="M 473.003906 293.859375 C 475.972656 295.402344 479.054688 296.703125 482.191406 297.734375 C 501.722656 304.167969 520.464844 299.582031 533.5 294.050781 C 529.882812 292.792969 526.527344 291.40625 523.484375 289.917969 C 521.640625 289.019531 519.714844 287.882812 518.113281 285.703125 C 517.28125 284.578125 516.691406 283.214844 516.253906 281.421875 L 508.453125 248.890625 C 508.316406 248.3125 508.671875 247.726562 509.246094 247.582031 C 509.488281 247.519531 515.160156 245.933594 515.09375 238.28125 C 515.082031 236.773438 514.660156 235.695312 513.847656 235.078125 C 512.183594 233.816406 509.296875 234.582031 509.269531 234.589844 C 508.96875 234.671875 508.644531 234.621094 508.382812 234.453125 C 508.121094 234.28125 507.945312 234.007812 507.898438 233.695312 L 506.421875 223.824219 C 505.753906 224.949219 505.445312 226.25 505.164062 227.445312 C 504.757812 229.140625 504.371094 230.738281 503.035156 231.511719 C 502.160156 232.015625 501.0625 232.054688 499.671875 231.644531 L 475.355469 224.433594 C 475.195312 224.476562 474.789062 224.628906 474.359375 225.183594 C 473.367188 226.472656 472.011719 230.21875 474.109375 240.832031 C 474.988281 246.144531 472.53125 249.34375 471.054688 251.261719 C 470.679688 251.742188 470.359375 252.164062 470.199219 252.476562 C 470.027344 252.804688 470.011719 253.171875 470.152344 253.515625 C 470.292969 253.859375 470.5625 254.113281 470.917969 254.226562 L 472.816406 254.851562 C 473.09375 254.941406 473.324219 255.140625 473.453125 255.402344 C 481.402344 271.476562 485.097656 271.5 489.101562 269.859375 C 489.394531 269.742188 489.726562 269.757812 490.011719 269.898438 C 490.292969 270.042969 490.496094 270.304688 490.574219 270.613281 L 492.179688 277.15625 C 492.1875 277.183594 492.191406 277.214844 492.195312 277.242188 C 492.902344 281.558594 492.265625 284.859375 490.308594 287.046875 C 488.777344 288.761719 486.941406 289.242188 484.175781 289.96875 C 483.3125 290.195312 482.335938 290.449219 481.234375 290.777344 C 478.480469 291.59375 475.722656 292.628906 473.003906 293.859375 Z M 502.027344 303.0625 C 495.4375 303.0625 488.527344 302.121094 481.503906 299.8125 C 477.566406 298.511719 473.714844 296.808594 470.054688 294.742188 C 469.707031 294.542969 469.488281 294.164062 469.5 293.757812 C 469.511719 293.355469 469.75 292.988281 470.113281 292.808594 C 473.554688 291.117188 477.089844 289.730469 480.613281 288.679688 C 481.75 288.34375 482.742188 288.085938 483.617188 287.855469 C 486.175781 287.183594 487.585938 286.816406 488.679688 285.589844 C 490.171875 283.921875 490.628906 281.246094 490.046875 277.636719 L 488.742188 272.304688 C 482.730469 274.097656 478.253906 269.933594 471.703125 256.785156 L 470.234375 256.304688 C 469.277344 255.988281 468.511719 255.273438 468.128906 254.339844 C 467.75 253.410156 467.796875 252.363281 468.257812 251.46875 C 468.511719 250.984375 468.890625 250.492188 469.328125 249.925781 C 470.742188 248.085938 472.679688 245.5625 471.964844 241.226562 C 470.199219 232.308594 470.472656 226.386719 472.785156 223.660156 C 474 222.226562 475.34375 222.222656 475.5 222.234375 C 475.59375 222.234375 475.683594 222.25 475.773438 222.277344 L 500.289062 229.550781 C 500.828125 229.707031 501.546875 229.851562 501.941406 229.621094 C 502.472656 229.316406 502.746094 228.160156 503.035156 226.941406 C 503.527344 224.867188 504.140625 222.289062 506.5 220.503906 C 506.808594 220.265625 507.214844 220.214844 507.574219 220.359375 C 507.929688 220.507812 508.183594 220.832031 508.242188 221.210938 L 509.894531 232.257812 C 511.25 232.082031 513.476562 232.058594 515.160156 233.324219 C 516.546875 234.375 517.257812 236.039062 517.277344 238.261719 C 517.339844 245.542969 512.867188 248.394531 510.800781 249.316406 L 518.378906 280.90625 C 518.746094 282.40625 519.21875 283.523438 519.875 284.410156 C 521.265625 286.300781 522.964844 287.234375 524.445312 287.957031 C 528.132812 289.765625 532.308594 291.414062 536.859375 292.867188 C 537.289062 293.003906 537.585938 293.390625 537.613281 293.84375 C 537.644531 294.292969 537.390625 294.710938 536.980469 294.898438 C 527.933594 299.050781 515.660156 303.0625 502.027344 303.0625 " fill-opacity="1" fill-rule="nonzero"/><path fill="#000000" d="M 489.511719 271.96875 C 489.050781 271.96875 488.621094 271.667969 488.472656 271.203125 C 488.292969 270.628906 488.609375 270.011719 489.183594 269.832031 C 499.589844 266.53125 503.476562 260.039062 503.519531 259.96875 C 503.824219 259.453125 504.488281 259.277344 505.007812 259.578125 C 505.53125 259.878906 505.710938 260.542969 505.410156 261.066406 C 505.238281 261.363281 501.105469 268.339844 489.84375 271.914062 C 489.738281 271.949219 489.621094 271.96875 489.511719 271.96875 " fill-opacity="1" fill-rule="nonzero"/><path fill="#000000" d="M 502.652344 204.144531 C 503.199219 203.464844 493.839844 182.878906 509.957031 178 C 526.078125 173.125 538.324219 202.820312 523.546875 211.152344 C 508.769531 219.488281 502.652344 204.144531 502.652344 204.144531 " fill-opacity="1" fill-rule="nonzero"/><path fill="#000000" d="M 484.261719 238.96875 C 481.75 238.96875 479.667969 240.964844 479.585938 243.492188 C 479.5 246.074219 481.527344 248.246094 484.109375 248.328125 C 486.667969 248.414062 488.851562 246.382812 488.941406 243.800781 C 489.023438 241.222656 486.996094 239.050781 484.414062 238.96875 C 484.363281 238.96875 484.308594 238.96875 484.261719 238.96875 Z M 484.265625 250.511719 C 484.1875 250.511719 484.113281 250.511719 484.035156 250.511719 C 482.207031 250.453125 480.503906 249.679688 479.253906 248.339844 C 478 247.003906 477.339844 245.253906 477.402344 243.421875 C 477.460938 241.589844 478.234375 239.890625 479.570312 238.632812 C 480.910156 237.382812 482.664062 236.722656 484.484375 236.785156 C 488.269531 236.90625 491.246094 240.085938 491.121094 243.875 C 491 247.582031 487.945312 250.511719 484.265625 250.511719 " fill-opacity="1" fill-rule="nonzero"/><path fill="#ffffff" d="M 471.304688 248.761719 C 471.046875 248.761719 470.789062 248.671875 470.578125 248.488281 C 469.050781 247.125 468.214844 245.171875 468.277344 243.125 C 468.347656 241.074219 469.316406 239.179688 470.945312 237.917969 C 471.421875 237.554688 472.105469 237.636719 472.472656 238.117188 C 472.84375 238.589844 472.757812 239.277344 472.277344 239.648438 C 471.171875 240.503906 470.511719 241.800781 470.464844 243.199219 C 470.414062 244.597656 470.992188 245.925781 472.03125 246.855469 C 472.484375 247.253906 472.523438 247.945312 472.125 248.394531 C 471.910156 248.636719 471.609375 248.761719 471.304688 248.761719 " fill-opacity="1" fill-rule="nonzero"/><path fill="#000000" d="M 490.132812 243.59375 C 489.730469 243.59375 489.34375 243.371094 489.152344 242.992188 C 488.878906 242.453125 489.097656 241.792969 489.636719 241.523438 L 509.140625 231.734375 C 509.675781 231.464844 510.335938 231.683594 510.605469 232.21875 C 510.875 232.761719 510.660156 233.417969 510.121094 233.6875 L 490.617188 243.476562 C 490.460938 243.558594 490.296875 243.59375 490.132812 243.59375 " fill-opacity="1" fill-rule="nonzero"/><path fill="#000000" d="M 478.351562 244.609375 C 477.980469 244.609375 477.625 244.425781 477.417969 244.09375 C 477.199219 243.742188 476.414062 242.789062 475.484375 242.601562 C 474.945312 242.496094 474.402344 242.648438 473.8125 243.070312 C 473.320312 243.421875 472.640625 243.308594 472.289062 242.816406 C 471.933594 242.328125 472.046875 241.640625 472.542969 241.292969 C 473.621094 240.519531 474.792969 240.234375 475.925781 240.464844 C 477.953125 240.875 479.144531 242.734375 479.277344 242.945312 C 479.59375 243.457031 479.433594 244.128906 478.921875 244.449219 C 478.742188 244.554688 478.542969 244.609375 478.351562 244.609375 " fill-opacity="1" fill-rule="nonzero"/><path fill="#000000" d="M 585.792969 494.507812 L 239.210938 494.507812 C 238.609375 494.507812 238.121094 494.015625 238.121094 493.414062 C 238.121094 492.808594 238.609375 492.320312 239.210938 492.320312 L 585.792969 492.320312 C 589.886719 492.320312 593.210938 488.992188 593.210938 484.894531 L 592.863281 254.992188 C 592.859375 254.390625 593.347656 253.898438 593.953125 253.898438 C 594.554688 253.898438 595.046875 254.386719 595.046875 254.988281 L 595.398438 484.894531 C 595.398438 490.195312 591.089844 494.507812 585.792969 494.507812 " fill-opacity="1" fill-rule="nonzero"/><path fill="#000000" d="M 161.707031 491.582031 C 161.105469 491.582031 160.617188 491.09375 160.617188 490.492188 L 160.332031 271.355469 C 160.332031 270.753906 160.820312 270.261719 161.421875 270.261719 C 161.421875 270.261719 161.421875 270.261719 161.425781 270.261719 C 162.027344 270.261719 162.515625 270.75 162.515625 271.351562 L 162.800781 490.488281 C 162.800781 491.09375 162.3125 491.582031 161.707031 491.582031 " fill-opacity="1" fill-rule="nonzero"/><path fill="#000000" d="M 162.035156 237.71875 C 161.429688 237.71875 160.941406 237.230469 160.941406 236.625 L 160.941406 218.554688 C 160.941406 217.953125 161.429688 217.464844 162.035156 217.464844 C 162.636719 217.464844 163.125 217.953125 163.125 218.554688 L 163.125 236.625 C 163.125 237.230469 162.636719 237.71875 162.035156 237.71875 " fill-opacity="1" fill-rule="nonzero"/><path fill="#000000" d="M 162.035156 205.308594 C 161.429688 205.308594 160.941406 204.816406 160.941406 204.214844 C 160.941406 198.914062 165.25 194.605469 170.546875 194.605469 L 405.683594 194.046875 C 405.6875 194.046875 405.6875 194.046875 405.6875 194.046875 C 406.285156 194.046875 406.777344 194.535156 406.78125 195.136719 C 406.78125 195.742188 406.289062 196.230469 405.691406 196.230469 L 170.550781 196.789062 C 166.457031 196.789062 163.125 200.121094 163.125 204.214844 C 163.125 204.816406 162.636719 205.308594 162.035156 205.308594 " fill-opacity="1" fill-rule="nonzero"/><path fill="#000000" d="M 234.871094 323.851562 C 219.210938 306.894531 195.925781 303.324219 178.425781 308.109375 C 156.277344 314.160156 145.109375 333.328125 137.234375 346.847656 C 123.308594 370.75 130.035156 379.40625 119.089844 393.289062 C 99.707031 417.875 69.328125 402.507812 45.707031 420.46875 C 9.675781 447.871094 4.78125 540.859375 53.535156 576.261719 C 86.050781 599.871094 130.277344 586.21875 142.3125 582.5 C 178.832031 571.226562 224.273438 539.753906 230.792969 497.09375 C 236.1875 461.820312 212.953125 432.472656 232.394531 402.902344 C 237.34375 395.375 241.449219 393.328125 245.125 383.914062 C 251.09375 368.625 252.4375 342.875 234.871094 323.851562 " fill-opacity="1" fill-rule="nonzero"/><path fill="#000000" d="M 187.644531 328.035156 C 195.964844 321.277344 190.699219 301.359375 185.375 290.621094 C 183.378906 286.589844 174.449219 268.570312 162.703125 269.269531 C 150.640625 269.988281 139.089844 290.246094 143.394531 306.296875 C 148.777344 326.363281 177.894531 335.945312 187.644531 328.035156 " fill-opacity="1" fill-rule="nonzero"/><path fill="#ffffff" d="M 324.429688 607.828125 C 324.429688 607.828125 240.753906 461.898438 229.234375 454.894531 C 217.71875 447.886719 229.234375 521.746094 229.234375 521.746094 L 291.722656 626.109375 L 324.429688 607.828125 " fill-opacity="1" fill-rule="nonzero"/><path fill="#000000" d="M 230.285156 521.367188 L 292.113281 624.640625 L 322.933594 607.414062 C 293.875 556.765625 237.535156 461.21875 228.667969 455.828125 C 227.875 455.34375 227.570312 455.550781 227.4375 455.632812 C 226.230469 456.441406 223.714844 461.40625 226.386719 489.964844 C 227.785156 504.886719 229.992188 519.460938 230.285156 521.367188 Z M 291.722656 627.203125 C 291.347656 627.203125 290.988281 627.011719 290.785156 626.671875 L 228.300781 522.304688 C 228.226562 522.1875 228.179688 522.050781 228.15625 521.914062 C 228.132812 521.757812 225.710938 506.160156 224.214844 490.164062 C 221.449219 460.644531 224.039062 455.285156 226.222656 453.816406 C 226.949219 453.332031 228.160156 452.960938 229.804688 453.960938 C 241.425781 461.03125 321.957031 601.316406 325.378906 607.285156 C 325.523438 607.539062 325.5625 607.839844 325.480469 608.121094 C 325.40625 608.402344 325.21875 608.640625 324.964844 608.78125 L 292.253906 627.066406 C 292.082031 627.160156 291.902344 627.203125 291.722656 627.203125 " fill-opacity="1" fill-rule="nonzero"/><path fill="#5479f7" d="M 105.703125 451.9375 C 105.703125 451.9375 163.105469 423.773438 229.234375 454.894531 C 229.234375 454.894531 285.894531 646.066406 289.890625 665.949219 C 293.890625 685.832031 267.234375 684.875 241.675781 680.792969 C 216.117188 676.710938 153.375 676.75 127.085938 691.21875 C 100.796875 705.6875 98.097656 670.269531 101.054688 646.65625 C 104.015625 623.046875 105.703125 451.9375 105.703125 451.9375 " fill-opacity="1" fill-rule="nonzero"/><path fill="#ffffff" d="M 110.453125 605.453125 L 192.394531 556.578125 L 236.902344 571.484375 C 236.902344 571.484375 232.996094 575.769531 226.664062 573.691406 C 220.335938 571.609375 211.417969 572.179688 205.082031 577.359375 C 198.75 582.539062 190.140625 577.359375 190.140625 577.359375 C 190.140625 577.359375 138.054688 654.554688 92.140625 656.148438 C 54.8125 657.4375 75.214844 526.265625 84.152344 477.144531 C 86.210938 465.851562 94.027344 456.460938 104.75 452.367188 L 118.488281 447.125 L 110.453125 605.453125 " fill-opacity="1" fill-rule="nonzero"/><path fill="#000000" d="M 117.3125 448.742188 L 105.136719 453.386719 C 94.828125 457.320312 87.199219 466.5 85.226562 477.34375 C 77.226562 521.3125 60.863281 626.1875 81.699219 650.3125 C 84.578125 653.644531 87.984375 655.199219 92.105469 655.054688 C 136.933594 653.5 188.71875 577.515625 189.238281 576.75 C 189.5625 576.265625 190.207031 576.125 190.707031 576.421875 C 190.785156 576.464844 198.738281 581.132812 204.390625 576.511719 C 211.195312 570.945312 220.652344 570.5625 227.003906 572.652344 C 230.492188 573.796875 233.132812 572.8125 234.648438 571.882812 L 192.523438 557.769531 L 111.011719 606.390625 C 110.664062 606.597656 110.234375 606.597656 109.890625 606.386719 C 109.542969 606.179688 109.339844 605.800781 109.363281 605.398438 Z M 91.597656 657.246094 C 87.089844 657.246094 83.203125 655.398438 80.046875 651.742188 C 58.59375 626.90625 75.023438 521.230469 83.078125 476.949219 C 85.1875 465.363281 93.339844 455.550781 104.359375 451.347656 L 118.097656 446.105469 C 118.445312 445.972656 118.832031 446.023438 119.132812 446.242188 C 119.429688 446.457031 119.597656 446.8125 119.578125 447.179688 L 111.648438 603.46875 L 191.835938 555.640625 C 192.109375 555.472656 192.441406 555.441406 192.742188 555.539062 L 237.25 570.449219 C 237.601562 570.566406 237.871094 570.855469 237.960938 571.210938 C 238.054688 571.570312 237.957031 571.949219 237.710938 572.222656 C 237.53125 572.417969 233.246094 577.003906 226.324219 574.730469 C 220.535156 572.828125 211.9375 573.164062 205.773438 578.203125 C 200.105469 582.839844 192.988281 580.023438 190.488281 578.78125 C 187.792969 582.664062 175.601562 599.8125 159.148438 616.914062 C 134.046875 643 111.515625 656.566406 92.179688 657.238281 C 91.984375 657.242188 91.792969 657.246094 91.597656 657.246094 " fill-opacity="1" fill-rule="nonzero"/><path fill="#000000" d="M 330.128906 623.949219 L 210.519531 628.785156 C 206.472656 628.785156 203.988281 624.347656 206.109375 620.898438 L 266.445312 522.613281 C 267.925781 520.199219 270.554688 518.730469 273.382812 518.730469 L 394.292969 521.492188 L 330.128906 623.949219 " fill-opacity="1" fill-rule="nonzero"/><path fill="#000000" d="M 273.359375 519.824219 C 270.949219 519.824219 268.644531 521.113281 267.375 523.183594 L 207.039062 621.46875 C 206.253906 622.75 206.222656 624.292969 206.953125 625.601562 C 207.6875 626.910156 209.019531 627.695312 210.519531 627.695312 L 329.507812 622.882812 L 392.347656 522.542969 Z M 210.558594 629.878906 C 208.214844 629.878906 206.171875 628.675781 205.046875 626.667969 C 203.925781 624.65625 203.972656 622.289062 205.175781 620.328125 L 265.511719 522.042969 C 267.179688 519.324219 270.199219 517.636719 273.382812 517.636719 L 396.238281 520.441406 L 330.746094 625.019531 L 330.171875 625.042969 L 210.5625 629.878906 C 210.5625 629.878906 210.558594 629.878906 210.558594 629.878906 " fill-opacity="1" fill-rule="nonzero"/><path fill="#99b9ff" d="M 338.742188 628.785156 L 209.632812 628.785156 L 277.195312 518.730469 L 406.300781 518.730469 L 338.742188 628.785156 " fill-opacity="1" fill-rule="nonzero"/><path fill="#000000" d="M 211.582031 627.695312 L 338.128906 627.695312 L 404.351562 519.824219 L 277.804688 519.824219 Z M 338.738281 629.878906 L 209.632812 629.878906 C 209.234375 629.878906 208.871094 629.664062 208.675781 629.320312 C 208.484375 628.972656 208.496094 628.550781 208.699219 628.214844 L 276.261719 518.15625 C 276.464844 517.835938 276.8125 517.636719 277.195312 517.636719 L 406.300781 517.636719 C 406.699219 517.636719 407.058594 517.851562 407.257812 518.199219 C 407.449219 518.542969 407.441406 518.964844 407.234375 519.300781 L 339.667969 629.359375 C 339.472656 629.683594 339.117188 629.878906 338.738281 629.878906 " fill-opacity="1" fill-rule="nonzero"/><path fill="#ffffff" d="M 341.710938 623.949219 C 341.710938 623.949219 339.28125 611.230469 341.710938 602.746094 C 344.136719 594.261719 359.179688 569.023438 363.476562 563.738281 C 367.777344 558.457031 371.421875 614.851562 341.710938 623.949219 " fill-opacity="1" fill-rule="nonzero"/><path fill="#000000" d="M 364.007812 564.835938 C 359.238281 571.023438 345.015625 595.152344 342.761719 603.046875 C 340.863281 609.675781 342.054688 619.15625 342.574219 622.511719 C 355.171875 617.957031 360.742188 604.503906 363.199219 593.847656 C 366.402344 579.96875 365.25 567.546875 364.007812 564.835938 Z M 341.710938 625.042969 C 341.511719 625.042969 341.316406 624.992188 341.144531 624.886719 C 340.878906 624.726562 340.691406 624.460938 340.636719 624.15625 C 340.535156 623.625 338.191406 611.082031 340.660156 602.445312 C 343.089844 593.949219 358.09375 568.621094 362.632812 563.046875 C 363.433594 562.0625 364.339844 562.304688 364.597656 562.398438 C 367.746094 563.574219 367.453125 576.546875 367.410156 578.019531 C 366.839844 597.144531 359.871094 619.53125 342.027344 624.996094 C 341.925781 625.027344 341.816406 625.042969 341.710938 625.042969 " fill-opacity="1" fill-rule="nonzero"/><path fill="#ffffff" d="M 202.121094 410.5 C 205.855469 412.371094 210.378906 411.648438 213.328125 408.691406 C 216.714844 405.296875 219.445312 401.6875 221.667969 398.035156 L 225.9375 398.121094 C 227.300781 398.152344 228.4375 397.085938 228.5 395.71875 L 229.234375 379.03125 C 239.058594 363.003906 231.324219 354.417969 231.324219 354.417969 C 230.597656 346.195312 209.851562 341.292969 198.230469 357.136719 C 190.351562 367.882812 179.011719 357.136719 179.011719 357.136719 C 179.011719 357.136719 173.074219 341.121094 166.132812 350.972656 C 159.183594 360.824219 172.957031 378.148438 172.957031 378.148438 L 162.667969 422 C 160.292969 432.117188 153.066406 440.402344 143.367188 444.121094 L 133.488281 447.90625 C 133.488281 447.90625 148.921875 498.5 192.644531 497.5625 C 226.007812 496.847656 211.621094 451.734375 211.621094 451.734375 L 207.242188 449.796875 C 195.769531 444.734375 189.488281 432.25 192.257812 420.015625 L 195.199219 407.027344 L 202.121094 410.5 " fill-opacity="1" fill-rule="nonzero"/><path fill="#000000" d="M 198.695312 411.382812 C 198.535156 411.382812 198.371094 411.347656 198.214844 411.273438 C 185.457031 405.070312 184.234375 390.03125 184.1875 389.398438 C 184.144531 388.796875 184.597656 388.269531 185.199219 388.230469 C 185.796875 388.175781 186.324219 388.636719 186.367188 389.238281 C 186.378906 389.382812 187.5625 403.660156 199.171875 409.308594 C 199.714844 409.574219 199.941406 410.226562 199.675781 410.769531 C 199.488281 411.160156 199.097656 411.382812 198.695312 411.382812 " fill-opacity="1" fill-rule="nonzero"/><path fill="#ffffff" d="M 49.199219 288.921875 C 49.199219 273.265625 61.886719 260.570312 77.539062 260.570312 C 93.191406 260.570312 105.878906 273.265625 105.878906 288.921875 C 105.878906 304.585938 93.191406 317.28125 77.539062 317.28125 C 61.886719 317.28125 49.199219 304.585938 49.199219 288.921875 " fill-opacity="1" fill-rule="nonzero"/><path fill="#000000" d="M 77.539062 261.664062 C 62.515625 261.664062 50.289062 273.894531 50.289062 288.921875 C 50.289062 303.957031 62.515625 316.1875 77.539062 316.1875 C 92.5625 316.1875 104.789062 303.957031 104.789062 288.921875 C 104.789062 273.894531 92.5625 261.664062 77.539062 261.664062 Z M 77.539062 318.371094 C 61.308594 318.371094 48.105469 305.164062 48.105469 288.921875 C 48.105469 272.6875 61.308594 259.476562 77.539062 259.476562 C 93.769531 259.476562 106.972656 272.6875 106.972656 288.921875 C 106.972656 305.164062 93.769531 318.371094 77.539062 318.371094 " fill-opacity="1" fill-rule="nonzero"/><path fill="#5479f7" d="M 77.695312 303.195312 C 77.414062 303.363281 77.0625 303.375 76.773438 303.214844 C 74.277344 301.816406 62.691406 294.832031 63.144531 285.695312 C 63.621094 276.039062 74.097656 277.714844 76.679688 282.46875 C 76.78125 282.648438 76.972656 282.753906 77.175781 282.742188 C 77.382812 282.734375 77.5625 282.605469 77.640625 282.414062 C 78.910156 279.367188 83.007812 277.152344 86.867188 278.605469 C 91.464844 280.332031 96.144531 291.75 77.695312 303.195312 " fill-opacity="1" fill-rule="nonzero"/><path fill="#000000" d="M 435.28125 583.148438 C 434.675781 583.148438 434.191406 582.660156 434.191406 582.054688 C 434.191406 548.441406 461.523438 521.09375 495.121094 521.09375 L 534.339844 521.09375 C 566.738281 521.09375 593.089844 494.726562 593.089844 462.316406 C 593.089844 461.714844 593.578125 461.226562 594.175781 461.226562 C 594.78125 461.226562 595.269531 461.714844 595.269531 462.316406 C 595.269531 495.929688 567.9375 523.28125 534.339844 523.28125 L 495.121094 523.28125 C 462.726562 523.28125 436.375 549.648438 436.375 582.054688 C 436.375 582.660156 435.882812 583.148438 435.28125 583.148438 " fill-opacity="1" fill-rule="nonzero"/><path fill="#99b9ff" d="M 598.4375 465.390625 C 595.640625 468.191406 591.101562 468.191406 588.304688 465.390625 C 585.503906 462.589844 585.503906 458.046875 588.304688 455.25 C 591.101562 452.449219 595.640625 452.449219 598.4375 455.25 C 601.238281 458.046875 601.238281 462.589844 598.4375 465.390625 " fill-opacity="1" fill-rule="nonzero"/><path fill="#000000" d="M 593.371094 454.238281 C 591.75 454.238281 590.222656 454.875 589.078125 456.023438 C 587.925781 457.167969 587.296875 458.695312 587.296875 460.320312 C 587.296875 461.941406 587.925781 463.472656 589.078125 464.617188 C 590.222656 465.765625 591.75 466.398438 593.371094 466.398438 C 594.996094 466.398438 596.519531 465.765625 597.664062 464.617188 C 598.816406 463.472656 599.449219 461.941406 599.449219 460.320312 C 599.449219 458.695312 598.816406 457.167969 597.664062 456.023438 C 596.519531 454.875 594.996094 454.238281 593.371094 454.238281 Z M 593.371094 468.585938 C 591.164062 468.585938 589.089844 467.726562 587.53125 466.164062 C 585.96875 464.601562 585.113281 462.527344 585.113281 460.320312 C 585.113281 458.113281 585.96875 456.035156 587.53125 454.476562 C 589.089844 452.914062 591.164062 452.054688 593.371094 452.054688 C 595.578125 452.054688 597.648438 452.914062 599.210938 454.476562 C 600.769531 456.035156 601.632812 458.113281 601.632812 460.320312 C 601.632812 462.527344 600.769531 464.601562 599.210938 466.164062 C 597.648438 467.726562 595.578125 468.585938 593.371094 468.585938 " fill-opacity="1" fill-rule="nonzero"/><path fill="#99b9ff" d="M 439.941406 586.875 C 437.140625 589.675781 432.605469 589.675781 429.804688 586.875 C 427.003906 584.074219 427.003906 579.535156 429.804688 576.734375 C 432.605469 573.933594 437.140625 573.933594 439.941406 576.734375 C 442.742188 579.535156 442.742188 584.074219 439.941406 586.875 " fill-opacity="1" fill-rule="nonzero"/><path fill="#000000" d="M 434.875 575.726562 C 433.25 575.726562 431.722656 576.359375 430.574219 577.507812 C 428.207031 579.875 428.207031 583.734375 430.574219 586.101562 C 431.722656 587.25 433.25 587.886719 434.875 587.886719 C 436.496094 587.886719 438.023438 587.25 439.167969 586.101562 C 441.539062 583.734375 441.539062 579.875 439.167969 577.507812 C 438.023438 576.359375 436.496094 575.726562 434.875 575.726562 Z M 434.875 590.070312 C 432.667969 590.070312 430.59375 589.210938 429.03125 587.648438 C 425.8125 584.429688 425.8125 579.179688 429.03125 575.960938 C 430.59375 574.398438 432.667969 573.539062 434.875 573.539062 C 437.078125 573.539062 439.152344 574.398438 440.714844 575.960938 C 443.933594 579.179688 443.933594 584.429688 440.714844 587.648438 C 439.152344 589.210938 437.078125 590.070312 434.875 590.070312 " fill-opacity="1" fill-rule="nonzero"/><path fill="#99b9ff" d="M 525.257812 519.996094 L 515.886719 510.621094 C 514.246094 508.980469 511.589844 508.980469 509.945312 510.621094 L 500.574219 519.996094 C 498.933594 521.636719 498.933594 524.300781 500.574219 525.941406 L 509.945312 535.316406 C 511.589844 536.957031 514.246094 536.957031 515.886719 535.316406 L 525.253906 525.941406 C 526.898438 524.300781 526.898438 521.636719 525.257812 519.996094 " fill-opacity="1" fill-rule="nonzero"/><path fill="#000000" d="M 512.914062 510.480469 C 512.085938 510.480469 511.304688 510.804688 510.71875 511.394531 L 501.347656 520.769531 C 500.761719 521.355469 500.4375 522.140625 500.4375 522.96875 C 500.4375 523.800781 500.761719 524.582031 501.347656 525.167969 L 510.722656 534.546875 C 511.929688 535.757812 513.902344 535.757812 515.113281 534.546875 L 524.484375 525.167969 C 525.078125 524.582031 525.398438 523.800781 525.398438 522.96875 C 525.398438 522.140625 525.078125 521.355469 524.484375 520.769531 L 515.113281 511.394531 C 514.523438 510.804688 513.75 510.480469 512.914062 510.480469 Z M 512.914062 537.636719 C 511.5625 537.636719 510.207031 537.121094 509.175781 536.089844 L 499.800781 526.714844 C 498.804688 525.714844 498.253906 524.382812 498.253906 522.96875 C 498.253906 521.554688 498.804688 520.222656 499.800781 519.226562 L 509.175781 509.847656 C 510.171875 508.847656 511.5 508.296875 512.914062 508.296875 C 514.332031 508.296875 515.660156 508.847656 516.660156 509.847656 L 526.027344 519.226562 C 528.09375 521.289062 528.09375 524.648438 526.027344 526.714844 L 516.660156 536.089844 C 515.625 537.121094 514.269531 537.636719 512.914062 537.636719 " fill-opacity="1" fill-rule="nonzero"/><path fill="#5479f7" d="M 514.121094 609.578125 C 506.851562 609.578125 500.957031 603.679688 500.957031 596.40625 C 500.957031 589.132812 506.851562 583.234375 514.121094 583.234375 C 521.390625 583.234375 527.28125 589.132812 527.28125 596.40625 C 527.28125 603.679688 521.390625 609.578125 514.121094 609.578125 Z M 534.574219 632.011719 L 550.71875 606.589844 C 551.195312 605.511719 551.175781 604.28125 550.660156 603.214844 L 517.730469 523.933594 C 516.273438 520.902344 511.964844 520.902344 510.503906 523.933594 L 477.574219 603.214844 C 477.0625 604.28125 477.042969 605.511719 477.523438 606.589844 L 493.664062 632.011719 C 494.308594 633.460938 495.742188 634.394531 497.332031 634.394531 L 530.90625 634.394531 C 532.492188 634.394531 533.929688 633.460938 534.574219 632.011719 " fill-opacity="1" fill-rule="nonzero"/><path fill="#000000" d="M 514.121094 584.324219 C 507.464844 584.324219 502.050781 589.746094 502.050781 596.40625 C 502.050781 603.0625 507.464844 608.480469 514.121094 608.480469 C 520.777344 608.480469 526.191406 603.0625 526.191406 596.40625 C 526.191406 589.746094 520.777344 584.324219 514.121094 584.324219 Z M 514.121094 610.667969 C 506.261719 610.667969 499.867188 604.269531 499.867188 596.40625 C 499.867188 588.539062 506.261719 582.140625 514.121094 582.140625 C 521.980469 582.140625 528.375 588.539062 528.375 596.40625 C 528.375 604.269531 521.980469 610.667969 514.121094 610.667969 Z M 478.492188 606.078125 L 494.585938 631.421875 C 494.613281 631.46875 494.640625 631.519531 494.660156 631.570312 C 495.128906 632.621094 496.175781 633.304688 497.332031 633.304688 L 530.90625 633.304688 C 532.0625 633.304688 533.113281 632.621094 533.578125 631.570312 C 533.597656 631.519531 533.625 631.46875 533.652344 631.421875 L 549.75 606.078125 C 550.066406 605.308594 550.046875 604.445312 549.683594 603.691406 L 516.722656 524.351562 C 516.253906 523.371094 515.269531 522.753906 514.121094 522.753906 C 512.972656 522.753906 511.988281 523.371094 511.488281 524.40625 L 478.582031 603.636719 C 478.199219 604.441406 478.171875 605.3125 478.492188 606.078125 Z M 530.90625 635.488281 L 497.332031 635.488281 C 495.34375 635.488281 493.535156 634.335938 492.699219 632.53125 L 476.601562 607.179688 C 476.570312 607.132812 476.542969 607.082031 476.519531 607.03125 C 475.914062 605.65625 475.941406 604.09375 476.59375 602.746094 L 509.5 523.511719 C 510.382812 521.675781 512.140625 520.570312 514.121094 520.570312 C 516.097656 520.570312 517.855469 521.675781 518.714844 523.457031 L 551.671875 602.800781 C 552.296875 604.09375 552.324219 605.65625 551.71875 607.03125 C 551.695312 607.082031 551.667969 607.132812 551.640625 607.179688 L 535.539062 632.53125 C 534.707031 634.335938 532.894531 635.488281 530.90625 635.488281 " fill-opacity="1" fill-rule="nonzero"/><path fill="#000000" d="M 528.585938 662.117188 L 499.648438 662.117188 C 495.359375 662.117188 491.882812 658.640625 491.882812 654.34375 L 491.882812 649.042969 C 491.882812 644.75 495.359375 641.265625 499.648438 641.265625 L 528.585938 641.265625 C 532.878906 641.265625 536.359375 644.75 536.359375 649.042969 L 536.359375 654.34375 C 536.359375 658.640625 532.878906 662.117188 528.585938 662.117188 " fill-opacity="1" fill-rule="nonzero"/><path fill="#000000" d="M 513.441406 526.53125 C 513.613281 526.667969 513.84375 526.765625 514.121094 526.765625 C 513.863281 526.765625 513.628906 526.675781 513.441406 526.53125 Z M 514.121094 526.765625 L 514.128906 526.765625 Z M 514.121094 573.6875 C 514.117188 573.6875 514.117188 573.6875 514.117188 573.6875 C 513.515625 573.679688 513.03125 573.1875 513.03125 572.589844 C 513.15625 554.875 513.273438 528.085938 513.074219 525.96875 C 513.046875 525.875 513.03125 525.777344 513.03125 525.675781 C 513.03125 525.070312 513.519531 524.582031 514.121094 524.582031 C 514.414062 524.582031 514.695312 524.699219 514.902344 524.90625 C 515.351562 525.363281 515.425781 525.433594 515.335938 549.265625 C 515.296875 560.953125 515.214844 572.601562 515.214844 572.601562 C 515.207031 573.203125 514.722656 573.6875 514.121094 573.6875 " fill-opacity="1" fill-rule="nonzero"/><path fill="#5479f7" d="M 113.632812 176.878906 L 129.160156 200.101562 C 133.832031 207.089844 149.269531 204.957031 163.644531 195.335938 C 178.015625 185.714844 185.882812 172.253906 181.207031 165.265625 L 165.683594 142.046875 L 113.632812 176.878906 " fill-opacity="1" fill-rule="nonzero"/><path fill="#ffffff" d="M 163.667969 135.898438 L 129.414062 142.464844 C 128.792969 142.621094 128.242188 142.988281 127.859375 143.503906 L 108.71875 172.675781 L 98.089844 179.785156 L 99.816406 182.363281 C 100.03125 182.6875 100.425781 182.886719 100.875 182.769531 L 146.421875 171.269531 C 147.046875 171.109375 147.59375 170.742188 147.976562 170.226562 L 175.992188 132.496094 C 176.269531 132.125 176.234375 131.683594 176.019531 131.367188 L 174.296875 128.785156 L 163.667969 135.898438 " fill-opacity="1" fill-rule="nonzero"/><path fill="#5479f7" d="M 173.238281 128.375 L 127.691406 139.882812 C 127.066406 140.035156 126.519531 140.40625 126.136719 140.921875 L 98.121094 178.648438 C 97.566406 179.394531 98.253906 180.417969 99.148438 180.1875 L 144.699219 168.6875 C 145.320312 168.527344 145.871094 168.160156 146.253906 167.644531 L 174.269531 129.914062 C 174.820312 129.175781 174.136719 128.148438 173.238281 128.375 " fill-opacity="1" fill-rule="nonzero"/><path fill="#000000" d="M 169.503906 159.992188 C 169.152344 159.992188 168.808594 159.820312 168.59375 159.507812 L 161.777344 149.3125 L 136.449219 155.34375 C 135.855469 155.488281 135.273438 155.121094 135.132812 154.535156 C 134.992188 153.949219 135.355469 153.359375 135.941406 153.21875 L 162.011719 147.007812 C 162.457031 146.902344 162.917969 147.085938 163.171875 147.460938 L 170.410156 158.292969 C 170.746094 158.792969 170.613281 159.472656 170.109375 159.804688 C 169.925781 159.929688 169.714844 159.992188 169.503906 159.992188 " fill-opacity="1" fill-rule="nonzero"/><path fill="#ffffff" d="M 169.675781 159.15625 C 168.945312 159.644531 168.71875 160.609375 169.15625 161.371094 L 181.4375 182.800781 L 187.027344 179.058594 L 171.921875 159.519531 C 171.386719 158.828125 170.402344 158.667969 169.675781 159.15625 " fill-opacity="1" fill-rule="nonzero"/><path fill="#ffffff" d="M 355.542969 644.386719 C 355.378906 644.386719 355.21875 644.355469 355.0625 644.277344 C 350.054688 641.820312 347.367188 640.148438 347.253906 640.078125 C 346.742188 639.761719 346.585938 639.085938 346.910156 638.574219 C 347.222656 638.0625 347.898438 637.90625 348.414062 638.226562 C 348.4375 638.242188 351.128906 639.914062 356.027344 642.316406 C 356.566406 642.582031 356.789062 643.234375 356.527344 643.777344 C 356.332031 644.164062 355.945312 644.386719 355.542969 644.386719 Z M 371.617188 651.25 C 371.492188 651.25 371.363281 651.226562 371.238281 651.179688 C 368.472656 650.15625 365.722656 649.0625 363.066406 647.933594 C 362.511719 647.699219 362.257812 647.058594 362.492188 646.5 C 362.730469 645.945312 363.367188 645.6875 363.921875 645.921875 C 366.546875 647.039062 369.261719 648.121094 372 649.132812 C 372.566406 649.34375 372.851562 649.96875 372.640625 650.535156 C 372.480469 650.976562 372.0625 651.25 371.617188 651.25 Z M 388.261719 656.578125 C 388.167969 656.578125 388.070312 656.566406 387.976562 656.539062 C 385.15625 655.769531 382.320312 654.929688 379.550781 654.046875 C 378.976562 653.863281 378.65625 653.246094 378.84375 652.671875 C 379.023438 652.097656 379.636719 651.78125 380.214844 651.964844 C 382.957031 652.839844 385.761719 653.671875 388.546875 654.429688 C 389.132812 654.589844 389.472656 655.191406 389.316406 655.769531 C 389.179688 656.257812 388.742188 656.578125 388.261719 656.578125 Z M 405.300781 660.433594 C 405.234375 660.433594 405.175781 660.429688 405.109375 660.414062 C 402.242188 659.898438 399.34375 659.304688 396.5 658.660156 C 395.90625 658.527344 395.542969 657.945312 395.675781 657.355469 C 395.808594 656.769531 396.390625 656.398438 396.980469 656.53125 C 399.796875 657.167969 402.660156 657.753906 405.492188 658.265625 C 406.089844 658.375 406.484375 658.941406 406.375 659.535156 C 406.28125 660.0625 405.820312 660.433594 405.300781 660.433594 Z M 466.183594 662.035156 C 465.644531 662.035156 465.171875 661.632812 465.101562 661.082031 C 465.027344 660.484375 465.449219 659.9375 466.046875 659.859375 C 468.90625 659.492188 471.792969 659.0625 474.632812 658.570312 C 475.230469 658.46875 475.792969 658.867188 475.898438 659.460938 C 476 660.054688 475.601562 660.621094 475.007812 660.722656 C 472.140625 661.21875 469.214844 661.65625 466.328125 662.027344 C 466.277344 662.035156 466.230469 662.035156 466.183594 662.035156 Z M 422.609375 662.796875 C 422.574219 662.796875 422.539062 662.796875 422.503906 662.792969 C 419.601562 662.523438 416.664062 662.1875 413.78125 661.792969 C 413.183594 661.710938 412.765625 661.160156 412.847656 660.5625 C 412.929688 659.964844 413.476562 659.539062 414.078125 659.628906 C 416.929688 660.019531 419.835938 660.351562 422.707031 660.617188 C 423.308594 660.671875 423.75 661.207031 423.695312 661.804688 C 423.644531 662.371094 423.164062 662.796875 422.609375 662.796875 Z M 448.78125 663.492188 C 448.199219 663.492188 447.714844 663.03125 447.691406 662.441406 C 447.664062 661.84375 448.136719 661.332031 448.742188 661.308594 C 451.621094 661.195312 454.539062 661.015625 457.410156 660.777344 C 458 660.730469 458.539062 661.171875 458.589844 661.773438 C 458.640625 662.375 458.195312 662.902344 457.59375 662.953125 C 454.6875 663.195312 451.734375 663.378906 448.828125 663.492188 C 448.816406 663.492188 448.796875 663.492188 448.78125 663.492188 Z M 440.054688 663.644531 C 440.050781 663.644531 440.050781 663.644531 440.050781 663.644531 C 437.136719 663.632812 434.179688 663.554688 431.269531 663.410156 C 430.664062 663.378906 430.203125 662.871094 430.230469 662.269531 C 430.257812 661.664062 430.785156 661.207031 431.375 661.226562 C 434.253906 661.367188 437.175781 661.445312 440.058594 661.457031 C 440.664062 661.460938 441.148438 661.953125 441.148438 662.554688 C 441.144531 663.160156 440.65625 663.644531 440.054688 663.644531 " fill-opacity="1" fill-rule="nonzero"/><path fill="#ffffff" d="M 335.902344 650.523438 C 335.71875 650.523438 335.535156 650.476562 335.363281 650.378906 C 330.519531 647.609375 327.933594 645.792969 327.824219 645.714844 C 327.332031 645.371094 327.214844 644.6875 327.5625 644.195312 C 327.910156 643.703125 328.59375 643.582031 329.085938 643.933594 C 329.109375 643.949219 331.699219 645.769531 336.449219 648.480469 C 336.96875 648.78125 337.152344 649.449219 336.855469 649.972656 C 336.652344 650.324219 336.285156 650.523438 335.902344 650.523438 Z M 351.488281 658.449219 C 351.335938 658.449219 351.183594 658.417969 351.039062 658.351562 C 348.335938 657.128906 345.675781 655.851562 343.113281 654.550781 C 342.574219 654.277344 342.359375 653.621094 342.632812 653.082031 C 342.902344 652.542969 343.5625 652.328125 344.097656 652.601562 C 346.632812 653.890625 349.269531 655.152344 351.941406 656.363281 C 352.488281 656.609375 352.734375 657.257812 352.480469 657.804688 C 352.296875 658.210938 351.902344 658.449219 351.488281 658.449219 Z M 367.691406 664.992188 C 367.570312 664.992188 367.449219 664.972656 367.324219 664.929688 C 364.574219 663.945312 361.808594 662.898438 359.113281 661.808594 C 358.554688 661.585938 358.285156 660.945312 358.507812 660.390625 C 358.738281 659.828125 359.375 659.558594 359.933594 659.785156 C 362.601562 660.863281 365.335938 661.898438 368.058594 662.875 C 368.625 663.074219 368.921875 663.699219 368.722656 664.269531 C 368.558594 664.714844 368.144531 664.992188 367.691406 664.992188 Z M 384.375 670.203125 C 384.277344 670.203125 384.183594 670.195312 384.089844 670.167969 C 381.269531 669.410156 378.429688 668.585938 375.65625 667.71875 C 375.082031 667.539062 374.757812 666.925781 374.941406 666.347656 C 375.117188 665.777344 375.726562 665.453125 376.308594 665.632812 C 379.054688 666.492188 381.863281 667.304688 384.65625 668.054688 C 385.238281 668.214844 385.585938 668.8125 385.429688 669.394531 C 385.296875 669.882812 384.855469 670.203125 384.375 670.203125 Z M 479.550781 673.40625 C 479.039062 673.40625 478.585938 673.046875 478.476562 672.527344 C 478.359375 671.9375 478.746094 671.363281 479.339844 671.242188 C 481.511719 670.804688 483.722656 670.324219 485.90625 669.8125 C 486.484375 669.671875 487.078125 670.039062 487.214844 670.625 C 487.355469 671.214844 486.988281 671.800781 486.402344 671.9375 C 484.199219 672.457031 481.964844 672.941406 479.765625 673.382812 C 479.695312 673.398438 479.621094 673.40625 479.550781 673.40625 Z M 401.414062 674.046875 C 401.351562 674.046875 401.285156 674.042969 401.21875 674.027344 C 398.351562 673.503906 395.453125 672.914062 392.617188 672.269531 C 392.027344 672.140625 391.660156 671.554688 391.792969 670.964844 C 391.921875 670.378906 392.5 670.007812 393.09375 670.140625 C 395.910156 670.773438 398.773438 671.359375 401.609375 671.882812 C 402.203125 671.988281 402.59375 672.558594 402.484375 673.148438 C 402.390625 673.679688 401.933594 674.046875 401.414062 674.046875 Z M 462.304688 676.128906 C 461.753906 676.128906 461.28125 675.71875 461.21875 675.160156 C 461.148438 674.5625 461.578125 674.023438 462.179688 673.953125 C 465.035156 673.625 467.929688 673.226562 470.789062 672.78125 C 471.378906 672.683594 471.941406 673.089844 472.03125 673.6875 C 472.125 674.285156 471.71875 674.84375 471.125 674.9375 C 468.242188 675.390625 465.3125 675.792969 462.425781 676.121094 C 462.390625 676.128906 462.347656 676.128906 462.304688 676.128906 Z M 418.714844 676.476562 C 418.679688 676.476562 418.644531 676.476562 418.605469 676.472656 C 415.703125 676.1875 412.769531 675.835938 409.886719 675.433594 C 409.285156 675.347656 408.878906 674.792969 408.957031 674.195312 C 409.042969 673.597656 409.597656 673.191406 410.195312 673.269531 C 413.042969 673.667969 415.949219 674.015625 418.820312 674.296875 C 419.421875 674.355469 419.859375 674.890625 419.800781 675.492188 C 419.746094 676.054688 419.269531 676.476562 418.714844 676.476562 Z M 444.882812 677.378906 C 444.292969 677.378906 443.8125 676.914062 443.792969 676.320312 C 443.777344 675.71875 444.25 675.214844 444.855469 675.199219 C 447.738281 675.113281 450.65625 674.964844 453.53125 674.757812 C 454.132812 674.714844 454.652344 675.167969 454.695312 675.773438 C 454.738281 676.375 454.285156 676.894531 453.683594 676.9375 C 450.777344 677.148438 447.828125 677.296875 444.914062 677.378906 C 444.90625 677.378906 444.894531 677.378906 444.882812 677.378906 Z M 436.148438 677.449219 C 436.144531 677.449219 436.140625 677.449219 436.140625 677.449219 C 433.226562 677.410156 430.277344 677.308594 427.363281 677.148438 C 426.761719 677.109375 426.296875 676.59375 426.328125 675.992188 C 426.367188 675.390625 426.847656 674.941406 427.484375 674.960938 C 430.371094 675.125 433.292969 675.226562 436.167969 675.261719 C 436.769531 675.273438 437.25 675.769531 437.242188 676.375 C 437.234375 676.972656 436.746094 677.449219 436.148438 677.449219 " fill-opacity="1" fill-rule="nonzero"/><path fill="#ffffff" d="M 85.878906 337.808594 C 84.9375 337.808594 84 338.007812 83.113281 338.40625 C 79.632812 339.972656 78.046875 344.148438 79.585938 347.71875 C 80.335938 349.457031 81.703125 350.789062 83.441406 351.464844 C 85.136719 352.125 86.980469 352.078125 88.640625 351.328125 C 92.125 349.761719 93.710938 345.582031 92.171875 342.015625 C 91.421875 340.273438 90.054688 338.945312 88.316406 338.269531 C 87.523438 337.960938 86.699219 337.808594 85.878906 337.808594 Z M 85.882812 354.113281 C 84.789062 354.113281 83.699219 353.90625 82.648438 353.503906 C 80.363281 352.613281 78.5625 350.867188 77.578125 348.582031 C 75.574219 343.925781 77.65625 338.464844 82.21875 336.414062 C 84.414062 335.425781 86.863281 335.359375 89.109375 336.230469 C 91.394531 337.121094 93.195312 338.867188 94.179688 341.152344 C 96.183594 345.808594 94.101562 351.269531 89.539062 353.324219 C 88.367188 353.847656 87.125 354.113281 85.882812 354.113281 " fill-opacity="1" fill-rule="nonzero"/><path fill="#ffffff" d="M 100.613281 359.234375 C 98.75 360.070312 97.90625 362.3125 98.730469 364.222656 C 99.128906 365.15625 99.859375 365.867188 100.789062 366.230469 C 101.6875 366.574219 102.671875 366.550781 103.558594 366.15625 C 105.421875 365.316406 106.269531 363.078125 105.445312 361.164062 C 105.042969 360.234375 104.3125 359.519531 103.386719 359.160156 C 102.484375 358.808594 101.5 358.835938 100.613281 359.234375 Z M 102.089844 368.660156 C 101.382812 368.660156 100.675781 368.527344 99.996094 368.261719 C 98.519531 367.6875 97.359375 366.5625 96.722656 365.089844 C 95.429688 362.085938 96.773438 358.566406 99.71875 357.242188 C 101.140625 356.601562 102.722656 356.558594 104.175781 357.125 C 105.652344 357.699219 106.816406 358.824219 107.449219 360.300781 C 108.742188 363.300781 107.398438 366.824219 104.453125 368.148438 C 103.695312 368.488281 102.894531 368.660156 102.089844 368.660156 " fill-opacity="1" fill-rule="nonzero"/><path fill="#ffffff" d="M 352.191406 131.972656 C 352.089844 131.972656 351.988281 131.957031 351.886719 131.929688 C 301.199219 117.378906 240.074219 131.796875 239.464844 131.941406 C 238.878906 132.082031 238.285156 131.71875 238.148438 131.136719 C 238.007812 130.550781 238.367188 129.957031 238.953125 129.816406 C 239.570312 129.667969 301.25 115.121094 352.492188 129.832031 C 353.066406 129.996094 353.40625 130.601562 353.234375 131.179688 C 353.101562 131.660156 352.664062 131.972656 352.191406 131.972656 " fill-opacity="1" fill-rule="nonzero"/><path fill="#ffffff" d="M 239.210938 139.253906 C 238.714844 139.253906 238.269531 138.917969 238.148438 138.417969 C 238.007812 137.832031 238.367188 137.242188 238.957031 137.101562 C 239.195312 137.042969 263.414062 131.285156 293.761719 130.566406 C 294.339844 130.566406 294.863281 131.03125 294.878906 131.636719 C 294.894531 132.238281 294.414062 132.738281 293.8125 132.753906 C 263.710938 133.464844 239.703125 139.167969 239.46875 139.222656 C 239.378906 139.246094 239.292969 139.253906 239.210938 139.253906 " fill-opacity="1" fill-rule="nonzero"/><path fill="#ffffff" d="M 304.53125 131.601562 L 304.628906 137.90625 L 309.699219 134.34375 C 308.460938 133.652344 306.574219 132.621094 304.53125 131.601562 Z M 303.570312 141.074219 C 303.402344 141.074219 303.230469 141.035156 303.074219 140.957031 C 302.714844 140.769531 302.484375 140.402344 302.476562 140 L 302.320312 129.859375 C 302.3125 129.480469 302.503906 129.125 302.820312 128.921875 C 303.136719 128.71875 303.539062 128.695312 303.878906 128.855469 C 308.140625 130.875 312.246094 133.28125 312.285156 133.304688 C 312.605469 133.492188 312.8125 133.828125 312.828125 134.199219 C 312.839844 134.574219 312.667969 134.925781 312.363281 135.144531 L 304.195312 140.878906 C 304.007812 141.007812 303.789062 141.074219 303.570312 141.074219 " fill-opacity="1" fill-rule="nonzero"/></svg>