<svg xmlns="http://www.w3.org/2000/svg" xmlns:xlink="http://www.w3.org/1999/xlink" width="869" zoomAndPan="magnify" viewBox="0 0 651.75 850.499975" height="1133" preserveAspectRatio="xMidYMid meet" version="1.0"><path fill="#caddff" d="M 604.882812 619.613281 C 557.785156 698.800781 468.726562 717.804688 435.140625 724.972656 C 320.835938 749.371094 152 718.664062 71.089844 582.96875 C 0.078125 463.875 40.5 337.203125 46.351562 319.835938 C 56.164062 290.714844 80.726562 220.871094 149.675781 173.792969 C 257.015625 100.511719 420.039062 117.800781 475.511719 194.203125 C 501.558594 230.089844 480.273438 246.488281 510.515625 309.867188 C 551.019531 394.746094 601.78125 392.945312 625.117188 460.859375 C 651.460938 537.53125 609.238281 612.296875 604.882812 619.613281 " fill-opacity="1" fill-rule="nonzero"/><path fill="#99b9ff" d="M 62.742188 564.9375 C 62.742188 564.9375 17.070312 492.398438 32.964844 419.117188 C 33.5 416.652344 41.925781 419.71875 42.578125 417.265625 C 43.089844 415.320312 36.285156 405.742188 36.878906 403.804688 C 40.503906 391.933594 45.589844 380.277344 52.503906 369.183594 C 52.832031 368.65625 53.5625 368.550781 54.023438 368.96875 C 62.035156 376.160156 90.242188 444.441406 88.605469 575.679688 L 62.742188 564.9375 " fill-opacity="1" fill-rule="nonzero"/><path fill="#5479f7" d="M 57.507812 506.925781 C 56.964844 506.925781 56.492188 506.519531 56.425781 505.96875 L 56.222656 504.339844 C 48.648438 443.472656 48.648438 443.472656 51.75 394.339844 L 52.320312 385.277344 C 52.359375 384.671875 52.875 384.210938 53.480469 384.253906 C 54.085938 384.289062 54.542969 384.808594 54.503906 385.410156 L 53.9375 394.476562 C 50.847656 443.40625 50.847656 443.40625 58.394531 504.074219 L 58.597656 505.695312 C 58.671875 506.296875 58.246094 506.84375 57.644531 506.921875 C 57.601562 506.925781 57.554688 506.925781 57.507812 506.925781 " fill-opacity="1" fill-rule="nonzero"/><path fill="#99b9ff" d="M 62.742188 569.808594 C 62.742188 569.808594 41.925781 519.640625 93.210938 425.722656 C 94.859375 422.707031 107.359375 433.921875 110.28125 430.191406 C 113.207031 426.464844 104.601562 410.199219 107.835938 405.738281 C 115.203125 395.578125 123.820312 381.410156 124.816406 366.992188 C 124.890625 365.90625 126.273438 365.496094 126.914062 366.382812 C 129.230469 369.558594 133.304688 375.671875 137.742188 384.785156 C 138.542969 386.433594 134.222656 396.058594 135.042969 397.90625 C 136.023438 400.117188 142.144531 394.589844 143.121094 397.082031 C 146.785156 406.421875 150.324219 417.75 153.007812 431.105469 C 153.699219 434.558594 140.507812 444.617188 141.074219 448.34375 C 141.613281 451.886719 156.007812 451.984375 156.40625 455.777344 C 161.109375 500.382812 143.359375 560.253906 109.464844 639.910156 L 62.742188 569.808594 " fill-opacity="1" fill-rule="nonzero"/><path fill="#5479f7" d="M 92.429688 565.542969 C 92.347656 565.542969 92.257812 565.535156 92.167969 565.515625 C 91.582031 565.367188 91.222656 564.777344 91.367188 564.1875 C 91.597656 563.257812 114.382812 470.515625 122.1875 440.074219 C 127.808594 418.144531 127.007812 377.921875 126.996094 377.515625 C 126.984375 376.914062 127.464844 376.410156 128.070312 376.398438 C 128.6875 376.378906 129.175781 376.863281 129.1875 377.46875 C 129.195312 377.875 130.003906 418.402344 124.308594 440.621094 C 116.507812 471.050781 93.722656 563.777344 93.492188 564.710938 C 93.371094 565.210938 92.925781 565.542969 92.429688 565.542969 " fill-opacity="1" fill-rule="nonzero"/><path fill="#5479f7" d="M 101.003906 485.222656 C 100.519531 485.222656 100.074219 484.894531 99.945312 484.402344 C 95.730469 468.097656 86.949219 457.144531 86.863281 457.035156 C 86.480469 456.566406 86.550781 455.875 87.023438 455.496094 C 87.492188 455.117188 88.179688 455.1875 88.5625 455.65625 C 88.933594 456.117188 97.734375 467.089844 102.066406 483.851562 C 102.21875 484.4375 101.867188 485.035156 101.28125 485.1875 C 101.1875 485.210938 101.097656 485.222656 101.003906 485.222656 " fill-opacity="1" fill-rule="nonzero"/><path fill="#5479f7" d="M 581.011719 710.382812 L 151.730469 709.015625 C 143.605469 709.015625 137.167969 702.15625 137.6875 694.042969 L 172.855469 142.160156 C 173.328125 134.75 179.476562 128.980469 186.898438 128.980469 L 617.273438 127.652344 C 625.402344 127.652344 632.992188 135.84375 632.476562 143.953125 L 597.308594 695.835938 C 596.835938 703.246094 588.4375 710.382812 581.011719 710.382812 " fill-opacity="1" fill-rule="nonzero"/><path fill="#ffffff" d="M 568.816406 709.015625 L 137.277344 709.015625 C 129.15625 709.015625 122.714844 702.15625 123.234375 694.042969 L 158.402344 142.160156 C 158.875 134.75 165.023438 128.976562 172.449219 128.976562 L 603.984375 128.976562 C 612.105469 128.976562 618.546875 135.839844 618.03125 143.953125 L 582.859375 695.835938 C 582.386719 703.246094 576.234375 709.015625 568.816406 709.015625 " fill-opacity="1" fill-rule="nonzero"/><path fill="#000000" d="M 568.808594 710.109375 L 148.574219 710.109375 C 147.96875 710.109375 147.480469 709.621094 147.480469 709.015625 C 147.480469 708.414062 147.96875 707.921875 148.574219 707.921875 L 568.808594 707.921875 C 575.640625 707.921875 581.332031 702.582031 581.761719 695.765625 L 616.933594 143.882812 C 617.167969 140.265625 615.925781 136.820312 613.445312 134.171875 C 610.964844 131.53125 607.605469 130.074219 603.980469 130.074219 L 172.449219 130.074219 C 165.621094 130.074219 159.929688 135.414062 159.496094 142.230469 L 150.050781 290.460938 C 150.011719 291.0625 149.484375 291.527344 148.886719 291.484375 C 148.285156 291.445312 147.824219 290.921875 147.863281 290.320312 L 157.3125 142.089844 C 157.816406 134.125 164.46875 127.882812 172.449219 127.882812 L 603.980469 127.882812 C 608.214844 127.882812 612.148438 129.585938 615.042969 132.675781 C 617.941406 135.765625 619.390625 139.796875 619.121094 144.023438 L 583.953125 695.90625 C 583.441406 703.871094 576.789062 710.109375 568.808594 710.109375 " fill-opacity="1" fill-rule="nonzero"/><path fill="#caddff" d="M 553.378906 691.160156 L 152.878906 691.160156 C 145.421875 691.160156 139.515625 684.863281 139.992188 677.425781 L 173.230469 157.054688 C 173.660156 150.253906 179.300781 144.960938 186.117188 144.960938 L 586.617188 144.960938 C 594.074219 144.960938 599.980469 151.257812 599.503906 158.699219 L 566.269531 679.070312 C 565.835938 685.867188 560.191406 691.160156 553.378906 691.160156 " fill-opacity="1" fill-rule="nonzero"/><path fill="#99b9ff" d="M 208.144531 210.007812 L 555.628906 209.320312 C 562.160156 209.308594 567.34375 214.820312 566.925781 221.34375 L 538.945312 659.960938 C 538.570312 665.890625 533.664062 670.511719 527.726562 670.542969 L 180.445312 672.226562 C 173.90625 672.257812 168.707031 666.746094 169.121094 660.214844 L 196.890625 220.59375 C 197.265625 214.652344 202.191406 210.019531 208.144531 210.007812 " fill-opacity="1" fill-rule="nonzero"/><path fill="#99b9ff" d="M 597.199219 194.804688 L 599.503906 158.738281 C 599.984375 151.296875 594.074219 145.035156 586.617188 145.035156 L 186.117188 145.035156 C 179.300781 145.035156 173.660156 150.292969 173.230469 157.09375 L 170.726562 196.222656 L 597.199219 194.804688 " fill-opacity="1" fill-rule="nonzero"/><path fill="#5479f7" d="M 218.972656 172.542969 C 218.972656 179.261719 213.527344 184.714844 206.804688 184.714844 C 200.085938 184.714844 194.636719 179.261719 194.636719 172.542969 C 194.636719 165.824219 200.085938 160.371094 206.804688 160.371094 C 213.527344 160.371094 218.972656 165.824219 218.972656 172.542969 " fill-opacity="1" fill-rule="nonzero"/><path fill="#5479f7" d="M 255.476562 173.027344 C 255.476562 179.75 250.027344 185.199219 243.308594 185.199219 C 236.589844 185.199219 231.140625 179.75 231.140625 173.027344 C 231.140625 166.308594 236.589844 160.855469 243.308594 160.855469 C 250.027344 160.855469 255.476562 166.308594 255.476562 173.027344 " fill-opacity="1" fill-rule="nonzero"/><path fill="#5479f7" d="M 293.195312 172.785156 C 293.195312 179.507812 287.746094 184.957031 281.027344 184.957031 C 274.308594 184.957031 268.859375 179.507812 268.859375 172.785156 C 268.859375 166.0625 274.308594 160.613281 281.027344 160.613281 C 287.746094 160.613281 293.195312 166.0625 293.195312 172.785156 " fill-opacity="1" fill-rule="nonzero"/><path fill="#5479f7" d="M 363.5625 160.835938 L 555.015625 159.914062 C 558.078125 159.898438 560.523438 162.449219 560.394531 165.503906 L 559.882812 177.203125 C 559.757812 180.050781 557.429688 182.300781 554.585938 182.328125 L 362.585938 184.171875 C 359.433594 184.203125 356.9375 181.515625 357.195312 178.371094 L 358.246094 165.746094 C 358.484375 162.980469 360.785156 160.847656 363.5625 160.835938 " fill-opacity="1" fill-rule="nonzero"/><path fill="#caddff" d="M 357.191406 383.421875 L 212.5625 382.417969 C 208.175781 382.386719 204.71875 378.679688 204.992188 374.304688 L 211.339844 271.992188 C 211.589844 267.964844 214.929688 264.828125 218.964844 264.828125 L 364.234375 264.800781 C 368.652344 264.800781 372.152344 268.546875 371.855469 272.960938 L 364.863281 376.292969 C 364.585938 380.324219 361.226562 383.445312 357.191406 383.421875 " fill-opacity="1" fill-rule="nonzero"/><path fill="#caddff" d="M 530.667969 383.074219 L 387.644531 382.082031 C 382.152344 382.042969 377.835938 377.378906 378.210938 371.902344 L 384.933594 273.703125 C 385.277344 268.695312 389.445312 264.8125 394.464844 264.824219 L 537.285156 265.128906 C 542.789062 265.140625 547.136719 269.796875 546.773438 275.289062 L 540.246094 374.167969 C 539.910156 379.203125 535.710938 383.105469 530.667969 383.074219 " fill-opacity="1" fill-rule="nonzero"/><path fill="#caddff" d="M 532.5625 251.175781 L 396.53125 251.417969 C 394.746094 251.421875 393.332031 249.652344 393.457031 247.5625 L 394.335938 232.398438 C 394.445312 230.503906 395.785156 229.035156 397.40625 229.03125 L 533.433594 228.789062 C 535.21875 228.785156 536.628906 230.558594 536.507812 232.648438 L 535.625 247.808594 C 535.515625 249.707031 534.179688 251.175781 532.5625 251.175781 " fill-opacity="1" fill-rule="nonzero"/><path fill="#caddff" d="M 363.945312 251.175781 L 227.914062 251.421875 C 226.128906 251.425781 224.714844 249.648438 224.835938 247.5625 L 225.71875 232.398438 C 225.828125 230.5 227.167969 229.03125 228.785156 229.027344 L 364.8125 228.785156 C 366.597656 228.78125 368.011719 230.554688 367.890625 232.648438 L 367.007812 247.808594 C 366.898438 249.703125 365.5625 251.175781 363.945312 251.175781 " fill-opacity="1" fill-rule="nonzero"/><path fill="#caddff" d="M 534.070312 435.316406 L 202.398438 435.679688 C 201.550781 435.679688 200.878906 434.960938 200.933594 434.117188 L 202.066406 416.59375 C 202.117188 415.824219 202.757812 415.226562 203.53125 415.226562 L 535.277344 415.410156 C 536.128906 415.410156 536.800781 416.132812 536.738281 416.980469 L 535.53125 433.953125 C 535.472656 434.71875 534.839844 435.316406 534.070312 435.316406 " fill-opacity="1" fill-rule="nonzero"/><path fill="#caddff" d="M 530.703125 468.179688 L 202.910156 468.660156 C 201.132812 468.660156 199.722656 467.160156 199.835938 465.386719 L 200.777344 450.738281 C 200.882812 449.113281 202.226562 447.851562 203.851562 447.855469 L 531.667969 448.457031 C 533.449219 448.460938 534.855469 449.972656 534.726562 451.75 L 533.761719 465.324219 C 533.652344 466.929688 532.3125 468.175781 530.703125 468.179688 " fill-opacity="1" fill-rule="nonzero"/><path fill="#caddff" d="M 528.601562 501.769531 L 200.613281 502.132812 C 198.933594 502.132812 197.597656 500.726562 197.675781 499.050781 L 198.394531 484.480469 C 198.472656 482.914062 199.765625 481.6875 201.332031 481.691406 L 529.371094 482.226562 C 531.050781 482.226562 532.390625 483.644531 532.296875 485.328125 L 531.53125 498.996094 C 531.441406 500.550781 530.160156 501.765625 528.601562 501.769531 " fill-opacity="1" fill-rule="nonzero"/><path fill="#caddff" d="M 527.597656 535.347656 L 197.519531 535.722656 C 196.355469 535.722656 195.425781 534.738281 195.496094 533.574219 L 196.472656 517.183594 C 196.535156 516.113281 197.421875 515.277344 198.496094 515.28125 L 528.664062 515.757812 C 529.835938 515.761719 530.757812 516.753906 530.679688 517.925781 L 529.613281 533.460938 C 529.539062 534.519531 528.65625 535.347656 527.597656 535.347656 " fill-opacity="1" fill-rule="nonzero"/><path fill="#caddff" d="M 524.550781 587.820312 L 193.738281 588.417969 C 192.644531 588.421875 191.773438 587.5 191.835938 586.402344 L 192.828125 569.648438 C 192.886719 568.640625 193.722656 567.855469 194.730469 567.855469 L 525.632812 568.21875 C 526.730469 568.21875 527.601562 569.152344 527.527344 570.25 L 526.445312 586.042969 C 526.378906 587.042969 525.550781 587.816406 524.550781 587.820312 " fill-opacity="1" fill-rule="nonzero"/><path fill="#caddff" d="M 522.097656 620.800781 L 191.855469 621.402344 C 190.660156 621.40625 189.714844 620.398438 189.789062 619.203125 L 190.863281 602.53125 C 190.933594 601.441406 191.835938 600.597656 192.925781 600.601562 L 523.253906 601.078125 C 524.453125 601.082031 525.398438 602.101562 525.308594 603.296875 L 524.152344 618.890625 C 524.070312 619.96875 523.175781 620.800781 522.097656 620.800781 " fill-opacity="1" fill-rule="nonzero"/><path fill="#caddff" d="M 519.609375 653.664062 L 190.394531 654.023438 C 188.875 654.023438 187.671875 652.734375 187.78125 651.21875 L 188.867188 636.011719 C 188.964844 634.640625 190.105469 633.578125 191.480469 633.578125 L 520.503906 633.941406 C 522.007812 633.941406 523.203125 635.214844 523.109375 636.71875 L 522.21875 651.207031 C 522.132812 652.585938 520.992188 653.660156 519.609375 653.664062 " fill-opacity="1" fill-rule="nonzero"/><path fill="#5479f7" d="M 489.3125 356.925781 C 489.3125 395.949219 457.6875 427.578125 418.679688 427.578125 C 379.675781 427.578125 348.054688 395.949219 348.054688 356.925781 C 348.054688 317.910156 379.675781 286.277344 418.679688 286.277344 C 457.6875 286.277344 489.3125 317.910156 489.3125 356.925781 " fill-opacity="1" fill-rule="nonzero"/><path fill="#000000" d="M 418.679688 287.375 C 380.339844 287.375 349.148438 318.578125 349.148438 356.929688 C 349.148438 395.28125 380.339844 426.480469 418.679688 426.480469 C 457.023438 426.480469 488.214844 395.28125 488.214844 356.929688 C 488.214844 318.578125 457.023438 287.375 418.679688 287.375 Z M 418.679688 428.675781 C 379.132812 428.675781 346.960938 396.488281 346.960938 356.929688 C 346.960938 317.367188 379.132812 285.1875 418.679688 285.1875 C 458.230469 285.1875 490.40625 317.367188 490.40625 356.929688 C 490.40625 396.488281 458.230469 428.675781 418.679688 428.675781 " fill-opacity="1" fill-rule="nonzero"/><path fill="#ffffff" d="M 373.582031 356.8125 L 397.636719 365.949219 L 397.636719 375.863281 L 363.507812 360.648438 L 363.507812 352.777344 L 397.636719 337.601562 L 397.636719 347.515625 L 373.582031 356.8125 " fill-opacity="1" fill-rule="nonzero"/><path fill="#ffffff" d="M 411.253906 387.648438 L 403.46875 387.648438 L 426.832031 323.167969 L 434.621094 323.167969 L 411.253906 387.648438 " fill-opacity="1" fill-rule="nonzero"/><path fill="#ffffff" d="M 466.835938 356.609375 L 441.640625 347.351562 L 441.640625 337.601562 L 476.863281 352.773438 L 476.863281 360.648438 L 441.640625 375.820312 L 441.640625 366.070312 L 466.835938 356.609375 " fill-opacity="1" fill-rule="nonzero"/><path fill="#000000" d="M 500.042969 721.113281 L 399.753906 721.113281 L 519.929688 606.738281 C 523.683594 603.164062 528.597656 601 532.949219 601 L 614.339844 601 C 619.507812 601 620.429688 606.53125 615.96875 610.777344 L 500.042969 721.113281 " fill-opacity="1" fill-rule="nonzero"/><path fill="#caddff" d="M 553.492188 641.105469 C 548.226562 646.117188 539.589844 650.179688 534.203125 650.179688 C 528.816406 650.179688 528.722656 646.117188 533.988281 641.105469 C 539.253906 636.089844 547.890625 632.027344 553.277344 632.027344 C 558.664062 632.027344 558.761719 636.089844 553.492188 641.105469 " fill-opacity="1" fill-rule="nonzero"/><path fill="#000000" d="M 498.554688 732.398438 L 284.359375 732.398438 C 282.261719 732.398438 280.5625 730.699219 280.5625 728.597656 L 280.5625 720.144531 L 502.351562 720.144531 L 502.351562 728.597656 C 502.351562 730.699219 500.652344 732.398438 498.554688 732.398438 " fill-opacity="1" fill-rule="nonzero"/><path fill="#ffffff" d="M 495.765625 722.332031 L 393.992188 722.332031 C 393.386719 722.332031 392.894531 721.84375 392.894531 721.234375 C 392.894531 720.632812 393.386719 720.140625 393.992188 720.140625 L 495.765625 720.140625 C 496.367188 720.140625 496.855469 720.632812 496.855469 721.234375 C 496.855469 721.84375 496.367188 722.332031 495.765625 722.332031 " fill-opacity="1" fill-rule="nonzero"/><path fill="#000000" d="M 193.226562 520.96875 C 193.226562 520.96875 172.480469 501.777344 164.867188 497.3125 C 157.253906 492.847656 147.773438 474.535156 173.355469 463.320312 C 181.648438 459.683594 183.277344 449.613281 199.246094 447.894531 C 215.214844 446.171875 228.476562 454.277344 230.195312 464.351562 C 231.917969 474.425781 222.367188 483.148438 215.230469 484.3125 C 208.09375 485.480469 193.226562 520.96875 193.226562 520.96875 " fill-opacity="1" fill-rule="nonzero"/><path fill="#ffffff" d="M 229.289062 497.292969 L 231.511719 494.078125 L 222.71875 482.820312 L 216.6875 468.035156 C 199.652344 466.882812 192.824219 471.539062 192.601562 484.609375 C 192.457031 492.992188 188.046875 493.1875 188.046875 493.1875 C 188.046875 493.1875 181.566406 486.21875 178.21875 494.488281 C 174.867188 502.761719 188.796875 508.511719 188.796875 508.511719 C 190.605469 512.332031 190.171875 516.835938 187.667969 520.242188 L 162.890625 553.917969 C 162.890625 553.917969 209.34375 566.222656 209.832031 558.890625 C 209.972656 556.8125 209.265625 555.039062 208.183594 553.5625 C 202.828125 546.265625 212.503906 526.542969 212.503906 526.542969 L 228.007812 520.277344 C 230.851562 519.128906 232.363281 516.015625 231.507812 513.070312 L 228.441406 502.519531 C 227.921875 500.734375 228.234375 498.816406 229.289062 497.292969 " fill-opacity="1" fill-rule="nonzero"/><path fill="#000000" d="M 164.730469 553.265625 C 180.171875 557.257812 204.441406 562.140625 208.429688 559.277344 C 208.726562 559.0625 208.734375 558.894531 208.742188 558.816406 C 208.847656 557.210938 208.363281 555.660156 207.300781 554.210938 C 201.617188 546.472656 211.113281 526.890625 211.519531 526.0625 C 211.636719 525.820312 211.84375 525.628906 212.09375 525.527344 L 227.597656 519.261719 C 229.929688 518.324219 231.15625 515.789062 230.457031 513.375 L 227.390625 502.828125 C 226.777344 500.71875 227.140625 498.472656 228.390625 496.667969 L 230.152344 494.117188 L 221.855469 483.496094 C 221.792969 483.417969 221.742188 483.328125 221.703125 483.234375 L 215.933594 469.089844 C 206.910156 468.546875 201.132812 469.75 197.769531 472.839844 C 195.085938 475.304688 193.789062 479.050781 193.695312 484.632812 C 193.535156 493.929688 188.316406 494.273438 188.09375 494.285156 C 187.777344 494.292969 187.460938 494.171875 187.242188 493.9375 C 186.515625 493.160156 184.199219 491.222656 182.261719 491.582031 C 181.050781 491.808594 180.03125 492.925781 179.234375 494.902344 C 176.328125 502.066406 189.085938 507.441406 189.214844 507.5 C 189.464844 507.601562 189.667969 507.796875 189.785156 508.042969 C 191.769531 512.230469 191.296875 517.15625 188.546875 520.890625 Z M 203.230469 562.273438 C 190.613281 562.277344 165.976562 555.867188 162.609375 554.976562 C 162.261719 554.886719 161.980469 554.625 161.859375 554.28125 C 161.738281 553.941406 161.792969 553.558594 162.007812 553.269531 L 186.785156 519.59375 C 188.972656 516.617188 189.414062 512.726562 187.972656 509.347656 C 185.554688 508.265625 173.789062 502.503906 177.203125 494.078125 C 178.304688 491.359375 179.875 489.792969 181.871094 489.425781 C 184.675781 488.917969 187.347656 491.035156 188.390625 491.996094 C 189.289062 491.667969 191.410156 490.296875 191.503906 484.589844 C 191.609375 478.457031 193.175781 474.085938 196.285156 471.222656 C 200.207031 467.621094 206.714844 466.257812 216.761719 466.945312 C 217.179688 466.972656 217.542969 467.234375 217.703125 467.621094 L 223.675781 482.265625 L 232.375 493.402344 C 232.667969 493.78125 232.683594 494.308594 232.414062 494.699219 L 230.1875 497.914062 C 229.320312 499.175781 229.066406 500.742188 229.492188 502.210938 L 232.558594 512.761719 C 233.574219 516.261719 231.796875 519.929688 228.417969 521.292969 L 213.304688 527.402344 C 210.617188 533.023438 205.089844 547.5 209.066406 552.914062 C 210.441406 554.789062 211.070312 556.828125 210.925781 558.964844 C 210.886719 559.542969 210.644531 560.382812 209.707031 561.054688 C 208.503906 561.917969 206.199219 562.273438 203.230469 562.273438 " fill-opacity="1" fill-rule="nonzero"/><path fill="#000000" d="M 189.289062 482.164062 L 201.074219 498.105469 C 206.074219 504.871094 215.222656 507.027344 222.714844 503.210938 L 229.113281 499.945312 L 240.9375 521.722656 C 242.203125 524.820312 240.5625 528.339844 237.375 529.363281 L 220.191406 536.492188 C 215.277344 538.0625 209.902344 536.738281 206.28125 533.070312 L 187.804688 514.335938 C 187.804688 514.335938 194.808594 507.835938 188.046875 493.1875 C 181.28125 478.546875 189.289062 482.164062 189.289062 482.164062 " fill-opacity="1" fill-rule="nonzero"/><path fill="#5479f7" d="M 387.710938 530.339844 L 354.054688 535.269531 C 354.054688 535.269531 340.398438 587.722656 306.148438 589.445312 C 289.671875 590.269531 277.203125 585.136719 268.703125 579.589844 C 255.828125 571.183594 241.136719 565.992188 225.816406 564.730469 L 164.265625 559.660156 C 130.25 556.859375 97.824219 574.574219 81.835938 604.738281 C 64.742188 636.992188 43.550781 680.011719 30.027344 718.28125 C 27.535156 725.339844 32.730469 732.75 40.214844 732.75 L 203.546875 732.75 L 239.484375 642.730469 C 257.390625 650.355469 284.984375 657.085938 323.742188 653.515625 C 405.679688 645.964844 387.710938 530.339844 387.710938 530.339844 " fill-opacity="1" fill-rule="nonzero"/><path fill="#000000" d="M 157.203125 560.46875 C 126.183594 560.46875 97.507812 577.515625 82.804688 605.25 C 66.828125 635.394531 44.878906 679.539062 31.058594 718.648438 C 29.988281 721.683594 30.433594 724.925781 32.289062 727.550781 C 34.132812 730.15625 37.019531 731.652344 40.214844 731.652344 L 202.808594 731.652344 L 238.46875 642.328125 C 238.578125 642.054688 238.792969 641.835938 239.066406 641.722656 C 239.339844 641.605469 239.644531 641.609375 239.914062 641.726562 C 256.128906 648.632812 283.824219 656.09375 323.640625 652.425781 C 342.707031 650.667969 357.839844 642.769531 368.621094 628.945312 C 394.082031 596.296875 387.886719 540.050781 386.777344 531.582031 L 354.917969 536.25 C 354.082031 539.171875 350.5625 550.703125 343.894531 562.261719 C 333.628906 580.035156 320.59375 589.816406 306.203125 590.539062 C 292.199219 591.242188 279.378906 587.867188 268.105469 580.507812 C 255.265625 572.128906 240.613281 567.050781 225.726562 565.820312 L 164.175781 560.753906 C 161.84375 560.558594 159.515625 560.46875 157.203125 560.46875 Z M 203.546875 733.84375 L 40.214844 733.84375 C 36.300781 733.84375 32.757812 732.011719 30.5 728.816406 C 28.230469 725.605469 27.683594 721.632812 28.996094 717.921875 C 42.859375 678.679688 64.859375 634.433594 80.871094 604.226562 C 97.078125 573.648438 129.851562 555.734375 164.355469 558.570312 L 225.90625 563.640625 C 241.152344 564.894531 256.15625 570.09375 269.300781 578.671875 C 280.179688 585.773438 292.558594 589.03125 306.09375 588.351562 C 339.144531 586.691406 352.859375 535.507812 352.992188 534.992188 C 353.105469 534.566406 353.460938 534.25 353.894531 534.1875 L 387.550781 529.253906 C 388.148438 529.171875 388.703125 529.578125 388.789062 530.171875 C 388.816406 530.332031 391.257812 546.335938 390.214844 566.535156 C 389.25 585.234375 385.023438 611.46875 370.351562 630.285156 C 359.179688 644.609375 343.53125 652.792969 323.84375 654.605469 C 284.398438 658.238281 256.667969 651.054688 240.089844 644.175781 L 204.566406 733.152344 C 204.398438 733.570312 203.996094 733.84375 203.546875 733.84375 " fill-opacity="1" fill-rule="nonzero"/><path fill="#5479f7" d="M 246.1875 660.660156 C 220.742188 652.234375 206.996094 612.667969 206.996094 612.667969 L 132.070312 627.761719 C 132.070312 627.761719 184 710.660156 219.789062 718.25 C 242.09375 722.984375 286.910156 701.933594 317.515625 685.402344 C 313.59375 676.722656 307.953125 664.273438 303.769531 655.113281 C 281.394531 660.550781 257.742188 664.488281 246.1875 660.660156 " fill-opacity="1" fill-rule="nonzero"/><path fill="#000000" d="M 226.90625 720.023438 C 224.261719 720.023438 221.804688 719.796875 219.5625 719.320312 C 183.730469 711.722656 133.273438 631.75 131.140625 628.34375 C 130.820312 627.832031 130.976562 627.15625 131.488281 626.835938 C 132 626.515625 132.675781 626.671875 132.996094 627.179688 C 133.515625 628.007812 185.089844 709.769531 220.019531 717.179688 C 241.402344 721.714844 283.871094 702.265625 316.097656 684.921875 C 312.269531 676.449219 307.101562 665.042969 303.144531 656.386719 C 274.976562 663.179688 255.699219 664.96875 245.84375 661.703125 C 220.179688 653.199219 206.53125 614.667969 205.960938 613.03125 C 205.761719 612.457031 206.066406 611.835938 206.636719 611.636719 C 207.207031 611.441406 207.832031 611.742188 208.03125 612.3125 C 208.167969 612.703125 221.898438 651.464844 246.535156 659.621094 C 255.957031 662.742188 275.660156 660.816406 303.507812 654.046875 C 304.015625 653.925781 304.542969 654.175781 304.761719 654.65625 C 308.90625 663.71875 314.527344 676.132812 318.511719 684.949219 C 318.75 685.472656 318.542969 686.089844 318.039062 686.363281 C 288.675781 702.222656 250.472656 720.023438 226.90625 720.023438 " fill-opacity="1" fill-rule="nonzero"/><path fill="#ffffff" d="M 398.902344 663.863281 L 364.222656 644.589844 C 358.867188 641.613281 352.523438 640.984375 346.695312 642.867188 C 337.023438 645.984375 320.761719 650.980469 303.769531 655.113281 C 307.953125 664.273438 313.59375 676.722656 317.515625 685.402344 C 336.019531 675.402344 349.328125 667.058594 349.328125 667.058594 L 371.71875 678.855469 C 371.71875 678.855469 370.46875 698.515625 374.914062 699.054688 C 379.363281 699.59375 381.03125 681.460938 381.03125 681.460938 C 381.03125 681.460938 384.851562 703.972656 391.457031 699.054688 L 393.992188 671.859375 C 393.992188 671.859375 398.375 683.902344 400.890625 684.402344 C 403.402344 684.898438 403.402344 684.898438 403.402344 684.898438 L 398.902344 663.863281 " fill-opacity="1" fill-rule="nonzero"/><path fill="#000000" d="M 381.035156 680.363281 C 381.5625 680.363281 382.023438 680.746094 382.113281 681.273438 C 383.132812 687.289062 385.917969 697.300781 389.039062 698.550781 C 389.359375 698.675781 389.792969 698.765625 390.417969 698.429688 L 392.898438 671.757812 C 392.945312 671.246094 393.34375 670.839844 393.847656 670.773438 C 394.363281 670.707031 394.84375 671.003906 395.019531 671.484375 C 397.226562 677.539062 400.015625 682.96875 401.117188 683.332031 L 401.984375 683.503906 L 397.9375 664.578125 L 363.691406 645.542969 C 358.617188 642.722656 352.542969 642.128906 347.027344 643.90625 C 336.890625 647.179688 321.527344 651.871094 305.3125 655.859375 C 309.222656 664.421875 314.261719 675.542969 318.03125 683.875 C 335.757812 674.261719 348.617188 666.214844 348.746094 666.132812 C 349.078125 665.925781 349.496094 665.910156 349.835938 666.089844 L 372.226562 677.886719 C 372.609375 678.085938 372.839844 678.492188 372.808594 678.925781 C 372.179688 688.847656 373.226562 697.746094 375.046875 697.96875 C 375.117188 697.972656 375.292969 697.996094 375.589844 697.757812 C 377.828125 695.953125 379.449219 686.742188 379.945312 681.355469 C 379.992188 680.8125 380.441406 680.386719 380.992188 680.363281 C 381.003906 680.363281 381.019531 680.363281 381.035156 680.363281 Z M 389.589844 700.851562 C 389.058594 700.851562 388.59375 700.734375 388.222656 700.582031 C 384.914062 699.253906 382.613281 692.804688 381.289062 687.765625 C 380.519531 692.21875 379.160156 697.691406 376.96875 699.460938 C 376.125 700.140625 375.316406 700.203125 374.785156 700.140625 C 369.933594 699.550781 370.273438 685.019531 370.582031 679.496094 L 349.371094 668.320312 C 346.695312 669.976562 334.296875 677.582031 318.039062 686.363281 C 317.769531 686.507812 317.453125 686.535156 317.167969 686.4375 C 316.875 686.339844 316.644531 686.128906 316.519531 685.851562 C 312.53125 677.039062 306.910156 664.625 302.769531 655.566406 C 302.632812 655.265625 302.636719 654.925781 302.777344 654.632812 C 302.925781 654.339844 303.191406 654.125 303.507812 654.046875 C 320.132812 650.003906 335.984375 645.167969 346.355469 641.820312 C 352.445312 639.855469 359.152344 640.515625 364.753906 643.628906 L 399.4375 662.902344 C 399.714844 663.058594 399.910156 663.324219 399.976562 663.632812 L 404.476562 684.671875 C 404.554688 685.03125 404.445312 685.40625 404.183594 685.667969 C 403.925781 685.929688 403.554688 686.042969 403.191406 685.972656 L 400.675781 685.476562 C 398.683594 685.082031 396.339844 680.523438 394.652344 676.542969 L 392.546875 699.15625 C 392.519531 699.464844 392.359375 699.746094 392.109375 699.933594 C 391.183594 700.625 390.324219 700.851562 389.589844 700.851562 " fill-opacity="1" fill-rule="nonzero"/><path fill="#5479f7" d="M 222.144531 567.5625 L 223.675781 558.285156 C 224.183594 555.1875 222.171875 552.238281 219.101562 551.589844 C 203.789062 548.363281 161.347656 539.164062 155.820312 535.269531 C 149.0625 530.503906 100.113281 576.632812 107.449219 575.425781 C 162.09375 566.414062 222.144531 567.5625 222.144531 567.5625 " fill-opacity="1" fill-rule="nonzero"/><path fill="#000000" d="M 154.523438 536.023438 C 153.988281 536.023438 153.070312 536.183594 151.5625 536.839844 C 138.996094 542.277344 111.753906 568.308594 108.179688 574.195312 C 158.328125 566.039062 213.359375 566.355469 221.21875 566.453125 L 222.59375 558.105469 C 223.007812 555.582031 221.375 553.1875 218.875 552.664062 C 201.59375 549.019531 160.800781 540.121094 155.191406 536.164062 C 155.132812 536.125 154.945312 536.023438 154.523438 536.023438 Z M 107.195312 576.542969 C 106.25 576.542969 105.871094 575.960938 105.746094 575.683594 C 105.390625 574.90625 104.800781 573.605469 113.601562 564.585938 C 118.734375 559.328125 125.554688 553.070312 131.84375 547.855469 C 145.175781 536.792969 153.453125 532.257812 156.453125 534.375 C 160.113281 536.953125 183.617188 542.988281 219.328125 550.519531 C 222.976562 551.289062 225.363281 554.78125 224.753906 558.464844 L 223.226562 567.738281 C 223.136719 568.277344 222.667969 568.660156 222.125 568.660156 C 221.527344 568.648438 161.542969 567.613281 107.628906 576.503906 C 107.472656 576.53125 107.328125 576.542969 107.195312 576.542969 " fill-opacity="1" fill-rule="nonzero"/><path fill="#ffffff" d="M 370.839844 474.945312 C 371.773438 473.078125 376.453125 467.511719 378.582031 465.917969 L 401.074219 444.996094 C 401.074219 444.996094 404 455.074219 400.453125 461.023438 C 407.359375 461.25 412.824219 462.425781 412.824219 462.425781 C 412.824219 462.425781 423.097656 453.371094 425.660156 451.808594 C 428.214844 450.246094 431.558594 447.769531 435 447.816406 C 438.453125 447.863281 441.871094 450.5 441.871094 450.5 L 422.113281 475.550781 L 386.183594 485.441406 L 388.191406 539.9375 L 354.054688 535.269531 L 370.839844 474.945312 " fill-opacity="1" fill-rule="nonzero"/><path fill="#000000" d="M 355.445312 534.355469 L 387.050781 538.679688 L 385.085938 485.484375 C 385.070312 484.976562 385.402344 484.519531 385.890625 484.386719 L 421.472656 474.589844 L 440.28125 450.746094 C 439.121094 450.027344 437.027344 448.9375 434.988281 448.910156 C 432.375 448.851562 429.585938 450.628906 427.359375 452.035156 C 426.96875 452.28125 426.59375 452.523438 426.230469 452.738281 C 424.269531 453.9375 417.078125 460.136719 413.546875 463.246094 C 413.285156 463.480469 412.929688 463.570312 412.59375 463.5 C 412.539062 463.484375 407.136719 462.339844 400.417969 462.113281 C 400.03125 462.101562 399.679688 461.886719 399.492188 461.542969 C 399.308594 461.203125 399.316406 460.789062 399.515625 460.460938 C 401.917969 456.429688 401.066406 450.132812 400.445312 447.078125 L 379.328125 466.71875 C 379.300781 466.746094 379.269531 466.769531 379.238281 466.792969 C 377.285156 468.257812 372.820312 473.550781 371.863281 475.347656 Z M 388.191406 541.03125 C 388.144531 541.03125 388.09375 541.027344 388.046875 541.023438 L 353.90625 536.351562 C 353.589844 536.3125 353.3125 536.132812 353.136719 535.871094 C 352.964844 535.605469 352.914062 535.277344 353 534.972656 L 369.785156 474.648438 C 369.804688 474.582031 369.828125 474.515625 369.859375 474.453125 C 370.859375 472.460938 375.550781 466.847656 377.878906 465.074219 L 400.332031 444.191406 C 400.609375 443.933594 401 443.839844 401.371094 443.941406 C 401.734375 444.039062 402.019531 444.324219 402.128906 444.691406 C 402.242188 445.085938 404.695312 453.730469 402.171875 460 C 407.144531 460.273438 411.101562 460.972656 412.507812 461.246094 C 414.476562 459.519531 422.742188 452.304688 425.089844 450.871094 C 425.441406 450.65625 425.808594 450.425781 426.1875 450.183594 C 428.628906 448.640625 431.660156 446.722656 434.90625 446.722656 C 434.945312 446.722656 434.980469 446.722656 435.015625 446.722656 C 438.789062 446.773438 442.390625 449.515625 442.542969 449.632812 C 442.773438 449.808594 442.921875 450.074219 442.957031 450.367188 C 442.992188 450.65625 442.910156 450.949219 442.730469 451.179688 L 422.972656 476.230469 C 422.828125 476.414062 422.628906 476.542969 422.398438 476.609375 L 387.308594 486.269531 L 389.285156 539.898438 C 389.300781 540.222656 389.167969 540.53125 388.929688 540.75 C 388.722656 540.933594 388.464844 541.03125 388.191406 541.03125 " fill-opacity="1" fill-rule="nonzero"/><path fill="#000000" d="M 122.316406 206.828125 C 122.042969 206.828125 121.765625 206.730469 121.554688 206.527344 C 121.109375 206.105469 121.09375 205.40625 121.511719 204.960938 C 124.523438 201.785156 127.652344 198.625 130.804688 195.570312 C 131.242188 195.144531 131.945312 195.15625 132.367188 195.59375 C 132.792969 196.035156 132.785156 196.734375 132.34375 197.164062 C 129.214844 200.195312 126.109375 203.332031 123.117188 206.488281 C 122.902344 206.710938 122.609375 206.828125 122.316406 206.828125 " fill-opacity="1" fill-rule="nonzero"/><path fill="#000000" d="M 46.75 361.375 C 46.707031 361.375 46.660156 361.371094 46.613281 361.363281 C 46.015625 361.289062 45.585938 360.746094 45.664062 360.144531 C 49.144531 332.105469 57.496094 304.453125 70.484375 277.953125 C 83.390625 251.621094 100.5625 227.070312 121.519531 204.972656 C 121.933594 204.535156 122.628906 204.515625 123.066406 204.929688 C 123.507812 205.351562 123.523438 206.042969 123.109375 206.480469 C 81.4375 250.417969 54.703125 305.082031 47.835938 360.410156 C 47.769531 360.96875 47.296875 361.375 46.75 361.375 " fill-opacity="1" fill-rule="nonzero"/><path fill="#000000" d="M 63.019531 363.601562 C 62.972656 363.601562 62.925781 363.597656 62.878906 363.589844 C 62.28125 363.515625 61.855469 362.96875 61.929688 362.371094 C 67.074219 321.40625 83.425781 280.832031 109.21875 245.035156 C 109.574219 244.539062 110.257812 244.429688 110.746094 244.785156 C 111.238281 245.140625 111.347656 245.824219 110.996094 246.3125 C 85.414062 281.816406 69.199219 322.042969 64.101562 362.640625 C 64.035156 363.195312 63.5625 363.601562 63.019531 363.601562 " fill-opacity="1" fill-rule="nonzero"/><path fill="#000000" d="M 171.277344 432.394531 C 170.671875 432.394531 170.179688 431.902344 170.179688 431.300781 L 170.179688 425.632812 C 170.179688 425.03125 170.671875 424.539062 171.277344 424.539062 C 171.878906 424.539062 172.371094 425.03125 172.371094 425.632812 L 172.371094 431.300781 C 172.371094 431.902344 171.878906 432.394531 171.277344 432.394531 " fill-opacity="1" fill-rule="nonzero"/><path fill="#000000" d="M 171.277344 445.589844 C 170.671875 445.589844 170.179688 445.101562 170.179688 444.496094 L 170.179688 438.832031 C 170.179688 438.226562 170.671875 437.738281 171.277344 437.738281 C 171.878906 437.738281 172.371094 438.226562 172.371094 438.832031 L 172.371094 444.496094 C 172.371094 445.101562 171.878906 445.589844 171.277344 445.589844 " fill-opacity="1" fill-rule="nonzero"/><path fill="#000000" d="M 167.511719 436.164062 L 161.847656 436.164062 C 161.242188 436.164062 160.753906 435.671875 160.753906 435.0625 C 160.753906 434.460938 161.242188 433.96875 161.847656 433.96875 L 167.511719 433.96875 C 168.117188 433.96875 168.605469 434.460938 168.605469 435.0625 C 168.605469 435.671875 168.117188 436.164062 167.511719 436.164062 " fill-opacity="1" fill-rule="nonzero"/><path fill="#000000" d="M 180.707031 436.164062 L 175.039062 436.164062 C 174.4375 436.164062 173.945312 435.671875 173.945312 435.0625 C 173.945312 434.460938 174.4375 433.96875 175.039062 433.96875 L 180.707031 433.96875 C 181.308594 433.96875 181.800781 434.460938 181.800781 435.0625 C 181.800781 435.671875 181.308594 436.164062 180.707031 436.164062 " fill-opacity="1" fill-rule="nonzero"/><path fill="#000000" d="M 188.796875 409.527344 C 188.191406 409.527344 187.703125 409.039062 187.703125 408.433594 L 187.703125 402.765625 C 187.703125 402.164062 188.191406 401.671875 188.796875 401.671875 C 189.402344 401.671875 189.890625 402.164062 189.890625 402.765625 L 189.890625 408.433594 C 189.890625 409.039062 189.402344 409.527344 188.796875 409.527344 " fill-opacity="1" fill-rule="nonzero"/><path fill="#000000" d="M 188.796875 422.726562 C 188.191406 422.726562 187.703125 422.234375 187.703125 421.628906 L 187.703125 415.964844 C 187.703125 415.359375 188.191406 414.867188 188.796875 414.867188 C 189.402344 414.867188 189.890625 415.359375 189.890625 415.964844 L 189.890625 421.628906 C 189.890625 422.234375 189.402344 422.726562 188.796875 422.726562 " fill-opacity="1" fill-rule="nonzero"/><path fill="#000000" d="M 185.03125 413.292969 L 179.371094 413.292969 C 178.765625 413.292969 178.273438 412.800781 178.273438 412.195312 C 178.273438 411.59375 178.765625 411.101562 179.371094 411.101562 L 185.03125 411.101562 C 185.636719 411.101562 186.128906 411.59375 186.128906 412.195312 C 186.128906 412.800781 185.636719 413.292969 185.03125 413.292969 " fill-opacity="1" fill-rule="nonzero"/><path fill="#000000" d="M 198.226562 413.292969 L 192.5625 413.292969 C 191.957031 413.292969 191.464844 412.800781 191.464844 412.195312 C 191.464844 411.59375 191.957031 411.101562 192.5625 411.101562 L 198.226562 411.101562 C 198.832031 411.101562 199.320312 411.59375 199.320312 412.195312 C 199.320312 412.800781 198.832031 413.292969 198.226562 413.292969 " fill-opacity="1" fill-rule="nonzero"/><path fill="#000000" d="M 457.535156 451.96875 C 457.207031 451.96875 456.890625 451.828125 456.675781 451.554688 C 456.300781 451.082031 456.378906 450.390625 456.851562 450.019531 L 508.027344 409.558594 C 508.503906 409.183594 509.191406 409.265625 509.566406 409.742188 C 509.941406 410.210938 509.859375 410.902344 509.386719 411.28125 L 458.210938 451.734375 C 458.011719 451.894531 457.773438 451.96875 457.535156 451.96875 " fill-opacity="1" fill-rule="nonzero"/><path fill="#000000" d="M 466.976562 465.246094 C 466.621094 465.246094 466.269531 465.078125 466.0625 464.757812 C 465.722656 464.257812 465.863281 463.570312 466.371094 463.238281 L 532.636719 419.269531 C 533.140625 418.933594 533.820312 419.070312 534.15625 419.578125 C 534.488281 420.082031 534.347656 420.761719 533.84375 421.09375 L 467.578125 465.066406 C 467.390625 465.1875 467.183594 465.246094 466.976562 465.246094 " fill-opacity="1" fill-rule="nonzero"/></svg>